<svg width="432" height="285" viewBox="0 0 432 285" fill="none" xmlns="http://www.w3.org/2000/svg">
<path d="M150.749 30.4307L151.405 30.6924C151.736 31.336 151.568 70.2651 151.566 74.8835L183.546 74.89C172.576 79.3637 163.277 85.1898 158.1 96.4427C153.92 105.527 153.419 117.961 156.984 127.318C161.409 138.934 170.738 145.527 181.56 150.46C177.874 151.413 172.091 151.129 168.329 151.134L151.28 151.145L151.283 225.296L79.6859 225.289C83.5463 238.331 94.1534 252.187 104.794 260.596C122.804 274.831 148.63 278.632 170.946 275.845C187.981 273.682 204.184 267.218 218.029 257.062C223.243 253.295 226.376 250.919 230.305 245.868L386.442 245.87H431.754L431.749 252.837C414.009 253.213 395.506 252.956 377.722 252.956L281.206 252.954L252.827 252.942C233.199 252.91 240.612 251.999 225.649 262.81C222.1 265.356 218.424 267.718 214.634 269.886C191.096 283.259 161.28 288.585 134.907 281.371C114.914 275.9 93.7791 260.849 83.4756 242.666C79.2648 235.094 76.3843 226.858 74.9596 218.311C69.757 188.849 80.0586 158.453 94.9905 133.266C112.226 104.193 136.29 77.9987 146.243 45.1072C147.727 40.2032 149.38 35.3742 150.749 30.4307Z" fill="white"/>
<path d="M76.512 0.170762C91.6001 -0.338909 107.192 0.49028 122.321 0.127638C124.068 0.0856628 125.896 0.182459 127.538 0.826085C129.253 2.64916 129.132 16.3282 129.077 19.4454C128.935 27.6375 126.515 35.9705 124.237 43.7993C119.583 59.6064 112.68 74.6619 103.74 88.5033C99.1081 95.6243 94.0549 101.323 89.1559 108.134C82.0327 118.037 75.7969 128.937 70.1116 139.729C67.3405 145.197 63.8306 151.047 62.0437 156.922C57.1857 172.894 56.5006 189.595 57.032 206.17C57.1836 210.895 59.0671 211.971 56.8471 216.767C55.9754 213.92 55.2912 210.792 54.7244 207.872C51.6052 190.829 52.9696 174.588 57.8584 158.082C58.6526 155.4 60.0737 152.034 60.5632 149.37C59.6907 148.509 47.574 148.893 45.6013 148.894L15.9703 148.905C13.1437 148.906 2.3294 149.465 0.425476 147.819C-0.0757164 145.935 0.0903622 139.069 0.0909815 136.771L0.102335 117.928L0.0703393 92.2004C0.0654081 88.8095 -0.276358 78.2142 0.592403 75.4964C2.0296 74.3256 19.1343 74.7468 22.3139 74.747L61.0189 74.7541C64.8712 74.7445 68.7575 74.7484 72.6031 74.7286C75.8001 74.7119 74.8724 68.9924 74.8662 66.6755L74.8471 55.0611L74.8616 15.477C74.8444 11.5604 74.5648 5.12297 75.1361 1.2307C75.2081 0.740071 76.0572 0.366419 76.512 0.170762Z" fill="white"/>
<path d="M189.541 84.1304C198.633 82.9229 210.795 88.5079 215.231 96.105C220.527 105.173 219.09 102.375 228.42 104.728C236.055 106.654 247.011 110.846 253.119 115.882C263.523 124.46 269.637 139.827 270.805 153.036L265.826 153.042C262.842 140.679 259.936 131.654 249.973 122.857C248.425 121.581 246.789 120.415 245.078 119.37C235.292 113.404 231.89 114.035 221.355 116.592C219.255 118.987 218.92 121.434 217.688 124.395C216.845 126.39 215.752 128.271 214.436 129.991C210.032 135.792 203.502 139.605 196.286 140.588C188.732 141.658 181.064 139.662 174.991 135.044C169.027 130.509 165.18 123.728 164.346 116.281C162.355 99.9217 173.169 86.069 189.541 84.1304ZM195.527 107.142C192.727 103.789 188.341 102.199 184.043 102.978C177.494 104.165 173.121 110.405 174.239 116.966C175.357 123.528 181.549 127.966 188.121 126.917C192.435 126.229 196.048 123.276 197.58 119.185C199.112 115.094 198.328 110.495 195.527 107.142Z" fill="white"/>
<path d="M235.387 154.648C241.334 154.626 247.967 154.326 253.836 154.809C264.843 155.715 268.536 167.928 256.671 172.221L263.987 183.046L261.212 183.071L252.3 183.081L245.951 172.88L245.946 183.097C242.465 183.038 238.88 183.084 235.392 183.087L235.387 154.648ZM252.481 166.352C255.279 161.46 248.801 162.095 245.993 162.142C245.938 163.723 245.922 165.305 245.947 166.887C248.005 166.911 250.635 167.142 252.481 166.352Z" fill="white"/>
<path d="M403.109 191.478C410.543 191.455 421.378 190.262 426.851 196.008C432.266 201.692 431.726 210.184 426.242 215.611C419.958 220.714 410.983 219.586 403.082 219.57L403.109 191.478ZM424.14 205.152C423.481 196.119 416.351 196.268 409.463 196.341L409.465 214.711C413.921 214.748 418.075 215.163 421.669 212.113C423.407 210.009 424.344 207.922 424.14 205.152Z" fill="white"/>
<path d="M233.072 183.078L221.838 183.077L220.267 179.028C219.536 178.554 210.488 178.773 208.983 178.779L207.356 183.065L196.152 183.084L208.512 154.638L220.746 154.636L233.072 183.078ZM214.552 164.457C213.57 166.991 212.573 169.52 211.561 172.042L215.283 172.021L217.579 172.033C216.985 170.456 215.254 165.638 214.552 164.457Z" fill="white"/>
<path d="M177.089 154.329C180.277 153.897 185.397 154.867 188.182 156.533C192.074 158.86 193.671 161.304 194.882 165.503L183.82 165.495C182.299 163.72 180.476 162.336 177.998 162.452C176.452 162.531 175.013 163.266 174.043 164.472C170.57 168.699 173.356 176.119 179.496 174.818C181.671 174.357 182.467 173.605 183.7 171.934L192.635 171.937C193.333 171.904 193.978 171.796 194.594 172.098C195.006 173.397 193.081 176.515 192.239 177.544C188.968 181.316 185.747 182.41 180.859 183.084C166.554 185.053 156.021 172.008 165.085 159.522C167.541 156.138 172.801 154.666 177.089 154.329Z" fill="white"/>
<path d="M267.238 154.637L289.757 154.633L289.754 161.789L277.853 161.796L277.846 165.19L288.282 165.192L288.296 171.925C284.981 171.944 281.103 171.813 277.848 171.987V175.875L289.759 175.873L289.757 183.078C282.507 183.053 274.387 183.279 267.238 183.028V154.637Z" fill="white"/>
<path d="M305.185 191.486L316.465 219.554L309.737 219.561L307.703 214.221L305.531 214.226L295.279 214.216C294.692 215.914 293.887 217.873 293.235 219.575L286.545 219.566C290.4 210.258 293.98 200.78 297.863 191.479L305.185 191.486ZM301.385 198.424C299.951 202.147 298.438 205.947 297.055 209.679L301.81 209.686L305.965 209.682C305.323 207.982 302.13 199.138 301.385 198.424Z" fill="white"/>
<path d="M190.754 191.481C197.61 191.451 212.698 189.466 213.584 199.28C213.787 201.438 213.115 203.587 211.72 205.245C209.361 208.046 206.354 208.523 202.967 208.782L197.04 208.78L197.053 219.566L190.73 219.571L190.754 191.481ZM205.487 197.098C203.044 195.781 199.745 196.118 197.045 196.151L197.055 204.216C200.051 204.257 203.498 204.7 205.992 203.044C207.366 201.111 207.947 198.421 205.487 197.098Z" fill="white"/>
<path d="M254.051 191.237C261.736 190.769 267.601 192.985 270.865 200.284L263.647 200.277C263.376 199.899 263.092 199.527 262.798 199.165C258.044 193.41 247.016 196.396 246.736 204.688C246.427 213.824 256.126 217.944 262.528 212.131L263.619 210.636L270.844 210.645C268.837 215.872 264.991 218.428 259.388 219.51C245.897 222.114 234.764 209.28 242.952 197.093C245.326 193.563 249.801 191.804 254.051 191.237Z" fill="white"/>
<path d="M171.559 191.219C178.229 190.584 183.511 192.123 185.149 199.174L178.193 199.181C177.482 196.986 176.167 196.13 173.875 195.836C169.034 195.219 167.478 200.362 172.405 202.213C176.796 203.906 184.459 204.16 185.273 210.074C186.118 216.207 181.206 219.097 175.932 219.737C171.57 220.132 165.182 218.948 163.262 214.303C162.971 213.599 162.575 212.191 162.876 211.494C164.024 211.237 167.99 211.358 169.379 211.372C170.801 217.437 179.943 215.489 178.69 211.104C177.338 206.374 163.839 208.044 162.878 201.034C162.012 194.713 165.996 192.137 171.559 191.219Z" fill="white"/>
<path d="M352.667 191.483L374.096 191.493L374.1 195.832L360.1 214.71L374.096 214.726L374.098 219.566L352.648 219.573L352.671 215.201C356.99 209.026 362.059 202.464 366.568 196.371C361.995 196.284 357.238 196.348 352.651 196.355L352.667 191.483Z" fill="white"/>
<path d="M379.347 191.485L397.52 191.488L397.524 196.146L385.671 196.144L385.669 203.05L396.187 203.057V207.505C394.393 207.516 386.643 207.177 385.719 207.812L385.669 208.766V214.921L397.522 214.937L397.531 219.563L379.322 219.568L379.347 191.485Z" fill="white"/>
<path d="M217.956 191.485L236.121 191.488L236.123 196.146H224.243L224.24 203.048L234.743 203.057L234.745 207.505C233.055 207.514 225.126 207.179 224.282 207.817L224.243 208.766V214.918L236.123 214.937L236.13 219.563L217.919 219.568C217.883 210.207 217.894 200.846 217.956 191.485Z" fill="white"/>
<path d="M194.579 224.27C207.379 222.52 212.828 236.757 197.916 239.041C193.289 239.349 186.371 237.956 185.649 232.353C185.448 230.768 185.889 229.17 186.874 227.91C188.733 225.511 191.716 224.667 194.579 224.27ZM198.192 236.279C205.886 233.756 202.983 226.22 194.516 226.984C186.631 229.204 189.032 237.172 198.192 236.279Z" fill="white"/>
<path d="M320.551 191.479L326.907 191.485V214.989L337.214 214.999V219.568L320.521 219.565L320.551 191.479Z" fill="white"/>
<path d="M276.158 191.483L282.422 191.493L282.408 219.566L276.133 219.568L276.158 191.483Z" fill="white"/>
<path d="M341.169 191.49L347.399 191.485L347.401 219.57L341.137 219.568C341.13 210.241 341.057 200.805 341.169 191.49Z" fill="white"/>
<path d="M282.733 224.389C285.272 229.011 287.827 234.213 290.283 238.936L285.781 238.945C284.931 237.317 285.054 236.3 283.174 236.176L276.169 236.174L274.832 238.943L270.348 238.936C272.68 234.156 275.378 229.144 277.827 224.389H282.733ZM277.344 233.78L280.708 233.787C281.41 233.78 282.502 233.896 282.988 233.578C282.623 232.577 280.83 228.808 280.231 228.03L277.344 233.78Z" fill="white"/>
<path d="M228.057 224.394C231.309 224.364 246.887 222.914 242.555 231.073C241.814 232.467 239.158 233.051 237.614 233.305C235.995 233.443 233.997 233.401 232.348 233.413V238.941L228.062 238.948L228.057 224.394ZM238.375 230.369C240.563 226.171 234.834 226.834 232.348 226.877V231.018C234.469 231.039 236.403 231.206 238.375 230.369Z" fill="white"/>
<path d="M165.208 224.394H169.485L169.483 230.387H178.309L178.309 224.389L182.527 224.394L182.534 238.936L178.308 238.948L178.315 232.821L169.462 232.81L169.488 238.943L165.203 238.945L165.208 224.394Z" fill="white"/>
<path d="M215.204 224.266C217.832 224.025 221.811 224.234 223.616 226.566C223.983 227.041 224.231 227.649 224.109 228.241C223.226 228.482 220.836 228.378 219.807 228.369L219.593 228.089C218.192 226.222 214.492 226.105 213.886 228.326C214.271 229.505 215.348 229.844 216.669 230.092C220.855 230.876 228.788 232.918 222.286 238.003C221.566 238.565 219.534 238.907 218.545 239.067C215.61 239.148 211.21 238.764 209.456 235.98C209.658 234.244 212.434 234.695 213.805 234.739C215.119 237.418 219.522 237.138 220.174 234.911C219.199 231.92 210.123 233.069 209.459 229.33C208.826 225.768 212.369 224.706 215.204 224.266Z" fill="white"/>
<path d="M253.326 224.401C256.271 224.385 265.86 224.144 268.386 224.55C268.78 225.174 268.645 225.456 268.654 226.282C267.665 227.13 264.599 226.807 263.147 226.777L263.152 233.252L263.156 238.946L258.837 238.943L258.842 226.786C256.989 226.743 255.053 227.229 253.636 226.481C253.147 225.695 253.319 225.44 253.326 224.401Z" fill="white"/>
<path d="M292.98 224.394L297.191 224.396L297.187 236.589C299.338 236.624 302.123 236.092 303.719 236.901C304.201 237.723 304.033 237.897 304.024 238.943L292.98 238.947V224.394Z" fill="white"/>
<path d="M246.164 224.394L250.433 224.392L250.442 238.796C249.543 239.062 247.213 238.952 246.162 238.941L246.164 224.394Z" fill="white"/>
</svg>
