<svg width="398" height="217" viewBox="0 0 398 217" fill="none" xmlns="http://www.w3.org/2000/svg">
<path d="M111.115 3.92351C125.959 -1.75384 148.258 -1.26381 162.859 5.35453C177.467 11.9762 186.837 22.6716 192.648 37.5878C194.386 42.0487 199.079 58.6059 197.725 62.6263C196.542 61.0365 194.693 57.4266 193.63 55.5132C191.858 52.2764 189.879 49.1582 187.703 46.1784C173.026 26.1236 151.332 12.6561 127.319 6.84775C124.452 6.15466 112.485 4.97979 111.115 3.92351Z" fill="white"/>
<path d="M184.121 120.65C185.387 118.814 186.902 115.167 187.803 113.016C192.406 102.019 195.819 91.0317 197.361 79.1878C197.68 76.7371 197.624 69.6969 198.255 68.021C204.474 83.5362 206.194 100.49 203.215 116.938C202.383 121.587 201.193 124.828 200.302 128.983C199.146 126.177 198.739 124.178 196.098 122.138C192.891 119.661 187.9 120.086 184.121 120.65Z" fill="white"/>
<path d="M111.116 3.92367C125.959 -1.75368 148.259 -1.26401 162.86 5.35433C177.467 11.976 186.837 22.6717 192.649 37.5877C194.387 42.0488 199.079 58.605 197.726 62.6258C199.492 68.2309 201.784 73.2599 203.232 79.0262C207.509 96.0581 206.854 119.255 199.148 135.289C198.735 137.548 197.574 141.406 196.992 143.793C195.887 148.43 194.867 153.087 193.931 157.761C192.469 157.689 187.599 157.265 186.556 157.84C185.602 157.753 185.526 157.8 184.581 158.056C184.117 157.684 184.108 157.648 183.707 157.204C183.289 154.01 187.929 138.673 188.558 134.413C188.894 132.406 189.327 130.705 188.048 128.92C185.679 125.612 181.348 127.975 178.872 129.947C176.992 131.431 175.478 133.328 174.449 135.491C173.163 138.258 169.72 154.149 169.285 157.742C165.818 157.554 161.784 157.615 158.273 157.59C158.836 155.927 161.841 142.94 162.127 140.908L162.184 139.647C163.666 135.703 165.559 125.657 166.54 121.049C169.843 121.029 173.146 121.069 176.448 121.172C176.386 122.651 176.103 124.072 175.855 125.532C178.135 124.041 180.408 122.536 182.67 121.017C187.17 107.037 188.125 95.8599 184.725 81.5243C175.142 41.0028 132.997 18.0587 93.2103 24.4198C72.028 27.8066 58.684 38.3985 43.7562 52.6991C45.2235 49.938 46.426 46.7861 47.6644 43.8875C49.8372 38.8438 51.9728 33.7839 54.0716 28.7088C54.8691 26.7854 59.924 15.6381 59.6585 14.4979C35.4533 25.5094 16.8708 44.1018 7.19173 69.1034C0.508125 86.3676 -0.901585 109.838 5.22494 127.43C5.45723 129.086 5.61338 129.575 5.22689 131.225C-1.5856 112.069 -1.74305 91.1752 4.77962 71.9178C11.8112 51.5967 25.3089 34.1399 43.2054 22.2196C49.2924 18.1618 54.2985 15.7161 60.8158 12.5116C61.5991 12.369 61.9746 12.1475 62.6839 11.8143C73.2211 7.68052 84.9233 4.94056 96.2406 4.37679C100.368 4.17103 107.473 4.72425 111.116 3.92367ZM99.515 5.47542C88.6235 5.98473 79.4129 7.32754 68.9886 10.8328C66.8735 11.5438 63.4572 12.697 61.6185 13.8182C61.5514 16.1666 54.9076 37.2271 53.7591 40.1805C65.5003 28.2613 79.0222 18.2388 93.8411 10.4715C97.4046 8.61071 101.558 7.40231 104.796 5.65706L105.08 5.50179C103.226 5.55902 101.369 5.55054 99.515 5.47542Z" fill="white"/>
<path d="M62.6835 11.8142C73.2207 7.68044 84.9226 4.94028 96.2399 4.3765C100.367 4.1707 107.473 4.72401 111.115 3.92334C112.486 4.97962 124.452 6.15449 127.319 6.84758C151.333 12.6559 173.026 26.1234 187.703 46.1782C189.879 49.158 191.859 52.2763 193.63 55.5131C194.693 57.4264 196.542 61.0363 197.726 62.6261C199.492 68.2314 201.784 73.2602 203.232 79.0267C207.509 96.0587 206.853 119.255 199.147 135.289C199.088 133.147 199.633 131.007 200.304 128.983C201.195 124.828 202.385 121.586 203.217 116.938C206.196 100.49 204.476 83.5358 198.257 68.0206C193.854 56.1412 185.565 43.8227 176.466 35.0395C154.758 14.085 129.339 5.11251 99.5164 5.47543C88.6247 5.98473 79.4142 7.32716 68.9898 10.8325C66.8748 11.5435 63.4586 12.6972 61.6198 13.8184C61.0076 14.0187 60.2319 14.2473 59.6583 14.498C35.4529 25.5096 16.8704 44.102 7.19138 69.1036C0.507771 86.3678 -0.902156 109.837 5.22436 127.429C5.4567 129.086 5.6135 129.575 5.22698 131.225C-1.58551 112.069 -1.74314 91.1755 4.77954 71.918C11.8111 51.5969 25.3083 34.1398 43.2049 22.2194C49.2919 18.1616 54.2982 15.7161 60.8155 12.5114C61.5989 12.3689 61.9742 12.1474 62.6835 11.8142Z" fill="white"/>
<path d="M12.1327 89.8018L12.3267 89.7492C12.8926 88.9431 13.3301 88.16 14.3883 88.1867C9.05986 107.965 12.1649 123.964 22.0332 141.762C42.7495 179.125 94.4704 190.777 130.626 169.515C136.055 166.322 140.391 163.107 145.143 158.914L146.065 159.666C128.645 176.761 108.05 189.152 84.1808 193.883C83.3628 194.046 81.7683 194.284 81.0857 194.613C79.997 194.784 79.3798 194.861 78.3147 195.203C74.4996 195.223 70.4703 195.475 66.697 195.489C36.1185 195.609 12.6744 175.81 7.42687 145.731C6.60631 141.027 6.02572 136.002 5.22722 131.225C5.61375 129.575 5.45694 129.086 5.22461 127.429C5.59625 125.756 5.59903 119.776 5.83114 117.515C6.73758 108.685 8.98529 98.0713 12.1327 89.8018Z" fill="white"/>
<path d="M26.1768 61.6699L27.1158 62.4954C23.7929 68.1091 20.7495 73.3405 18.0036 79.2982C16.583 82.3798 15.6797 85.1706 14.3885 88.187C13.3302 88.1604 12.8928 88.9434 12.3268 89.7496L12.1328 89.8022C13.1861 83.5828 22.7419 67.1197 26.1768 61.6699Z" fill="white"/>
<path d="M157.917 145.062L158.954 144.911C154.736 150.356 151.062 154.799 146.067 159.666L145.145 158.915C145.464 158.419 147.907 156.152 148.531 155.57C152.02 152.318 154.781 148.612 157.917 145.062Z" fill="white"/>
<path d="M26.1758 61.6698C27.5909 59.4318 29.8652 55.9113 31.6316 53.9683C30.4232 56.7456 28.6606 59.8723 27.1149 62.4953L26.1758 61.6698Z" fill="white"/>
<path d="M157.914 145.062L162.182 139.647L162.126 140.908C160.849 142.348 160.074 143.344 158.951 144.911L157.914 145.062Z" fill="white"/>
<path d="M116.192 107.239C118.417 107.479 124.456 107.372 127.13 107.454C125.149 119.163 121.258 130.899 119.259 142.633C118.621 146.299 121.234 148.717 124.601 149.375C141.261 152.629 142.345 139.065 145.072 126.74L149.282 107.401C152.764 107.445 157.134 107.461 160.564 107.271L158.984 114.275C157.413 121.027 156.068 127.832 154.518 134.569C152.809 142.002 150.357 150.742 143.333 154.858C134.361 160.115 116.291 160.783 110.23 150.626C107.282 145.686 108.377 139.559 109.73 134.284C112.032 125.314 113.872 116.196 116.192 107.239Z" fill="white"/>
<path d="M184.581 158.057C185.526 157.801 185.602 157.753 186.556 157.839C182.757 162.493 179.3 166.447 174.843 170.531C173.881 173.766 173.137 177.508 172.402 180.839C177.779 180.895 183.156 180.897 188.532 180.843L191.873 165.722C194.751 165.738 197.762 165.799 200.627 165.749L191.859 205.154H182.992C184.385 199.307 185.724 193.446 187.011 187.573C181.886 187.711 176.131 187.641 170.99 187.534C169.784 192.526 167.86 200.246 167.123 205.193C164.154 205.168 161.186 205.171 158.218 205.201C159.86 197.726 162.103 186.303 164.248 179.201C158.221 183.001 153.398 185.92 146.817 188.907C127.376 197.73 102.269 200.686 81.357 195.932C80.3403 195.7 79.3262 195.457 78.3145 195.203C79.3795 194.861 79.9967 194.784 81.0854 194.613C81.8421 194.871 84.7949 195.444 85.6908 195.579C114.013 199.855 141.291 193.7 164.523 177.312C165.311 173.537 166.082 169.502 167.051 165.791C169.778 165.732 172.508 165.629 175.23 165.778C175.858 166.365 175.217 166.3 175.371 167.732C177.118 167.349 183.444 159.813 184.581 158.057Z" fill="white"/>
<path d="M328.128 107.191C330.783 107.527 335.749 107.427 338.619 107.437L331.344 138.729C330.06 144.214 327.938 152.339 327.25 157.795C323.959 157.579 320.041 157.471 316.761 157.764C316.946 156.745 317.394 155.167 317.661 154.128C317.369 154.342 317.078 154.556 316.784 154.767C311.493 158.563 308.18 159.188 301.841 158.13C283.568 152.34 294.01 118.29 312.442 120.172C318.143 120.754 320.027 121.74 323.962 125.893C324.487 121.366 326.975 111.831 328.128 107.191ZM313.077 127.629C309.902 128.093 308.217 129.192 306.3 131.769C301.708 137.935 299.939 150.845 311.033 150.975C322.074 148.478 324.922 128.34 313.077 127.629Z" fill="white"/>
<path d="M272.261 120.235C277.214 119.85 282.755 122.141 285.512 126.365C288.756 131.334 288.506 137.133 287.383 142.705C278.562 142.651 269.741 142.647 260.922 142.69C261.418 152.683 271.406 154.271 276.606 146.431C279.269 146.541 283.449 147.395 286.316 147.781C285.848 149.118 284.89 150.363 283.991 151.469C274.358 163.279 252.01 160.322 250.9 143.294C250.607 137.324 252.153 131.522 256.182 127.025C260.832 121.838 265.661 120.655 272.261 120.235ZM271.301 127.54C270.773 127.545 270.242 127.564 269.713 127.599C264.857 129.266 263.509 131.708 262.171 136.476L270.9 136.438C273.291 136.461 276.053 136.563 278.403 136.313C278.455 131.487 276.881 127.459 271.301 127.54Z" fill="white"/>
<path d="M292.83 176.023C308.081 174.332 307.737 194.727 299.117 202.159C293.034 207.403 286.207 207.614 280.696 201.564L278.572 211.445L277.526 215.999C274.858 216.067 271.801 215.982 269.102 215.965C270.898 209.219 272.362 201.138 274.016 194.227C275.064 189.843 277.227 180.753 277.697 176.504C279.178 176.509 284.417 176.344 285.525 176.615C285.875 177.396 285.627 177.467 285.291 178.565C286.367 179.076 288.72 177.085 290.106 176.653C291.289 176.284 291.609 176.217 292.83 176.023ZM290.154 199.725C297.74 196.929 300.832 180.29 289.37 181.792C280.931 185.759 280.323 201.47 290.154 199.725Z" fill="white"/>
<path d="M217.586 176.067C221.263 175.604 225.751 176.134 228.894 178.222C237.24 183.767 235.066 196.679 227.962 202.298C225.379 204.339 223.227 205.077 220.03 205.669C197.753 209.656 196.576 178.707 217.586 176.067ZM218.944 199.555C226.627 196.522 230.213 181.034 217.952 182.049C211.999 184.645 210.075 190.512 211.529 196.581C214.072 199.434 215.05 199.931 218.944 199.555Z" fill="white"/>
<path d="M246.448 109.07L247.009 109.187C247.224 110.416 245.044 119.267 244.653 121.169C246.888 121.028 248.704 121.13 250.926 121.231C250.345 123.826 249.862 126.093 249.433 128.72L243.057 128.61C242.229 132.146 238.247 147.535 239.138 149.978C240.51 151.066 243.795 150.843 245.642 150.864L243.9 158.303C241.282 158.5 239.591 158.583 236.958 158.519C236.363 158.451 235.769 158.377 235.176 158.297C225.063 156.899 227.761 148.611 229.435 141.684C230.475 137.381 231.601 132.904 232.461 128.575C230.551 128.764 229.367 128.771 227.438 128.739C227.747 125.904 228.272 123.718 228.903 120.938C230.65 121.145 232.237 121.095 233.988 121.079C234.368 119.042 234.664 117.632 235.235 115.649C237.485 113.811 243.8 110.443 246.448 109.07Z" fill="white"/>
<path d="M361.398 176.057C364.375 175.794 369.146 175.8 371.835 177.477C379.519 182.273 371.876 194.42 372.311 201.589C372.396 203.005 372.636 203.814 372.988 205.148C370.179 205.09 367.295 205.812 365.17 204.769C364.37 203.715 364.569 203.539 364.381 202.119C359.035 206.472 353.612 207.903 348.362 202.549C345.952 198.626 346.439 195.96 348.541 192.021C351.449 186.571 364.953 189.042 367.028 186.276C368.915 180.422 361.109 179.926 358.146 184.842C355.777 184.786 352.178 184.312 349.671 184.104C350.302 183.046 350.987 182.023 351.724 181.039C354.363 177.565 357.277 176.627 361.398 176.057ZM365.366 192.044C362.069 192.529 350.707 193.503 356.055 199.256C361.016 201.17 365.559 197.305 365.6 192.33L365.366 192.044Z" fill="white"/>
<path d="M252.759 176.068C259.927 175.385 265.749 176.308 268.462 183.593C266.379 183.746 262.851 184.592 261.198 184.505C258.818 183.451 258.207 181.515 255.068 181.415C253.376 181.361 249.427 181.759 249.363 183.971C251.21 187.055 259.673 187.608 262.956 190.332C267.023 193.708 267.512 196.635 264.252 201.024C261.558 204.648 257.838 205.424 253.559 205.958C245.424 206.148 240.627 204.543 236.91 197.128C239.68 196.662 242.46 196.252 245.247 195.899C245.497 196.354 245.763 196.8 246.043 197.238C248.616 201.176 256.798 201.176 257.602 197.349C256.771 193.24 242.15 193.273 241.726 186.849C241.248 179.6 246.463 176.899 252.759 176.068Z" fill="white"/>
<path d="M211.906 121.155C215.374 121.055 219.08 121.166 222.569 121.214C220.278 132.663 217.227 146.23 214.537 157.591C211.041 157.601 207.256 157.543 203.791 157.734C206.612 146.75 209.606 132.292 211.906 121.155Z" fill="white"/>
<path d="M343.487 166.869C343.985 167.459 341.891 175.293 341.599 176.473L346.833 176.536C346.326 178.56 345.881 180.599 345.493 182.65L340.317 182.602C339.374 187.766 337.657 192.954 337.076 198.138C336.826 200.388 341.305 199.612 342.466 199.355C342.243 201.374 341.665 203.616 341.206 205.617C339.167 205.831 337.695 205.93 335.645 205.963C335.04 205.884 334.437 205.79 333.838 205.686C324.403 204.018 330.539 189.086 332.165 182.58L327.908 182.65C328.458 180.429 328.855 178.756 329.204 176.469L333.389 176.547C333.653 174.816 333.942 173.683 334.396 171.984C337.271 170.505 340.631 168.484 343.487 166.869Z" fill="white"/>
<path d="M388.838 165.755C391.683 165.768 394.498 165.808 397.34 165.664L388.535 205.215C385.72 205.122 382.906 205.149 380.094 205.295L385.698 180.33C386.711 175.799 388.12 170.254 388.838 165.755Z" fill="white"/>
<path d="M314.861 176.521L323.442 176.529C321.285 186.041 319.246 195.671 316.993 205.146C314.701 205.281 311.132 205.168 308.744 205.168C309.845 198.632 311.829 191.681 313.133 185.137C313.708 182.262 314.536 179.446 314.861 176.521Z" fill="white"/>
<path d="M215.734 107.316C218.812 107.219 222.531 107.403 225.72 107.401C224.944 110.245 224.414 113.377 223.659 116.28L223.123 116.562C219.79 116.514 216.457 116.491 213.123 116.493C213.622 113.771 214.136 110.735 214.927 108.081C215.119 107.436 215.094 107.613 215.734 107.316Z" fill="white"/>
<path d="M317.377 165.677C319.388 165.865 323.672 165.766 325.851 165.78C325.252 167.981 324.751 170.621 324.264 172.878L315.748 172.918C316.469 170.369 316.876 168.274 317.377 165.677Z" fill="white"/>
<path d="M60.8164 12.5113C61.1372 10.7534 63.5073 5.15614 64.666 3.65137L64.8806 3.89597C64.3377 6.56818 63.4132 9.1727 62.6844 11.8141C61.975 12.1473 61.5997 12.3688 60.8164 12.5113Z" fill="white"/>
</svg>
