<svg width="758" height="243" viewBox="0 0 758 243" fill="none" xmlns="http://www.w3.org/2000/svg">
<path d="M335.19 165.016C340.527 164.043 348.753 165.853 353.13 169.127C357.487 172.386 360.177 177.074 360.978 182.43C361.903 188.774 360.277 195.225 356.46 200.375C352.115 206.223 346.523 208.789 339.499 209.84C326.317 211.339 314.247 204.982 312.695 190.924C311.968 184.804 313.707 178.646 317.528 173.81C322.137 168.071 328.085 165.805 335.19 165.016ZM339.344 206.224C350.098 203.125 350.945 188.532 348.485 179.471C346.536 172.294 341.859 168.042 334.194 168.8C317.874 173.807 321.888 207.744 339.344 206.224Z" fill="white"/>
<path d="M327.409 104.863C339.327 103.071 351.274 109.174 353.492 121.69C354.562 127.98 353.101 134.437 349.432 139.657C345.143 145.775 339.634 148.343 332.5 149.613C319.231 151.095 307.038 145.22 305.296 130.936C304.52 124.828 306.208 118.663 309.983 113.801C314.473 108.095 320.395 105.709 327.409 104.863ZM331.097 146.169C333.583 145.616 335.245 145.088 337.074 143.213C345.721 134.345 344.095 107.726 327.939 108.456C310.597 111.522 313.962 146.431 331.097 146.169Z" fill="white"/>
<path d="M33.1641 61.4365C39.0301 60.8983 47.2609 61.3288 52.8953 63.0805C74.2758 67.3997 94.3574 90.8285 100.869 110.751C102.58 114.676 105.357 122.978 105.627 127.237C103.806 121.764 101.15 117.326 99.7087 113.21C89.0991 95.4273 75.9405 84.2236 54.754 81.6891C36.6371 79.522 14.4485 84.7967 0 96.0942C2.34531 86.734 6.61092 74.6986 10.9976 66.1442C17.6283 63.8559 26.1251 61.6834 33.1641 61.4365Z" fill="white"/>
<path d="M33.1641 61.4365C39.03 60.8983 47.2608 61.3288 52.8953 63.0805C47.8937 63.5708 42.2091 63.6481 37.1778 63.2111C35.0214 63.0239 34.887 62.4107 33.1641 61.4365Z" fill="white"/>
<path d="M134.268 120.829C140.051 100.279 152.63 79.4248 171.632 68.6388C189.013 58.7727 209.206 59.6199 227.629 66.1375C232.657 76.4891 235.464 84.9943 238.626 96.0791C223.347 84.6388 201.404 79.2212 182.514 81.8534C166.965 84.0204 153.995 91.8271 144.593 104.393C140.776 109.587 137.616 115.233 135.186 121.203L134.268 120.829Z" fill="white"/>
<path d="M111.651 0.218317L115.521 0L115.521 67.2325C115.521 77.5679 115.993 92.1864 115.386 102.162C114.109 91.5887 112.329 81.0822 110.052 70.6786C103.517 44.3984 95.013 27.1503 75.4512 8.34619C87.399 3.57725 98.9133 1.29325 111.651 0.218317Z" fill="white"/>
<path d="M123.061 0.00976562C136.347 0.317954 150.81 3.56669 163.158 8.36973C144.863 24.1912 135.021 45.3072 129.134 68.3019C127.574 74.7173 126.278 81.1939 125.247 87.7154C124.889 89.905 123.612 100.071 123.066 101.436L123.061 0.00976562Z" fill="white"/>
<path d="M132.342 106.074C142.071 77.6517 160.532 43.3505 192.997 36.6752C197.117 35.8279 201.211 35.7843 205.399 35.8393C212.067 43.0118 216.345 47.907 221.857 56.2344C204.771 51.7471 184.544 55.4069 169.453 64.3201C152.94 74.0727 142.161 88.3776 134.093 105.425L132.342 106.074Z" fill="white"/>
<path d="M33.2823 35.8396C41.3237 35.7372 47.5116 36.3429 55.0758 39.3672C77.2957 48.2503 91.9872 70.4275 101.186 91.4618C100.551 94.4353 102.256 94.5426 101.797 96.2216C101.527 96.345 101.028 96.591 100.768 96.6663C92.604 83.2313 84.8302 73.0093 71.0626 64.6318C54.7985 54.7527 35.2848 51.7145 16.7871 56.1812C21.5611 48.8438 27.0896 42.0262 33.2823 35.8396Z" fill="white"/>
<path d="M170.875 11.7163C179.836 15.5447 189.565 22.2888 197.103 28.3814C164.071 32.8276 143.472 59.5157 132.141 88.8302C129.533 95.8938 128.059 101.884 126.068 109.104C126.083 108.782 126.109 108.461 126.147 108.141C130.016 76.5837 144.947 32.1314 170.875 11.7163Z" fill="white"/>
<path d="M290.832 184.965C290.851 182.255 291.381 171.812 290.175 169.431C289.962 169.011 287.436 168.262 286.554 166.962C286.543 166.16 286.436 166.482 287.127 165.753C289.789 165.636 303.134 165.502 305.071 165.868L305.413 166.319C304.734 168.432 302.106 168.434 301.631 171.045C301.205 173.39 301.379 176.664 301.382 179.061L301.402 196.524C301.405 199.154 301.515 204.333 301.153 206.803C302.675 206.956 304.434 206.943 305.614 207.83L305.93 208.396C304.143 210.35 290.932 209.506 287.307 209.496C286.849 208.613 286.958 208.949 287 207.932C287.907 206.811 289.432 206.77 289.841 205.972C291.599 202.542 290.836 193.209 290.832 189.165L271.542 189.164C271.524 193.207 271.692 203.197 271.199 206.801C272.428 206.932 274.941 207.066 275.875 207.657C275.833 208.381 275.868 208.74 275.463 209.362C273.515 209.703 258.992 209.66 257.279 209.35C256.939 208.362 256.991 208.736 257.268 207.669C257.908 206.99 260.324 206.448 260.48 204.95C261.589 194.285 260.657 183.098 260.929 172.316C260.981 170.242 260.828 169.571 259.066 168.434L257.423 168.066C256.691 167.38 256.868 167.722 256.699 166.793L257.11 166.254C259.232 165.243 272.722 165.529 275.487 165.836L275.555 166.913C273.869 168.199 271.734 169.597 271.575 171.797C271.266 176.07 271.589 180.67 271.542 184.969L290.832 184.965Z" fill="white"/>
<path d="M259.066 168.434L257.423 168.066C256.691 167.38 256.868 167.722 256.699 166.793L257.11 166.254C259.232 165.243 272.722 165.529 275.487 165.836C271.874 166.239 261.846 165.234 259.744 166.742C259.604 167.07 259.111 168.158 259.066 168.434Z" fill="white"/>
<path d="M41.4922 28.3975C49.4864 21.5038 58.3045 16.3458 67.6935 11.6484C87.2644 27.4774 98.5094 53.1744 105.856 76.5941L106.616 79.5088C104.892 81.0064 104.5 81.0911 104.301 83.3535L103.358 81.2014C99.9463 73.4254 95.673 66.0573 90.618 59.2346C78.0852 42.5063 62.3499 31.3715 41.4922 28.3975Z" fill="white"/>
<path d="M105.855 76.5942L106.615 79.5089C104.891 81.0065 104.5 81.0912 104.301 83.3536L103.357 81.2015C104.77 78.5816 105.343 80.3937 105.855 76.5942Z" fill="white"/>
<path d="M359.438 105.447H371.029L398.476 133.755C398.489 127.074 398.486 120.059 398.476 113.389C398.466 105.946 393.462 110.246 393.049 106.063L393.52 105.639C395.153 105.409 405.733 105.147 406.599 105.797C406.654 107.407 402.927 109.64 402.765 112.556C402.167 123.348 403.603 138.789 402.684 149.152L402.216 149.435C402.002 149.436 401.786 149.435 401.573 149.432C400.729 149.421 399.523 149.474 398.954 148.947C396.148 146.342 393.181 143.234 390.508 140.523L368.737 118.264C368.741 126.08 369.148 139.376 368.479 146.634C369.775 146.725 373.195 146.822 374.126 147.546L373.909 149.068C372.936 149.798 360.465 149.532 359.538 148.884C359.596 147.218 363.307 146.665 363.633 145.199C365.696 138.045 363.64 126.495 364.438 119.609C365.731 108.432 359.77 109.961 359.438 105.447Z" fill="white"/>
<path d="M584.484 105.45L596.057 105.445C605.259 114.654 614.388 124.385 623.555 133.717L623.597 114.65C623.574 106.159 620.584 109.73 618.348 107.5C618.186 106.369 618.089 106.749 618.558 105.772C619.43 105.183 630.818 105.237 631.63 105.806C631.381 107.584 627.88 110.088 627.812 112.34C627.735 114.92 627.77 117.593 627.78 120.165L627.828 138.066C627.848 141.003 628.042 146.306 627.702 149.074C627.023 149.527 625.297 149.398 624.376 149.404C614.123 139.099 603.937 128.726 593.816 118.288C593.829 124.832 594.214 140.944 593.48 146.623C595.168 146.737 597.847 146.72 599.205 147.622L599.228 148.175C598.73 148.723 598.856 148.693 598.206 149.033C596.58 149.888 585.952 149.493 584.791 148.986C584.449 147.548 588.321 146.536 588.942 144.444C589.886 141.266 589.925 113.322 588.735 111.199C588.709 111.149 588.677 111.099 588.651 111.049C587.885 109.705 586.518 109.047 585.393 108.06C584.439 107.226 584.562 106.63 584.484 105.45Z" fill="white"/>
<path d="M487.055 105.447L498.63 105.445L526.041 133.705C526.009 126.638 526.258 119.261 526.022 112.19C525.87 107.642 522.796 109.044 520.892 107.494C520.562 106.425 520.656 106.737 520.953 105.535C524.293 105.204 529.574 105.642 533.179 105.378C533.815 105.331 534.158 105.942 534.442 106.361C534.333 107.192 534.307 106.995 533.528 107.447C529.005 110.076 530.331 119.868 530.331 124.728L530.35 149.406L526.843 149.405C517.239 139.13 506.223 128.406 496.306 118.236C496.316 127.313 496.561 137.653 496.173 146.632C497.673 146.743 500.511 146.831 501.704 147.484C501.859 148.334 501.827 148.438 501.51 149.226C499.606 149.593 488.661 149.583 487.449 148.998C487.258 147.225 490.649 146.844 491.247 145.201C491.263 145.149 491.283 145.096 491.302 145.044C492.595 141.473 492.404 117.861 491.897 113.356C491.548 110.262 489.993 109.832 487.898 108.013C487.026 107.254 487.142 106.518 487.055 105.447Z" fill="white"/>
<path d="M541.713 105.448L574.952 105.446C575.334 107.034 577.36 115.888 577.244 116.929C573.145 117.728 573.262 112.683 571.06 110.958C568.193 108.709 560.665 109.492 556.967 109.537V124.787L567.071 124.787C567.194 123.678 567.246 122.469 567.721 121.474C568.387 120.706 569.554 120.708 570.595 120.569C570.592 122.567 570.944 131.755 570.249 132.787C569.211 132.746 568.814 132.762 567.838 132.429C567.262 131.544 567.217 129.833 567.101 128.719C563.91 128.683 560.523 128.579 557.348 128.768C556.844 129.346 556.999 129.93 556.967 130.85C556.983 135.033 557.19 141.472 556.631 145.419C559.792 145.456 570.889 146.45 572.66 142.213C573.472 140.271 572.728 138.254 576.022 137.85C578.259 138.876 575.482 147.201 574.972 149.351C570.98 149.348 543.488 149.653 542.654 149.036C541.726 146.019 546.675 147.803 546.445 141.865C546.07 132.253 546.584 122.476 546.393 112.838C546.251 105.671 542.266 110.855 541.713 105.448Z" fill="white"/>
<path d="M698.189 105.146C699.511 104.764 699.828 106.039 700.235 107.061C705.145 119.391 709.338 132.054 714.442 144.296C714.952 145.526 715.954 146.528 717.086 147.2L717.189 147.261C717.59 148.426 717.574 147.958 717.273 149.142C716.527 149.543 701.703 149.56 700.636 149.24L700.6 148.002C701.169 146.894 701.551 147.018 702.899 146.456C703.83 144.509 701.48 139.073 700.688 136.745L693.269 136.745L686.911 136.745L683.426 146.585C685.353 146.742 686.891 146.806 688.75 147.349C688.837 148.201 688.886 147.853 688.437 148.705C686.31 150.049 678.581 149.379 675.836 149.233L675.633 148.827C676.072 146.983 679.521 145.175 680.472 142.507C684.839 130.24 689.856 118.005 694.643 105.867L698.189 105.146ZM688.598 132.599H693.916L699.256 132.598C698.532 130.431 694.973 119.33 694.203 117.888C692.351 122.748 690.383 127.726 688.598 132.599Z" fill="white"/>
<path d="M409.233 165.675C418.365 165.64 431.291 164.447 439.479 168.204C447.667 171.958 445.892 184.07 439.224 188.445C437.042 189.876 428.001 193.854 426.986 190.119C427.092 189.797 427.222 189.412 427.374 188.962C428.857 188.324 432.355 187.131 433.431 185.994C434.95 184.384 435.936 181.403 435.936 179.18C435.949 176.641 434.938 174.204 433.134 172.418C430.58 169.919 428.153 169.65 424.807 169.703L424.322 170.022L424.335 192.126C424.338 196.778 424.477 202.238 424.073 206.818C425.997 206.934 428.634 206.994 430.354 207.71L430.493 208.267L429.947 208.973C428.101 209.85 411.687 209.744 409.657 209.311L409.56 208.15C410.161 207.258 410.697 207.159 411.612 206.694C412.685 206.148 413.183 205.622 413.542 204.462C414.185 202.378 413.998 171.394 413.325 170.138C413.303 170.096 413.28 170.054 413.257 170.012C412.491 168.598 410.853 168.738 409.728 167.855C409.081 167.35 409.262 166.416 409.233 165.675Z" fill="white"/>
<path d="M538.984 165.283L539.465 165.208C542.232 167.26 552.761 203.847 556.468 206.531C556.976 206.896 557.431 207.321 557.9 207.728C558.191 208.725 558.217 208.317 557.813 209.262C556.72 209.717 541.757 209.687 541.153 209.294C540.91 206.237 542.83 207.681 543.48 206.462C544.243 205.028 541.783 198.767 541.185 196.922H532.939H527.434C526.248 199.794 524.968 203.791 523.904 206.793C525.294 206.899 528.87 206.829 529.264 208.269C528.734 209.062 528.672 209.107 527.641 209.404C526.274 209.798 516.703 209.622 515.979 209.222C516.266 207.74 519.731 205.421 520.876 202.469C525.569 190.331 530.353 178.186 535.098 166.071L538.984 165.283ZM534.901 192.83L539.821 192.825C539.181 191.043 535.192 178.856 534.591 178.355L529.002 192.822L534.901 192.83Z" fill="white"/>
<path d="M142.189 184.427C141.056 182.184 135.974 170.676 136.494 168.843C138.218 169.808 137.16 171.162 138.274 173.338C139.972 176.657 141.838 179.545 144.027 182.533C157.342 198.55 179.081 206.16 199.285 208.015C200.801 208.143 202.319 208.232 203.839 208.284C196.929 214.261 189.972 220.111 182.126 224.843C164.869 215.801 150.74 202.045 142.189 184.427Z" fill="white"/>
<path d="M98.067 177.36L99.0209 178.701C90.2497 199.398 76.2173 214.389 56.4379 224.864C48.7566 220.019 41.546 214.465 34.9004 208.275C40.1324 208.223 48.1673 206.965 53.2662 205.719C71.6556 201.222 87.7717 193.831 98.067 177.36Z" fill="white"/>
<path d="M384.295 165.587C388.868 165.07 394.645 166.009 399.254 166.638C398.944 168.102 397.564 177.013 396.804 177.531C393.132 180.032 393.882 172.572 392.23 171.109C387.149 166.02 375.489 171.676 381.757 178.182C387.685 184.33 402.109 186.272 401.278 197.937C400.531 208.4 391.332 211.058 382.067 210.439C377.487 210.013 373.602 208.573 369.254 207.181C370.117 204.715 372.305 195.939 374.471 195.309C376.575 195.914 376.013 202.81 380.134 205.51C384.366 208.283 393.213 206.851 392.146 200.633C390.74 195.276 382.129 192.624 378.014 189.669C366.044 181.073 370.201 168.002 384.295 165.587Z" fill="white"/>
<path d="M275.522 105.433C279.097 104.487 285.632 104.526 289.33 105.251C292.082 105.585 295.21 106.235 297.965 106.742C297.504 109.461 296.63 114.667 295.838 117.099L295.154 117.361C292.037 116.626 292.442 111.694 289.15 110.205C273.88 103.293 264.075 116.657 268.363 131.248C271.261 141.11 282.589 145.727 291.894 141.87C293.814 141.074 296.71 138.609 298.448 139.556C298.609 140.525 298.47 140.989 297.848 141.808C290.636 151.312 274.969 152.232 265.804 145.532C261.153 142.08 258.066 136.92 257.223 131.189C255.498 119.617 263.706 107.123 275.522 105.433Z" fill="white"/>
<path d="M275.521 105.433C279.097 104.487 285.632 104.526 289.329 105.251C287.254 106.248 277.211 106.562 275.521 105.433Z" fill="white"/>
<path d="M638.627 105.447L677.465 105.445C677.885 107.82 680.196 116.616 678.147 117.691C675.328 117.004 674.488 112.189 673.395 111.034C671.731 109.277 665.66 109.507 663.313 109.535L663.339 132.78C663.339 135.933 663.501 142.849 663.097 145.722C663.103 145.923 663.226 146.32 663.281 146.534C665.56 147.352 668.492 145.951 669.407 148.063C669.216 149.083 669.416 148.859 668.731 149.403C666.181 149.408 649.786 149.658 648.567 149.167L648.564 148.032C649.268 146.425 652.443 146.2 652.598 144.234C652.889 140.56 652.772 136.756 652.772 133.057L652.756 109.538C646.537 109.458 642.483 108.795 641.019 114.597C640.806 115.439 638.87 117.402 637.919 117.687C635.818 117.039 638.23 107.548 638.627 105.447Z" fill="white"/>
<path d="M414.02 105.448L452.878 105.446C453.249 107.362 455.91 117.194 453.363 117.595C450.418 116.608 450.188 112.316 448.873 111.086C446.914 109.256 441.318 109.499 438.765 109.537L438.674 145.728L438.516 146.266C439.46 146.97 442.983 147.012 444.367 147.096C445.13 147.613 444.932 147.321 445.139 148.176L444.645 148.909C444.402 149.09 443.84 149.433 443.578 149.421C438.59 149.195 428.65 149.814 424.19 149.188L424.002 148.48C424.668 146.855 426.895 146.116 427.826 144.526C427.855 144.479 427.881 144.431 427.907 144.384C428.657 143.083 428.204 113.43 428.204 109.538C425.192 109.483 423.275 109.332 420.217 110.098C415.378 111.311 418.022 115.768 413.623 117.459C413.248 117.603 413.109 117.407 412.776 117.197C411.9 115.311 413.587 107.944 414.02 105.448Z" fill="white"/>
<path d="M479.081 165.676L517.944 165.674C518.235 167.551 520.123 176.203 519.606 177.281C519.244 177.299 518.636 177.276 518.329 177.322C516.212 177.643 514.46 171.823 513.497 170.901C512 169.469 505.923 169.695 503.741 169.717C503.744 180.507 504.216 195.99 503.586 206.416L503.563 206.512C504.187 207.279 507.927 206.751 509.766 207.561C509.977 208.67 510.07 208.302 509.569 209.184C508.396 209.841 489.935 209.727 489.124 209.015C489.386 208.048 490.252 207.419 491.038 206.727C494.328 203.835 493.197 198.432 493.19 194.231L493.184 169.716C490.782 169.676 483.813 169.28 482.523 172.061C481.579 174.092 481.017 177.306 478.163 177.687L477.697 177.238C477.057 174.873 478.557 168.464 479.081 165.676Z" fill="white"/>
<path d="M723.121 105.446C725.752 105.434 740.544 105.096 741.717 105.896C741.346 107.342 738.029 109.743 737.89 112.276C737.295 122.919 738.685 134.875 737.635 145.418C743.359 145.469 751.66 146.597 753.264 140.227C753.626 138.791 756.086 137.318 757.618 138.102C758.171 139.166 757.973 138.94 757.692 140.389L755.665 149.406C746.954 149.422 732.023 149.853 723.793 149.295C723.147 148.792 723.331 149.078 723.17 148.142C723.57 147.223 725.542 146.302 726.644 145.395C727.036 144.668 727.394 143.627 727.372 142.792C727.074 132.225 727.627 121.619 727.226 111.062C727.223 110.689 726.913 109.413 726.609 109.175C724.204 107.303 723.467 109.03 723.121 105.446Z" fill="white"/>
<path d="M563.693 165.672C566.401 165.694 580.782 165.256 582.105 166.037C581.936 167.348 578.219 169.956 578.258 173.102C578.365 181.986 578.387 190.882 578.381 199.769C578.381 201.758 578.378 203.656 578.009 205.597C583.356 205.672 592.222 206.766 593.745 200.453C594.139 198.821 596.586 197.557 598.163 198.238C598.668 199.3 598.386 199.514 598.125 200.832C597.439 203.376 596.786 206.89 596.211 209.529C586.491 209.54 573.509 209.892 564.051 209.424C563.495 208.783 563.612 209.097 563.612 208.241C564.142 207.335 565.955 206.656 567.116 205.594C567.474 204.856 567.824 203.748 567.798 202.921C567.449 192.222 568.134 181.437 567.571 170.757C567.381 167.144 563.974 170.347 563.693 165.672Z" fill="white"/>
<path d="M461.176 105.447C465.54 105.423 474.991 105.131 479.417 105.716C479.572 105.736 479.656 106.18 479.73 106.406C479.326 107.385 478.149 107.777 477.367 108.493C475.066 110.613 475.838 114.543 475.719 117.431C475.612 120.036 475.806 122.81 475.725 125.436C475.512 132.377 476.161 139.767 475.473 146.658C478.175 146.799 480.018 146.235 480.438 149.125C478.935 149.558 462.22 149.677 461.409 149.045C460.914 146.727 464.958 146.027 464.997 144.288C465.258 133.17 465.268 121.672 465.045 110.53C464.98 107.21 461.247 109.981 461.176 105.447Z" fill="white"/>
<path d="M453.698 206.838C454.27 206.245 455.156 205.304 455.221 204.433C455.996 193.709 455.344 182.785 455.547 172.021C455.615 168.362 452.279 168.882 451.426 166.685C451.558 166.334 451.613 165.95 451.966 165.886C454.804 165.374 467.808 165.52 469.767 165.987L469.967 166.43C468.6 168.301 467.439 168.26 466.764 170.418L466.699 170.631C465.704 173.82 466.263 177.508 466.095 180.721C465.716 188.043 466.773 199.827 465.791 206.805C467.181 206.952 469.382 207.074 470.581 207.632L470.685 208.268C468.732 210.537 457.341 209.399 453.87 209.563L452.263 209.488C451.468 208.812 451.649 209.163 451.549 208.193C452.389 207.015 452.072 207.373 453.698 206.838Z" fill="white"/>
<path d="M136.826 192.667C135.759 190.179 130.464 171.434 131.303 169.862C132.075 171.763 133.038 176.197 133.681 178.41C135.121 183.362 136.643 187.059 138.822 191.701C148.058 209.295 157.873 218.575 174.407 229.164C170.147 231.322 165.773 233.251 161.307 234.941C150.634 223.321 141.974 207.543 136.826 192.667Z" fill="white"/>
<path d="M103.043 185.245C103.803 185.844 103.829 186.01 104.106 186.941C98.3556 204.39 89.7572 221.3 77.3026 234.937C72.6243 233.21 68.6102 231.35 64.1523 229.151C82.4926 218.229 94.5326 204.697 103.043 185.245Z" fill="white"/>
<path d="M111.104 181.574L111.746 182.07C109.101 199.44 103.922 225.019 96.11 240.304C92.3655 239.486 88.6456 238.559 84.9551 237.524C98.6251 220.304 106.568 202.962 111.104 181.574Z" fill="white"/>
<path d="M129.119 194.838C130.058 195.77 129.572 195.949 130.05 197.435C130.733 197.195 130.886 197.011 131.4 196.54C136.781 212.883 143.285 223.94 153.567 237.496C150.015 238.625 146.097 239.474 142.446 240.334C137.08 229.248 133.866 217.051 131.073 205.089C130.488 202.58 129.252 197.249 129.119 194.838Z" fill="white"/>
<path d="M115.202 183.888C115.706 187.445 115.491 196.051 115.486 200.066L115.444 229.781C115.441 232.046 115.31 240.841 115.621 242.536C111.82 242.477 107.587 241.987 103.822 241.551C109.731 227.187 114.915 199.429 115.202 183.888Z" fill="white"/>
<path d="M123.483 185.855C123.969 200.109 129.031 228.485 134.817 241.584C130.777 242 127.101 242.357 123.049 242.544C123.359 240.882 123.232 232.528 123.23 230.302L123.188 201.447C123.183 197.602 122.976 189.223 123.483 185.855Z" fill="white"/>
<path d="M104.301 83.354C104.5 81.0916 104.891 81.0069 106.615 79.5093C108.38 85.6972 110.152 93.297 111.128 99.674C111.632 102.376 111.95 104.216 112.182 106.98L112.031 107.105C111.327 104.906 110.837 102.905 110.291 100.673C108.433 94.3243 106.74 89.5134 104.301 83.354Z" fill="white"/>
<path d="M101.187 91.4619C103.074 95.9062 107.182 106.737 108.215 111.617C107.664 111.287 101.687 98.4731 100.77 96.6665C101.029 96.5912 101.528 96.3452 101.798 96.2217C102.257 94.5428 100.552 94.4354 101.187 91.4619Z" fill="white"/>
<path d="M129.118 194.839C128.342 192.279 125.613 175.682 126 173.423C127.481 182.089 128.774 188.18 131.399 196.54C130.885 197.011 130.732 197.195 130.049 197.435C129.571 195.949 130.057 195.77 129.118 194.839Z" fill="white"/>
<path d="M115.202 183.888C115.075 182.637 115.022 182.332 115.327 181.127L115.618 181.102C116.073 184.009 116.112 240.304 115.621 242.535C115.31 240.841 115.441 232.046 115.444 229.781L115.486 200.066C115.491 196.051 115.706 187.444 115.202 183.888Z" fill="white"/>
<path d="M123.048 242.544C122.337 239.315 122.875 223.899 122.876 219.812L122.879 194.815C122.877 190.969 122.69 184.292 123.074 180.756C123.247 182.355 123.508 184.278 123.481 185.855C122.975 189.223 123.182 197.602 123.187 201.447L123.229 230.302C123.231 232.528 123.358 240.882 123.048 242.544Z" fill="white"/>
<path d="M103.043 185.245C104.569 180.941 106.158 176.785 106.969 172.29C107.095 171.594 107.285 170.314 107.679 169.79C107.878 174.146 104.99 182.625 104.106 186.941C103.829 186.01 103.803 185.844 103.043 185.245Z" fill="white"/>
<path d="M98.0664 177.36C98.7546 176.094 102.329 168.197 102.524 168.023C101.783 170.878 100.086 176.089 99.0203 178.701L98.0664 177.36Z" fill="white"/>
<path d="M132.342 106.074L134.093 105.425C133.073 107.488 131.724 111.485 130.614 113.113C130.456 111.843 131.886 107.579 132.342 106.074Z" fill="white"/>
<path d="M111.105 181.574L112.397 175.005C112.327 177.838 112.155 179.308 111.747 182.071L111.105 181.574Z" fill="white"/>
<path d="M134.268 120.829L135.187 121.203L133.074 126.871C133.286 124.44 133.646 123.155 134.268 120.829Z" fill="white"/>
</svg>
