<?xml version="1.0" encoding="UTF-8"?>
<svg id="Layer_1" data-name="Layer 1" xmlns="http://www.w3.org/2000/svg" viewBox="0 0 602.89 121.81">
  <defs>
    <style>
      .cls-1 {
        fill: #cad4e8;
      }
    </style>
  </defs>
  <g>
    <path class="cls-1" d="M86.39,84.81c-1.33.15-2.3-.44-2.97-1.58-.48-.81-.51-1.69-.27-2.59.42-1.59,1.48-2.6,2.77-3.4,3.94-2.43,7.9-4.86,11.85-7.28.18-.11.38-.22.55-.35.45-.35.56-.82.31-1.28-.25-.45-.73-.64-1.21-.42-.37.17-.72.4-1.07.62-3.77,2.31-7.53,4.62-11.3,6.92-1.2.73-2.47,1.26-3.8,1.7-1.5.5-2.99.56-4.52.3-.78-.13-1.68-1.19-1.83-2.11-.29-1.77.44-3.21,1.36-4.57.6-.89,1.53-1.39,2.36-2.02.81-.62,1.65-1.2,2.48-1.79.82-.58,1.61-1.18,2.43-1.76,2.84-1.98,5.67-3.97,8.52-5.93,2.92-2.01,5.87-3.99,8.8-5.98.94-.64,1.89-1.28,2.82-1.95.36-.26.67-.33,1.04-.04.15.12.33.2.5.3.88.53.88.55.64,1.55-.44,1.79-.65,3.61-.55,5.45.12,2.1.69,4.07,2.1,5.64.97,1.08,2.17,1.83,3.6,2.04,1.1.16,1.8-.55,2.39-1.38.79-1.1,1.16-2.4,1.58-3.67.6-1.79,1.27-3.55,1.98-5.3.6-1.5,1.2-3.01,1.5-4.61.4-2.12-.03-4-1.48-5.66-2.3-2.62-5.01-4.66-7.81-6.6-.24-.16-.49-.29-.73-.46-.08-.06-.23-.07-.21-.24.02-.18.16-.13.27-.16,1.09-.32,2.16-.05,3.22.16,3.81.75,7.56,1.79,11.3,2.8,1.75.48,3.49,1.03,5.23,1.53.27.08.43.22.56.47,2.23,4.24,4.47,8.49,6.71,12.73,2.73,5.16,5.46,10.33,8.19,15.49.21.39.23.62-.22.91-.86.55-1.65,1.21-2.46,1.84-.44.34-.71.36-1.12-.15-1.11-1.36-2.36-2.52-4.12-2.93-2.68-.62-5.22.93-5.93,3.71-.14.53-.28.52-.7.29-2.8-1.59-6.36-.66-7.99,2.09-.51.85-.76,1.79-.7,2.8.02.37-.07.5-.46.44-2.29-.34-4.36,1.04-5.14,3.38-.26.78-.43,1.58-.38,2.4.02.42-.07.52-.49.42-1.93-.47-3.65-.12-4.98,1.53-1.1,1.36-1.33,2.97-1.11,4.67.05.37-.02.59-.35.79-1.4.85-2.91,1.27-4.51,1.16-1.65-.11-2.73-1.42-3.02-2.99-.07-.41.31-.57.57-.75,2.09-1.4,4.18-2.79,6.27-4.17,1.31-.87,2.62-1.72,3.92-2.59.8-.54.86-1.36.13-1.76-.32-.17-.64-.18-.97.05-2.36,1.56-4.73,3.1-7.08,4.66-1.45.96-2.86,1.99-4.34,2.9-.78.48-1.68.69-2.58.87-.63.13-1.24.14-1.87,0-.95-.23-1.82-.56-2.49-1.33-.85-.98-1.39-2.08-1.24-3.46.04-.37.15-.66.46-.83,1.97-1.04,3.81-2.31,5.71-3.46,2.26-1.37,4.5-2.78,6.75-4.17.18-.11.37-.23.55-.36.44-.31.54-.74.34-1.23-.18-.44-.72-.66-1.19-.49-.2.07-.39.19-.57.3-4.4,2.71-8.79,5.44-13.2,8.13-.84.52-1.76.9-2.78.75Z"/>
    <path class="cls-1" d="M71.21,75.23c-.18-.24-.5-.23-.75-.38-2.86-1.7-5.85-3.12-8.76-4.73-2.91-1.61-5.88-3.11-8.82-4.65-.66-.35-.65-.34-.31-.99.89-1.7,1.83-3.37,2.86-4.98,1.44-2.25,2.83-4.53,4.32-6.74,2.69-3.99,5.44-7.93,8.04-11.98,1.43-2.23,2.76-4.51,4.11-6.78.19-.32.37-.66.51-1.02.21-.57.54-.52.97-.29,1.28.7,2.57,1.38,3.86,2.07,3.86,2.06,7.71,4.12,11.58,6.15.43.23.45.42.24.82-1.78,3.34-3.57,6.66-5.29,10.03-1.26,2.46-2.55,4.91-3.84,7.35-1.26,2.41-2.55,4.81-3.83,7.21-1.35,2.53-2.72,5.04-4.05,7.58-.19.36-.38.71-.59,1.06-.06.1-.09.23-.25.26ZM67.53,67.15c1.25,0,2.26-.99,2.25-2.22,0-1.21-1-2.2-2.21-2.2-1.26,0-2.23.96-2.22,2.23,0,1.26.94,2.19,2.18,2.19Z"/>
    <path class="cls-1" d="M148.06,75.12c-.12-.03-.23,0-.32-.17-.86-1.69-1.73-3.38-2.61-5.06-1.05-1.99-2.11-3.97-3.16-5.95-1.5-2.82-2.99-5.64-4.48-8.47-.92-1.76-1.82-3.53-2.75-5.28-1.17-2.2-2.36-4.39-3.53-6.59-.35-.67-.66-1.36-1-2.04-.14-.29-.12-.42.2-.59,3.24-1.69,6.47-3.4,9.7-5.12,2.01-1.07,4.01-2.16,6.01-3.26.28-.15.43-.16.61.18,1.1,2.07,2.25,4.11,3.52,6.06,1,1.53,1.97,3.08,2.99,4.59,1.05,1.56,2.08,3.15,3.14,4.7,1.27,1.86,2.48,3.77,3.78,5.61,1.35,1.92,2.56,3.94,3.79,5.94.94,1.52,1.81,3.09,2.71,4.63.39.67.27.96-.51,1.36-2.14,1.11-4.28,2.22-6.42,3.34-2.71,1.42-5.42,2.85-8.13,4.29-1.04.55-2.07,1.13-3.11,1.68-.13.07-.25.2-.43.16ZM151.85,67.15c1.24,0,2.19-.96,2.2-2.2,0-1.24-.99-2.22-2.25-2.22-1.21,0-2.2.99-2.2,2.21,0,1.23,1,2.22,2.25,2.21Z"/>
    <path class="cls-1" d="M155.2,75.69c-2.01,6.86-5.37,12.92-9.96,18.19-8.44,9.67-18.94,15.23-31.37,16.31-13.21,1.14-25.06-2.84-35.16-11.89-6.51-5.83-11.23-13.08-14.05-21.79,1.01.76,1.89,1.45,2.8,2.1,1.01.72,1.92,1.58,3,2.19.03.02.07.04.09.07.72,1.02,1.7.92,2.71.7.33-.08.55,0,.75.35,1.01,1.77,2.12,3.47,3.33,5.11,1.31,1.76,2.71,3.42,4.26,4.92,2.18,2.12,4.53,4.04,7.11,5.62,1.58.97,3.19,1.87,4.88,2.62,3.41,1.51,6.94,2.56,10.62,3.08,3.28.47,6.56.53,9.84.2,3.22-.32,6.36-1.08,9.41-2.21,1.34-.5,2.67-1.08,3.96-1.72,2.91-1.44,5.63-3.23,8.15-5.32,3.23-2.69,5.99-5.85,8.36-9.39.9-1.34,1.72-2.75,2.44-4.21.13-.27.28-.37.53-.3.65.19,1.31.02,1.97.19.41.1.62-.36.9-.57,1.15-.87,2.29-1.76,3.4-2.7.65-.55,1.34-1.05,2.05-1.54Z"/>
    <path class="cls-1" d="M109.83,17.36c-11.37.18-21.13,4.42-29.26,12.79-.69.71-1.34,1.48-1.98,2.25-.23.27-.4.29-.7.15-1.7-.84-3.41-1.67-5.12-2.49-.38-.18-.42-.37-.15-.72,1.93-2.48,4.05-4.76,6.37-6.84,2.9-2.59,6.08-4.75,9.46-6.57,1.7-.91,3.49-1.62,5.28-2.32,1.59-.62,3.22-1.06,4.83-1.55,1.03-.32,2.12-.43,3.19-.62,2.04-.38,4.11-.53,6.18-.66,1.5-.09,2.99-.05,4.48.03,1.68.09,3.35.31,5.02.54,1.47.21,2.95.5,4.37.89,2.09.57,4.14,1.33,6.16,2.19,1.28.54,2.48,1.23,3.74,1.82,2.2,1.04,4.17,2.49,6.13,3.93,1.5,1.11,2.93,2.34,4.28,3.67,1.63,1.61,3.18,3.31,4.61,5.12.41.52.36.53-.2.8-1.52.72-3.03,1.46-4.52,2.25-.58.31-.9.32-1.39-.25-5.27-6.16-11.72-10.37-19.28-12.72-3.49-1.09-7.64-1.68-11.48-1.69Z"/>
    <path class="cls-1" d="M78.54,66.47c.11-.76.47-1.35.78-1.96,1.12-2.15,2.25-4.28,3.38-6.42.86-1.62,1.74-3.23,2.6-4.85,1.41-2.67,2.8-5.37,4.23-8.03.41-.77.83-1.54,1.26-2.3.27-.48.86-.57,1.32-.77,2.03-.87,4-1.9,5.98-2.89.84-.42,1.72-.75,2.57-1.16.88-.43,1.74-.27,2.59.06,2.54.98,4.84,2.42,7.04,4.04,1.84,1.36,3.54,2.91,5.1,4.61,1.08,1.19,1.44,2.53,1.1,4.14-.39,1.88-1.13,3.62-1.85,5.37-.8,1.98-1.43,4.02-2.18,6.02-.17.45-.36.9-.6,1.32-.41.74-.91.81-1.7.35-1.71-.99-2.55-2.59-2.8-4.55-.24-1.84-.15-3.66.27-5.48.2-.88.47-1.74.63-2.63.06-.32-.02-.41-.23-.49-1.31-.5-2.49-1.24-3.6-2.09-.36-.28-.56-.32-.85.11-.69,1.01-1.73,1.6-2.69,2.26-3.29,2.26-6.58,4.53-9.87,6.78-3.24,2.22-6.49,4.43-9.73,6.65-.92.63-1.83,1.27-2.75,1.9Z"/>
    <path class="cls-1" d="M122.4,80.26c-.07-2.59,2.15-4.42,4.47-3.97,1.26.24,2.28.89,3,2.04,1.04,1.67,2.1,3.33,3.13,5.01.33.55-.05,1.05-.25,1.54-.56,1.38-1.68,2.12-2.94,2.57-.94.33-1.96.23-2.93.01-.46-.1-.66-.66-.93-1.05-1-1.45-1.97-2.91-2.93-4.38-.4-.62-.61-1.32-.61-1.77Z"/>
    <path class="cls-1" d="M121.66,92.03c-.43.09-.96.02-1.48-.14-.86-.26-1.59-.66-2.03-1.58-.52-1.09-1.35-2.01-1.59-3.25-.22-1.12-.14-2.19.39-3.21,1.18-2.24,3.43-1.85,4.56-.44.74.92,1.37,1.93,2.05,2.91.31.44.58.91.93,1.31.45.51.47,1.06.37,1.69-.23,1.51-1.11,2.35-2.47,2.72-.22.06-.42-.03-.74-.01Z"/>
    <path class="cls-1" d="M139.6,78.17c-.07,1.36-.71,2.38-1.71,3.22-.8.67-1.69,1.07-2.7,1.22-.28.04-.44-.02-.57-.25-.91-1.51-1.85-3-2.71-4.55-.66-1.19-.3-3.13.65-4.09.97-.99,2.51-1.13,3.9-.29,1.36.82,2.38,1.97,2.95,3.53.14.39.18.79.19,1.21Z"/>
    <path class="cls-1" d="M116.97,92.83c-.08,1.83-.75,3.27-2.48,3.93-.81.32-1.63-.02-2.26-.48-1.56-1.15-2.67-2.7-2.49-4.81.16-1.89,1.26-3.57,3.61-3.02,1.09.25,1.95.87,2.55,1.88.28.46.52.95.86,1.38.23.3.25.71.21,1.11Z"/>
  </g>
  <g>
    <g>
      <path class="cls-1" d="M208.73,37.77v37.43h-6.32v-14.49h-9.91v14.49h-6.32v-37.43h6.32v13.96h9.91v-13.96h6.32Z"/>
      <path class="cls-1" d="M216.73,75.2c-.64,0-1.22-.2-1.76-.59-.54-.39-1.02-.92-1.43-1.58-.42-.66-.74-1.43-.97-2.33-.23-.89-.35-1.84-.35-2.83v-14.33c0-1,.12-1.94.35-2.83.23-.89.55-1.68.97-2.35.42-.68.89-1.2,1.43-1.58.54-.37,1.12-.56,1.76-.56h9.45c.61,0,1.2.2,1.74.59.55.39,1.03.92,1.45,1.58.42.66.74,1.44.97,2.33.23.89.35,1.84.35,2.83v9.84h-12.45v2.41c0,.61.12,1.11.36,1.5.24.39.55.59.92.59h4.08c.35,0,.65-.2.91-.59.25-.39.38-.89.38-1.5v-.48h5.79v2.73c0,1-.12,1.93-.35,2.81-.23.87-.55,1.63-.97,2.27-.42.64-.9,1.15-1.45,1.52-.55.37-1.14.56-1.78.56h-9.42ZM219.2,53.55c-.64,0-.95.52-.95,1.55v2.62h6.65v-2.62c0-1.03-.32-1.55-.95-1.55h-4.74Z"/>
      <path class="cls-1" d="M252.26,75.2h-6.06v-4.71l-3.23,4.71h-4.68c-.64,0-1.22-.2-1.76-.59-.54-.39-1.02-.93-1.43-1.6-.42-.68-.74-1.46-.97-2.35-.23-.89-.35-1.82-.35-2.78v-14.33c0-1,.13-1.94.38-2.83.25-.89.58-1.68.99-2.35.41-.68.88-1.2,1.43-1.58.55-.37,1.12-.56,1.71-.56h13.96v28.98ZM244.92,67.08c.35,0,.65-.2.91-.59.25-.39.38-.89.38-1.5v-10.64h-5.1c-.35,0-.65.2-.91.59-.25.39-.38.89-.38,1.5v8.56c0,.61.13,1.11.38,1.5.25.39.55.59.91.59h3.82Z"/>
      <path class="cls-1" d="M261.81,35.85v39.36h-6.06v-39.36h6.06Z"/>
      <path class="cls-1" d="M271.36,35.31v7.97h-6.06v-7.97h6.06ZM271.36,46.22v28.98h-6.06v-28.98h6.06Z"/>
      <path class="cls-1" d="M280.91,75.2h-6.06v-28.98h6.06v4.6l3.16-4.6h4.64c.59,0,1.16.19,1.71.56s1.03.9,1.45,1.58c.42.68.75,1.46.99,2.35.24.89.36,1.84.36,2.83v21.66h-6.02v-18.77c0-.61-.12-1.1-.36-1.5-.24-.39-.55-.59-.92-.59h-3.72c-.37,0-.68.2-.92.59-.24.39-.36.89-.36,1.5v18.77Z"/>
      <path class="cls-1" d="M301.92,86.92c-.64,0-1.23-.2-1.78-.59-.55-.39-1.03-.92-1.45-1.58-.42-.66-.74-1.44-.97-2.33-.23-.89-.35-1.84-.35-2.83v-3.53h5.79v.91c0,.61.13,1.1.38,1.5.25.39.55.59.9.59h3.33c.37,0,.68-.2.92-.59.24-.39.36-.89.36-1.5v-7.81l-3.23,4.71h-4.81c-.61,0-1.2-.2-1.75-.59-.55-.39-1.03-.92-1.43-1.58-.41-.66-.73-1.43-.97-2.33-.24-.89-.36-1.84-.36-2.83v-12.99c0-1,.12-1.93.36-2.81.24-.87.56-1.65.97-2.33.41-.68.88-1.21,1.43-1.6.55-.39,1.13-.59,1.75-.59h14.06v33.37c0,.96-.12,1.89-.35,2.78-.23.89-.55,1.68-.95,2.35-.41.68-.88,1.21-1.43,1.6-.55.39-1.14.59-1.78.59h-8.66ZM307.78,65.74c.37,0,.68-.2.92-.59.24-.39.36-.89.36-1.5v-9.31h-5.23c-.35,0-.65.2-.91.59-.25.39-.38.89-.38,1.5v7.22c0,.61.13,1.11.38,1.5.25.39.55.59.91.59h3.95Z"/>
      <path class="cls-1" d="M352.33,46.76h-7.87v28.45h-6.32v-28.45h-7.94v-8.98h22.13v8.98Z"/>
      <path class="cls-1" d="M358.81,75.2c-.64,0-1.22-.2-1.76-.59-.54-.39-1.01-.92-1.43-1.58-.42-.66-.74-1.43-.97-2.33-.23-.89-.35-1.84-.35-2.83v-14.33c0-1,.11-1.94.35-2.83.23-.89.55-1.68.97-2.35.42-.68.89-1.2,1.43-1.58s1.12-.56,1.76-.56h9.45c.61,0,1.2.2,1.75.59.55.39,1.03.92,1.45,1.58.42.66.74,1.44.97,2.33.23.89.35,1.84.35,2.83v9.84h-12.45v2.41c0,.61.12,1.11.36,1.5.24.39.55.59.92.59h4.08c.35,0,.65-.2.91-.59.25-.39.38-.89.38-1.5v-.48h5.79v2.73c0,1-.11,1.93-.35,2.81-.23.87-.55,1.63-.97,2.27-.42.64-.9,1.15-1.45,1.52-.55.37-1.14.56-1.78.56h-9.42ZM361.28,53.55c-.64,0-.95.52-.95,1.55v2.62h6.65v-2.62c0-1.03-.32-1.55-.95-1.55h-4.74Z"/>
      <path class="cls-1" d="M380.38,75.2c-.59,0-1.16-.19-1.71-.56-.55-.37-1.03-.9-1.45-1.58-.42-.68-.75-1.45-.99-2.33-.24-.87-.36-1.83-.36-2.86v-14.33c0-.96.11-1.89.35-2.78.23-.89.55-1.68.95-2.35.41-.68.88-1.21,1.43-1.6.55-.39,1.14-.59,1.78-.59h9.09c.64,0,1.23.2,1.78.59.55.39,1.03.93,1.45,1.6.42.68.74,1.45.97,2.33.23.87.35,1.81.35,2.81v4.49h-5.83v-1.6c0-.61-.13-1.1-.38-1.5-.25-.39-.55-.59-.91-.59h-3.72c-.35,0-.65.2-.91.59-.25.39-.38.89-.38,1.5v8.56c0,.61.13,1.11.38,1.5.25.39.55.59.91.59h3.72c.35,0,.65-.2.91-.59.25-.39.38-.89.38-1.5v-1.6h5.83v4.49c0,1-.11,1.94-.35,2.83-.23.89-.55,1.67-.97,2.33-.42.66-.9,1.19-1.45,1.58-.55.39-1.14.59-1.78.59h-9.09Z"/>
      <path class="cls-1" d="M403.36,75.2h-6.06v-39.36h6.06v14.97l3.16-4.6h4.64c.59,0,1.16.19,1.71.56.55.37,1.03.9,1.45,1.58.42.68.75,1.46.99,2.35.24.89.36,1.84.36,2.83v21.66h-6.03v-18.77c0-.61-.12-1.1-.36-1.5-.24-.39-.55-.59-.92-.59h-3.72c-.37,0-.68.2-.92.59-.24.39-.36.89-.36,1.5v18.77Z"/>
      <path class="cls-1" d="M425.23,75.2h-6.06v-28.98h6.06v4.6l3.16-4.6h4.64c.59,0,1.16.19,1.71.56.55.37,1.03.9,1.45,1.58.42.68.75,1.46.99,2.35.24.89.36,1.84.36,2.83v21.66h-6.03v-18.77c0-.61-.12-1.1-.36-1.5-.24-.39-.55-.59-.92-.59h-3.72c-.37,0-.68.2-.92.59-.24.39-.36.89-.36,1.5v18.77Z"/>
      <path class="cls-1" d="M454.99,46.22c.59,0,1.16.19,1.71.56.55.37,1.03.9,1.45,1.58.42.68.75,1.46.99,2.35.24.89.36,1.84.36,2.83v14.33c0,.96-.12,1.89-.35,2.78-.23.89-.55,1.68-.95,2.35-.41.68-.88,1.21-1.43,1.6-.55.39-1.14.59-1.78.59h-9.65c-.59,0-1.16-.19-1.71-.56-.55-.37-1.03-.9-1.43-1.58-.41-.68-.74-1.45-.99-2.33-.25-.87-.38-1.83-.38-2.86v-14.33c0-.96.11-1.89.35-2.78.23-.89.55-1.67.97-2.33.42-.66.89-1.19,1.43-1.6.54-.41,1.12-.61,1.76-.61h9.65ZM453.48,56.44c0-.61-.13-1.1-.38-1.5-.25-.39-.55-.59-.91-.59h-4.05c-.35,0-.65.2-.91.59-.25.39-.38.89-.38,1.5v8.56c0,.61.13,1.11.38,1.5.25.39.55.59.91.59h4.05c.35,0,.65-.2.91-.59.25-.39.38-.89.38-1.5v-8.56Z"/>
      <path class="cls-1" d="M468.86,35.85v39.36h-6.06v-39.36h6.06Z"/>
      <path class="cls-1" d="M486.31,46.22c.59,0,1.16.19,1.71.56.55.37,1.03.9,1.45,1.58.42.68.75,1.46.99,2.35.24.89.36,1.84.36,2.83v14.33c0,.96-.12,1.89-.35,2.78-.23.89-.55,1.68-.95,2.35-.41.68-.88,1.21-1.43,1.6-.55.39-1.14.59-1.78.59h-9.65c-.59,0-1.16-.19-1.71-.56-.55-.37-1.03-.9-1.43-1.58-.41-.68-.74-1.45-.99-2.33-.25-.87-.38-1.83-.38-2.86v-14.33c0-.96.11-1.89.35-2.78.23-.89.55-1.67.97-2.33.42-.66.89-1.19,1.43-1.6.54-.41,1.12-.61,1.76-.61h9.65ZM484.79,56.44c0-.61-.13-1.1-.38-1.5-.25-.39-.55-.59-.91-.59h-4.05c-.35,0-.65.2-.91.59-.25.39-.38.89-.38,1.5v8.56c0,.61.13,1.11.38,1.5.25.39.55.59.91.59h4.05c.35,0,.65-.2.91-.59.25-.39.38-.89.38-1.5v-8.56Z"/>
      <path class="cls-1" d="M499.31,86.92c-.64,0-1.23-.2-1.78-.59-.55-.39-1.03-.92-1.45-1.58-.42-.66-.74-1.44-.97-2.33-.23-.89-.35-1.84-.35-2.83v-3.53h5.8v.91c0,.61.13,1.1.38,1.5.25.39.55.59.91.59h3.33c.37,0,.68-.2.92-.59.24-.39.36-.89.36-1.5v-7.81l-3.23,4.71h-4.81c-.61,0-1.2-.2-1.75-.59-.55-.39-1.03-.92-1.43-1.58-.41-.66-.73-1.43-.97-2.33-.24-.89-.36-1.84-.36-2.83v-12.99c0-1,.12-1.93.36-2.81.24-.87.57-1.65.97-2.33.41-.68.88-1.21,1.43-1.6.55-.39,1.13-.59,1.75-.59h14.06v33.37c0,.96-.12,1.89-.35,2.78-.23.89-.55,1.68-.95,2.35-.41.68-.88,1.21-1.43,1.6-.55.39-1.14.59-1.78.59h-8.66ZM505.17,65.74c.37,0,.68-.2.92-.59.24-.39.36-.89.36-1.5v-9.31h-5.24c-.35,0-.65.2-.91.59-.25.39-.38.89-.38,1.5v7.22c0,.61.13,1.11.38,1.5.25.39.55.59.91.59h3.95Z"/>
      <path class="cls-1" d="M522.33,73.55l-7.64-27.33h6.55l4.21,17.54,4.31-17.54h6.52l-11.29,40.7h-6.78l4.12-13.37Z"/>
    </g>
    <g>
      <path class="cls-1" d="M324.98,79.02l-2.72,5.3v3.63h-1.25v-3.63l-2.72-5.3h1.39l1.95,4.03,1.95-4.03h1.4Z"/>
      <path class="cls-1" d="M327.67,88.04c-.84,0-1.48-.24-1.94-.73s-.69-1.17-.69-2.05v-1.04c0-.87.23-1.55.69-2.03s1.11-.72,1.94-.72,1.48.24,1.94.72.69,1.15.69,2.03v1.06c0,.88-.23,1.56-.69,2.04-.46.48-1.11.72-1.94.72ZM327.67,86.85c.44,0,.78-.14,1.02-.41.24-.27.36-.66.36-1.15v-1.06c0-.5-.12-.88-.36-1.15-.24-.27-.58-.41-1.02-.41s-.77.14-1.01.41c-.24.27-.36.65-.36,1.15v1.06c0,.5.12.88.36,1.15s.58.41,1.01.41Z"/>
      <path class="cls-1" d="M333.18,81.57v3.88c0,.45.11.79.34,1.04.23.24.55.37.96.37s.73-.11.96-.33.33-.53.33-.92l.09,1.33c-.11.29-.32.54-.6.77-.29.23-.66.34-1.12.34-.7,0-1.25-.23-1.63-.68-.38-.45-.57-1.09-.57-1.91v-3.88h1.25ZM335.77,87.95v-6.38h1.25v6.38h-1.25Z"/>
      <path class="cls-1" d="M338.92,87.95v-6.38h1.25v6.38h-1.25ZM342.43,83.08c-.11-.13-.25-.24-.42-.31-.17-.07-.36-.1-.58-.1-.4,0-.71.11-.92.33-.22.22-.33.52-.33.91l-.13-1.23c.19-.38.45-.67.76-.88.31-.21.66-.32,1.04-.32.29,0,.55.04.79.13s.44.21.62.37l-.82,1.11Z"/>
      <path class="cls-1" d="M346.56,80.21v-1.19h6.3v1.19h-6.3ZM349.09,87.95v-8.2h1.25v8.2h-1.25Z"/>
      <path class="cls-1" d="M353.24,87.95v-6.38h1.25v6.38h-1.25ZM356.74,83.08c-.11-.13-.25-.24-.42-.31-.17-.07-.36-.1-.58-.1-.4,0-.71.11-.92.33-.22.22-.33.52-.33.91l-.13-1.23c.19-.38.45-.67.76-.88.31-.21.66-.32,1.04-.32.29,0,.55.04.79.13s.44.21.62.37l-.82,1.11Z"/>
      <path class="cls-1" d="M359.86,81.57v3.88c0,.45.11.79.34,1.04.23.24.55.37.96.37s.73-.11.96-.33.33-.53.33-.92l.09,1.33c-.11.29-.32.54-.6.77-.29.23-.66.34-1.12.34-.7,0-1.25-.23-1.63-.68-.38-.45-.57-1.09-.57-1.91v-3.88h1.25ZM362.45,87.95v-6.38h1.25v6.38h-1.25Z"/>
      <path class="cls-1" d="M367.86,88.04c-.57,0-1.08-.08-1.54-.25-.46-.17-.87-.41-1.24-.75l.74-.91c.35.26.69.46,1.03.59s.67.2,1,.2c.5,0,.87-.08,1.12-.23.25-.15.37-.38.37-.69,0-.24-.08-.41-.25-.5-.17-.1-.38-.16-.65-.19-.27-.03-.56-.06-.86-.08-.26-.02-.51-.05-.77-.09-.25-.04-.48-.12-.69-.23s-.38-.28-.5-.5c-.12-.22-.19-.52-.19-.89,0-.68.21-1.18.62-1.52s1.03-.5,1.85-.5c.5,0,.97.07,1.4.2s.83.34,1.21.62l-.76.92c-.32-.2-.63-.36-.94-.46-.31-.1-.61-.15-.91-.15-.43,0-.75.07-.96.22-.21.15-.32.36-.32.65,0,.19.07.33.22.41.15.08.34.14.58.16.24.02.5.05.78.07.27.02.54.05.81.09.27.04.52.13.75.25.23.12.41.31.55.55.14.24.21.57.21.99,0,.68-.22,1.2-.67,1.54-.44.34-1.11.51-2.01.51Z"/>
      <path class="cls-1" d="M371.64,82.7v-1.13h2.87v1.13h-2.87ZM373.79,87.98c-.52,0-.9-.15-1.14-.44-.23-.29-.35-.71-.35-1.25v-6.57h1.25v6.59c0,.15.03.27.09.36s.15.13.27.13h.6v1.19h-.72Z"/>
      <path class="cls-1" d="M378.84,88.04c-.89,0-1.58-.25-2.06-.74-.49-.5-.73-1.2-.73-2.11v-.72c0-.95.23-1.69.7-2.21.47-.52,1.13-.78,1.98-.78.8,0,1.43.29,1.87.88.44.59.66,1.42.66,2.48v.42h-4.3v-1.01h3.11c-.04-.52-.17-.92-.4-1.21-.23-.29-.54-.44-.93-.44-.47,0-.84.16-1.1.47-.26.31-.39.75-.39,1.32v.81c0,.53.14.93.42,1.22s.68.42,1.18.42c.25,0,.51-.05.76-.15s.47-.25.67-.43l.82.82c-.32.3-.67.54-1.06.7s-.79.25-1.19.25Z"/>
      <path class="cls-1" d="M385,88.06c-.71,0-1.25-.23-1.63-.68s-.57-1.09-.57-1.91v-1.41c0-.83.19-1.47.56-1.92s.9-.68,1.58-.68c.38,0,.72.1,1.03.29.31.2.57.47.76.83l-.13,1.3c0-.27-.05-.5-.15-.69-.1-.19-.24-.34-.43-.44-.19-.1-.41-.15-.68-.15-.41,0-.73.13-.96.39s-.34.62-.34,1.09v1.39c0,.46.11.82.34,1.07.23.25.55.38.96.38.27,0,.49-.05.68-.16s.33-.25.43-.45c.1-.2.15-.43.15-.71l.09,1.34c-.11.29-.31.54-.59.77-.28.23-.65.34-1.1.34ZM386.6,87.95v-8.93h1.25v8.93h-1.25Z"/>
      <path class="cls-1" d="M393.26,87.95v-8.93h1.25v8.93h-1.25ZM394,87.95v-1.16h2.42c.66,0,1.13-.13,1.41-.38s.41-.59.41-1v-.02c0-.44-.12-.8-.35-1.06-.23-.26-.62-.4-1.16-.4h-2.73v-1.13h2.73c.46,0,.81-.11,1.05-.33.24-.22.35-.54.35-.96,0-.45-.13-.78-.39-1-.26-.22-.66-.33-1.18-.33h-2.56v-1.16h2.78c.88,0,1.54.22,1.97.66s.65,1.03.65,1.76c0,.45-.13.85-.39,1.23-.26.37-.67.61-1.24.71.55.08.98.33,1.29.73.31.41.46.87.46,1.39v.02c0,.73-.24,1.32-.71,1.76-.47.45-1.11.67-1.92.67h-2.89Z"/>
      <path class="cls-1" d="M402.52,81.57v3.88c0,.45.11.79.34,1.04.23.24.55.37.96.37s.73-.11.96-.33.33-.53.33-.92l.09,1.33c-.11.29-.32.54-.6.77-.29.23-.66.34-1.12.34-.7,0-1.25-.23-1.63-.68-.38-.45-.57-1.09-.57-1.91v-3.88h1.25ZM405.11,87.95v-6.38h1.25v6.38h-1.25Z"/>
      <path class="cls-1" d="M410.51,88.04c-.57,0-1.08-.08-1.54-.25-.46-.17-.87-.41-1.24-.75l.74-.91c.35.26.69.46,1.03.59s.67.2,1,.2c.5,0,.87-.08,1.12-.23.25-.15.37-.38.37-.69,0-.24-.08-.41-.25-.5-.17-.1-.38-.16-.65-.19-.27-.03-.56-.06-.86-.08-.26-.02-.51-.05-.77-.09-.25-.04-.48-.12-.69-.23s-.38-.28-.5-.5c-.12-.22-.19-.52-.19-.89,0-.68.21-1.18.62-1.52s1.03-.5,1.85-.5c.5,0,.97.07,1.4.2s.83.34,1.21.62l-.76.92c-.32-.2-.63-.36-.94-.46-.31-.1-.61-.15-.91-.15-.43,0-.75.07-.96.22-.21.15-.32.36-.32.65,0,.19.07.33.22.41.15.08.34.14.58.16.24.02.5.05.78.07.27.02.54.05.81.09.27.04.52.13.75.25.23.12.41.31.55.55.14.24.21.57.21.99,0,.68-.22,1.2-.67,1.54-.44.34-1.11.51-2.01.51Z"/>
      <path class="cls-1" d="M414.78,80.27v-1.25h1.25v1.25h-1.25ZM414.78,87.95v-6.38h1.25v6.38h-1.25Z"/>
      <path class="cls-1" d="M417.94,87.95v-6.38h1.25v6.38h-1.25ZM421.81,87.95v-3.86c0-.45-.12-.8-.35-1.04-.23-.25-.56-.37-.99-.37s-.73.11-.95.33c-.22.22-.33.52-.33.91l-.13-1.23c.2-.38.45-.68.77-.89.32-.21.67-.31,1.05-.31.69,0,1.23.23,1.61.68s.57,1.09.57,1.92v3.87h-1.25Z"/>
      <path class="cls-1" d="M427.58,88.04c-.89,0-1.58-.25-2.06-.74-.49-.5-.73-1.2-.73-2.11v-.72c0-.95.23-1.69.7-2.21.47-.52,1.13-.78,1.98-.78.8,0,1.43.29,1.87.88.44.59.66,1.42.66,2.48v.42h-4.3v-1.01h3.11c-.04-.52-.17-.92-.4-1.21-.23-.29-.54-.44-.93-.44-.47,0-.84.16-1.1.47-.26.31-.39.75-.39,1.32v.81c0,.53.14.93.42,1.22s.68.42,1.18.42c.25,0,.51-.05.76-.15s.47-.25.67-.43l.82.82c-.32.3-.67.54-1.06.7s-.79.25-1.19.25Z"/>
      <path class="cls-1" d="M433.97,88.04c-.57,0-1.08-.08-1.54-.25-.46-.17-.87-.41-1.24-.75l.74-.91c.35.26.69.46,1.03.59s.67.2,1,.2c.5,0,.87-.08,1.12-.23.25-.15.37-.38.37-.69,0-.24-.08-.41-.25-.5-.17-.1-.38-.16-.65-.19-.27-.03-.56-.06-.86-.08-.26-.02-.51-.05-.77-.09-.25-.04-.48-.12-.69-.23s-.38-.28-.5-.5c-.12-.22-.19-.52-.19-.89,0-.68.21-1.18.62-1.52s1.03-.5,1.85-.5c.5,0,.97.07,1.4.2s.83.34,1.21.62l-.76.92c-.32-.2-.63-.36-.94-.46-.31-.1-.61-.15-.91-.15-.43,0-.75.07-.96.22-.21.15-.32.36-.32.65,0,.19.07.33.22.41.15.08.34.14.58.16.24.02.5.05.78.07.27.02.54.05.81.09.27.04.52.13.75.25.23.12.41.31.55.55.14.24.21.57.21.99,0,.68-.22,1.2-.67,1.54-.44.34-1.11.51-2.01.51Z"/>
      <path class="cls-1" d="M440.5,88.04c-.57,0-1.08-.08-1.54-.25-.46-.17-.87-.41-1.24-.75l.74-.91c.35.26.69.46,1.03.59s.67.2,1,.2c.5,0,.87-.08,1.12-.23.25-.15.37-.38.37-.69,0-.24-.08-.41-.25-.5-.17-.1-.38-.16-.65-.19-.27-.03-.56-.06-.86-.08-.26-.02-.51-.05-.77-.09-.25-.04-.48-.12-.69-.23s-.38-.28-.5-.5c-.12-.22-.19-.52-.19-.89,0-.68.21-1.18.62-1.52s1.03-.5,1.85-.5c.5,0,.97.07,1.4.2s.83.34,1.21.62l-.76.92c-.32-.2-.63-.36-.94-.46-.31-.1-.61-.15-.91-.15-.43,0-.75.07-.96.22-.21.15-.32.36-.32.65,0,.19.07.33.22.41.15.08.34.14.58.16.24.02.5.05.78.07.27.02.54.05.81.09.27.04.52.13.75.25.23.12.41.31.55.55.14.24.21.57.21.99,0,.68-.22,1.2-.67,1.54-.44.34-1.11.51-2.01.51Z"/>
      <path class="cls-1" d="M448.27,87.95v-8.93h1.25v8.93h-1.25ZM448.91,84.48v-1.19h2.86c.41,0,.74-.14.99-.42s.37-.65.37-1.11-.12-.84-.37-1.12-.58-.42-.99-.42h-2.86v-1.19h2.81c.54,0,1.01.11,1.41.34.4.23.71.55.94.95.22.41.33.89.33,1.44s-.11,1.03-.33,1.44c-.22.41-.54.73-.94.95-.4.23-.87.34-1.41.34h-2.81Z"/>
      <path class="cls-1" d="M457.71,88.04c-.78,0-1.37-.16-1.76-.48-.39-.32-.59-.82-.59-1.49s.18-1.11.54-1.42.9-.47,1.61-.47h1.81l.09,1.01h-1.89c-.32,0-.57.07-.73.22-.16.15-.25.37-.25.67,0,.32.11.56.33.72s.54.23.98.23c.48,0,.83-.05,1.07-.15.24-.1.36-.26.36-.48l.13.9c-.11.17-.25.31-.41.42-.16.11-.35.19-.56.25s-.45.08-.72.08ZM459.27,87.95v-4.04c0-.42-.11-.74-.34-.97s-.54-.35-.95-.35c-.25,0-.5.04-.74.11-.24.08-.46.19-.65.33l-.92-.63c.24-.29.56-.52.95-.68s.83-.24,1.32-.24c.8,0,1.42.21,1.86.62s.66,1,.66,1.75v4.1h-1.19Z"/>
      <path class="cls-1" d="M462.37,87.95v-6.38h1.25v6.38h-1.25ZM465.88,83.08c-.11-.13-.25-.24-.42-.31-.17-.07-.36-.1-.58-.1-.4,0-.71.11-.92.33-.22.22-.33.52-.33.91l-.13-1.23c.19-.38.45-.67.76-.88.31-.21.66-.32,1.04-.32.29,0,.55.04.79.13s.44.21.62.37l-.82,1.11Z"/>
      <path class="cls-1" d="M467.25,82.7v-1.13h2.87v1.13h-2.87ZM469.4,87.98c-.52,0-.9-.15-1.14-.44-.23-.29-.35-.71-.35-1.25v-6.57h1.25v6.59c0,.15.03.27.09.36s.15.13.27.13h.6v1.19h-.72Z"/>
      <path class="cls-1" d="M471.84,87.95v-6.38h1.25v6.38h-1.25ZM475.71,87.95v-3.86c0-.45-.12-.8-.35-1.04-.23-.25-.56-.37-.99-.37s-.73.11-.95.33c-.22.22-.33.52-.33.91l-.13-1.23c.2-.38.45-.68.77-.89.32-.21.67-.31,1.05-.31.69,0,1.23.23,1.61.68s.57,1.09.57,1.92v3.87h-1.25Z"/>
      <path class="cls-1" d="M481.48,88.04c-.89,0-1.58-.25-2.06-.74-.49-.5-.73-1.2-.73-2.11v-.72c0-.95.23-1.69.7-2.21.47-.52,1.13-.78,1.98-.78.8,0,1.43.29,1.87.88.44.59.66,1.42.66,2.48v.42h-4.3v-1.01h3.11c-.04-.52-.17-.92-.4-1.21-.23-.29-.54-.44-.93-.44-.47,0-.84.16-1.1.47-.26.31-.39.75-.39,1.32v.81c0,.53.14.93.42,1.22s.68.42,1.18.42c.25,0,.51-.05.76-.15s.47-.25.67-.43l.82.82c-.32.3-.67.54-1.06.7s-.79.25-1.19.25Z"/>
      <path class="cls-1" d="M485.62,87.95v-6.38h1.25v6.38h-1.25ZM489.12,83.08c-.11-.13-.25-.24-.42-.31-.17-.07-.36-.1-.58-.1-.4,0-.71.11-.92.33-.22.22-.33.52-.33.91l-.13-1.23c.19-.38.45-.67.76-.88.31-.21.66-.32,1.04-.32.29,0,.55.04.79.13s.44.21.62.37l-.82,1.11Z"/>
    </g>
  </g>
</svg>