<svg width="669" height="130" viewBox="0 0 669 130" fill="none" xmlns="http://www.w3.org/2000/svg">
<path d="M445.246 18.2043C456.573 17.2948 467.963 19.6041 476.788 27.0425C486.288 35.0484 491.077 46.5906 492.068 58.7696C493.174 72.3603 490.736 86.7595 481.674 97.3831C473.907 106.491 464.931 109.962 453.322 110.954C441.807 111.502 430.704 109.375 421.724 101.736C412.401 93.8062 407.77 82.3349 406.851 70.3082C405.792 56.4481 408.275 42.6179 417.507 31.7792C424.684 23.3517 434.307 19.0581 445.246 18.2043ZM451.581 107.82C474.687 105.064 476.235 70.4812 474.184 52.917C472.632 39.6309 466.805 21.9586 450.824 21.1976C449.89 21.1531 448.255 21.1232 447.341 21.2688C423.736 24.1606 422.528 58.3954 424.536 76.4039C425.586 85.8261 429.053 97.5117 436.809 103.691C440.859 106.831 446.497 108.443 451.581 107.82Z" fill="white"/>
<path d="M320.296 20.9419L353.719 20.9403C364.554 20.9384 376.005 19.7184 385.925 25.3537C396.658 31.4519 397.502 44.6983 392.045 54.711C389.077 60.1569 382.849 62.5142 377.045 63.9062L388.004 87.8786C389.465 91.0713 391.195 94.5936 392.551 97.7993C395.128 103.893 398.251 104.624 404.552 104.858V108.139H380.002C378.029 102.961 374.641 96.2052 372.404 90.8832C372.095 90.2748 371.808 89.5925 371.524 88.9675C367.807 80.7397 364.288 72.401 360.524 64.1958H347.599L347.601 87.9313C347.596 91.518 347.362 95.7403 347.676 99.2451C348.177 104.848 355.992 104.511 359.672 104.934L359.67 108.14L320.023 108.139V104.706L320.118 104.708C323.493 104.753 329.797 104.518 331.536 100.722C331.918 99.8878 332.039 97.724 332.044 96.7588L332.054 51.5714L332.05 37.2099C332.05 34.6837 332.05 32.1453 331.967 29.6234C331.789 24.2844 324.449 23.6491 320.296 23.6605V20.9419ZM347.599 61.0399C352.395 61.0473 364.487 61.5029 368.494 60.195C372.234 58.9471 375.139 56.7686 376.844 53.1468C379.315 47.8967 379.876 40.1071 378.043 34.6093C374.971 25.387 365.886 23.1673 357.204 23.9293C345.776 25.2059 347.583 32.0237 347.586 41.2362L347.599 61.0399Z" fill="white"/>
<path d="M237.767 20.9385L308.917 20.9421C311.14 26.4763 313.126 32.1502 315.318 37.702C315.835 39.0157 316.282 40.4073 316.941 41.6562L314.981 42.9428C306.333 31.6002 294.79 24.204 280.154 24.231C265.212 24.2584 266.469 29.2089 266.469 41.5281L266.479 61.8916L275.545 61.9058C278.68 61.9077 281.875 62.1062 284.927 61.3159C290.557 59.8576 292.579 55.2655 293.596 49.9713C293.787 48.9819 293.929 46.9443 294.369 46.1831C294.927 45.9998 296.345 46.0589 297.003 46.0621V81.6025H294.08C293.867 77.6763 292.523 71.5716 289.663 68.8242C286.05 65.3559 281.288 65.6279 276.717 65.6291L269.669 65.6407L266.479 65.6428L266.469 86.2194C266.467 89.6583 266.382 93.3636 266.577 96.7884C266.705 99.0509 267.792 101.141 269.597 102.551C273.081 105.27 277.582 104.99 281.748 104.979C283.675 104.974 285.97 105.023 287.864 104.755C299.754 103.071 309.585 94.4883 316.68 85.4183C317.524 85.8312 318.515 86.2501 319.381 86.6416C316.297 93.8119 312.966 100.965 309.849 108.14L237.766 108.142V104.707C240.959 104.771 246.573 104.717 248.923 102.496C250.542 100.966 250.876 99.2443 250.927 97.1413C251.031 92.8595 250.979 88.5357 250.977 84.2632L250.972 59.7667L250.986 41.0634C251.005 27.1873 252.843 24.9782 237.767 24.1667V20.9385Z" fill="white"/>
<path d="M494.831 20.9417L521.617 20.9422L554.971 62.8002L565.191 75.6094C566.897 77.7496 569.111 80.3635 570.635 82.531L570.645 48.1625V37.2354C570.645 34.9363 570.991 29.6297 569.661 27.8493C567.179 24.5244 562.184 23.9604 558.315 23.8871V20.9421L586.665 20.9414V23.828C582.387 24.1017 575.18 24.8432 574.868 30.4979C574.717 33.2386 574.784 36.0386 574.784 38.7897V55.2106L574.789 108.672L572.298 108.671C570.015 105.737 567.688 102.669 565.342 99.8004C564.318 98.1976 561.064 94.2427 559.751 92.5584L548.399 78.0037L512.912 32.4816L512.911 32.5637C512.697 46.8756 512.906 61.7685 512.899 76.1262L512.894 89.9729C512.894 93.8721 512.243 98.733 515.231 101.712C518.079 104.55 522.722 105.058 526.558 105.089L526.56 108.14H494.439V104.854C498.756 104.932 505.009 104.776 507.171 100.259C507.902 98.734 508.265 97.6599 508.286 95.951C508.346 91.1756 508.322 86.3973 508.322 81.6209V54.6565L508.327 39.125C508.327 36.5425 508.48 33.5001 508.216 30.9597C507.534 24.4111 499.728 24.0307 494.831 23.876V20.9417Z" fill="white"/>
<path d="M170.12 20.9419L231.885 20.9422V22.8055C229.999 25.341 227.986 28.4936 226.182 31.1577L215.258 47.2626L176.241 104.691C181.572 104.842 187.405 104.622 192.767 104.717C194.799 104.753 202.433 104.82 204.024 104.465C214.091 102.217 223.644 92.1394 229.253 84.2237C229.842 84.4979 230.88 85.1289 231.48 85.47C228.791 92.6683 225.834 99.9943 223.039 107.169C222.934 107.446 222.787 107.71 222.65 107.973C222.208 108.271 216.831 108.138 215.959 108.138L201.752 108.137L158.555 108.139L158.566 106.238C160.872 103.199 163.969 98.2888 166.169 95.0252L181.001 73.0171L201.625 42.4162C205.62 36.5037 209.964 30.2993 213.789 24.3112C209.633 24.3339 204.407 24.4129 200.285 24.2037C182.459 23.2982 174.599 30.4889 164.957 44.9859C164.379 44.7194 163.238 44.3379 162.603 44.1042C165.161 36.4303 167.506 28.5804 170.12 20.9419Z" fill="white"/>
<path d="M60.9406 0H68.156C69.4432 0.220339 71.1621 0.311253 72.5196 0.469206C74.8227 0.721422 77.1068 1.12362 79.3575 1.67324C94.7624 5.32283 108.298 14.4853 117.411 27.4312C127.257 41.388 131.155 58.6848 128.247 75.5161C125.294 92.4312 115.744 107.481 101.696 117.355C94.0017 122.764 85.2242 126.438 75.9706 128.121C73.6636 128.55 71.3208 128.736 68.9868 128.953C68.6604 128.984 68.3289 128.996 68.0117 129.082H61.0871C60.6872 128.969 58.8497 128.853 58.2909 128.794C56.4028 128.604 54.523 128.341 52.6558 128.003C43.4998 126.295 34.8275 122.608 27.2446 117.2C14.5407 108.201 5.50382 94.926 1.78877 79.8073C1.1758 77.2633 0.719829 74.684 0.423454 72.0841C0.269744 70.8159 0.204857 69.3567 0 68.1512V60.9238C0.101058 60.5666 0.216311 58.8376 0.275336 58.3057C0.47143 56.3767 0.742395 54.456 1.08762 52.548C2.81848 43.3645 6.53751 34.6708 11.9839 27.0767C20.9513 14.5294 34.0915 5.58318 49.0525 1.83922C51.6175 1.21587 54.2185 0.750846 56.8406 0.446772C58.1597 0.285681 59.6795 0.209224 60.9406 0ZM80.5968 119.6L80.5966 93.9869L48.8766 93.9887L48.8743 119.6L80.5968 119.6ZM48.8766 85.286L80.5966 85.2863V65.2726L48.8766 65.2752V85.286ZM48.8774 58.482H80.5961L80.5966 42.6868H48.8766L48.8774 58.482ZM48.8766 36.5203L80.5966 36.5199V25.6748L48.8766 25.6743V36.5203ZM39.2917 69.3022C44.3673 67.8196 43.916 59.4326 37.7088 59.747C32.0572 61.1389 33.4479 70.2384 39.2917 69.3022ZM117.372 59.9003V69.0581C118.687 69.0693 122.735 69.2002 123.851 68.9571C124.07 68.679 123.993 68.6783 123.966 68.2478C123.088 67.2759 120.17 67.7513 118.812 67.731C118.785 67.0145 118.626 65.6613 118.998 65.1012L119.576 65.049C120.691 65.0756 122.883 65.2205 123.805 64.6324L123.778 64.1512C122.557 63.4821 120.212 63.6986 118.812 63.734V61.2324C119.751 61.2405 123.289 61.3916 123.843 60.9897L123.804 60.1113C123.203 59.6674 118.471 59.9057 117.372 59.9003ZM80.5966 18.3182L80.5955 14.8323L48.8766 14.8335L48.8757 18.3181L80.5966 18.3182ZM17.0706 63.7068V61.2324C18.2595 61.2498 21.26 61.5206 22.0089 60.8438C22.1316 60.3294 22.1297 60.5241 21.9162 60.0037C20.532 59.7283 17.2022 59.911 15.6254 59.8991V69.0586C16.5741 69.0664 21.6567 69.2647 22.1642 68.8449C22.1915 68.2273 22.2687 68.4277 21.9353 67.96C20.8408 67.4373 18.4511 67.7579 17.0706 67.7309C17.0579 67.0703 16.9913 65.8013 17.1363 65.2176C17.4042 65.026 17.2978 65.0441 17.5835 65.049C18.6617 65.0673 20.697 65.2055 21.6084 64.893C21.958 64.5289 21.8454 64.5998 21.8379 63.932C21.4475 63.4999 17.8331 63.6957 17.0706 63.7068ZM108.97 68.9814C108.976 67.8702 109.127 60.5607 108.829 60.0245C108.428 59.9791 107.991 59.8932 107.609 59.9835C107.417 60.693 107.517 65.8872 107.523 66.9657C106.114 64.6417 104.73 62.3027 103.372 59.9491L101.703 59.888C101.695 61.8807 101.55 67.2558 101.791 68.9269C102.295 69.0974 102.363 69.1173 102.883 69.0196C103.11 68.8038 103.119 68.8691 103.122 68.638C103.151 66.3943 103.128 64.1394 103.12 61.8948C104.286 63.9482 105.445 66.0001 106.647 68.0323C107.253 69.0555 107.751 69.3002 108.97 68.9814ZM12.9993 69.0582C12.9814 68.6152 13.0454 68.067 12.8042 67.7819C11.3666 67.6427 9.1284 67.7196 7.62331 67.7343C8.76503 66.2868 12.7488 61.7042 12.8119 60.1597C12.2647 59.6297 7.32055 59.9068 6.1655 59.8993C6.18564 60.3879 6.11808 60.8407 6.3618 61.1929C7.87792 61.2812 9.40105 61.2462 10.9199 61.2311C9.66261 62.8719 5.7012 67.2253 5.85817 68.8732C6.8108 69.2656 11.6233 69.0499 12.9993 69.0582ZM30.8514 69.063C31.2739 69.0576 32.1458 69.1278 32.4081 68.9174C31.5835 67.7124 30.752 66.5118 29.9141 65.316C30.7377 64.8617 31.606 64.3817 31.8464 63.4008C32.8565 59.277 27.3481 59.8807 25.0122 59.8993C25.0032 61.9047 24.8588 67.2268 25.0932 68.9482C25.5866 69.092 25.6921 69.0739 26.2054 69.0396C26.6368 68.5163 26.4783 66.238 26.4608 65.4374L28.1469 65.433C28.6144 66.0907 30.392 68.672 30.8514 69.063ZM88.3993 59.8014C83.1895 61.6363 84.5277 70.2094 90.4602 69.2784C95.7794 67.4675 94.5024 58.8738 88.3993 59.8014Z" fill="white"/>
<path d="M37.7408 61.0409C41.9762 60.9244 42.2377 66.2767 39.1163 68.0298C34.7647 68.1839 34.6687 62.4843 37.7408 61.0409Z" fill="white"/>
<path d="M88.6887 61.0559C93.013 60.7708 93.1858 66.3695 90.3397 67.9439C86.2958 68.7948 85.4491 62.8436 88.6887 61.0559Z" fill="white"/>
<path d="M26.4609 61.2209C27.8526 61.2207 29.7627 60.8999 30.4356 62.3115C30.4378 62.9593 30.4204 63.0373 30.1328 63.6178C28.8614 64.3099 27.8939 64.15 26.4609 64.1301V61.2209Z" fill="white"/>
<path d="M586.848 20.9404L658.035 20.9399C660.455 27.732 663.355 34.9427 665.932 41.7071L664.068 42.9591C662.536 40.8879 660.863 38.9251 659.06 37.0843C651.183 29.118 640.613 24.1657 629.306 24.2377C624.703 24.191 616.974 24.6554 615.887 30.405C615.287 33.5836 615.53 38.5454 615.53 41.8904L615.539 61.8914L625.303 61.9077C630.708 61.9133 636.597 62.2989 640.019 57.1565C642.208 53.8702 642.784 49.8821 643.352 46.0621H646.178V81.6025H643.226C642.75 77.4395 641.847 71.9375 638.807 68.8723C635.065 65.0974 629.208 65.6206 624.299 65.6261L615.539 65.6405L615.528 86.0361C615.526 89.5145 615.435 93.2763 615.647 96.7377C615.784 98.9895 616.876 101.127 618.674 102.537C622.163 105.27 626.692 104.988 630.873 104.977C632.638 104.972 634.828 105.028 636.56 104.8C648.815 103.181 658.412 94.7008 665.751 85.4356L668.421 86.6334V86.8501C665.095 93.6852 662.198 101.228 658.895 108.142H586.864V104.707C589.894 104.773 595.722 104.692 597.977 102.557C599.441 101.171 600.009 99.1635 600.027 97.2072C600.071 92.6621 600.037 88.0962 600.033 83.5544V57.1887L600.046 39.7309C600.059 26.8407 601.285 24.7269 586.848 24.2019V20.9404Z" fill="white"/>
</svg>
