<svg width="665" height="120" viewBox="0 0 665 120" fill="none" xmlns="http://www.w3.org/2000/svg">
<path d="M228.451 1.18621C246.226 -0.897533 270.923 0.213837 282.205 16.4323C284.405 19.6018 285.979 23.163 286.841 26.9235C287.814 31.3706 288.125 37.8649 288.354 42.4987C288.827 52.4641 288.966 62.4429 288.77 72.4177C288.66 78.1819 288.552 86.0623 287.597 91.6657C286.123 100.304 280.534 108.302 273.364 113.255C265.713 118.541 259.104 119.153 250.096 119.66C249.261 119.707 245.232 119.817 244.759 120.001H236.506C235.031 119.744 233.363 119.731 231.858 119.609C220.416 118.681 208.899 115.064 202.007 105.259C199.544 101.701 197.786 97.7018 196.834 93.4802C195.333 86.6817 195.057 71.5579 195.024 64.5114C194.965 57.0871 195.115 49.6627 195.476 42.2468C195.71 37.7 196.007 32.8874 196.779 28.3591C198.273 19.5962 204.872 12.0194 211.879 6.97429C217.32 3.0564 221.935 1.95007 228.451 1.18621ZM263.88 26.7253C256.813 21.0403 244.733 20.789 236.096 21.0925C236.033 21.0998 235.969 21.1066 235.906 21.1139C232.71 21.3139 229.162 21.585 226.027 22.4303C221.708 23.5955 217.034 28.7707 216.253 33.1891C215.511 37.3791 215.686 42.107 215.489 46.3708C215.279 58.4179 215.308 70.5495 215.952 82.5778C216.222 87.6291 216.47 91.6361 220.574 95.1735C227.243 100.921 238.901 100.994 247.148 100.436C247.344 100.422 247.541 100.404 247.735 100.38C256.038 99.8202 265.795 96.884 267.492 87.1423C268.337 82.3036 267.995 76.9555 268.253 72.0514C268.441 60.5118 268.366 48.8642 267.708 37.3454C267.476 33.2812 267.362 29.5249 263.88 26.7253Z" fill="#EBEBEB"/>
<path d="M629.066 1.52124C630.14 1.51986 634.585 1.45905 635.393 1.6726C639.505 2.76121 647.198 6.03686 650.554 8.33764C662.969 16.8492 664.121 29.7861 664.438 43.5818C664.461 44.6248 664.653 51.9248 664.774 52.5173L664.786 52.574V69.3738C664.466 70.1114 664.675 72.6605 664.622 73.5505C664.005 83.9288 664.429 94.5401 659.72 104.122C658.128 107.358 656.839 110.147 653.663 112.194C650.278 114.376 646.504 117.303 642.807 118.824C642.044 119.138 637.024 118.992 636.025 118.986L625.212 118.97L576.039 118.974V1.53882H617.562L629.066 1.52124ZM626.027 22.8455C624.41 22.8764 622.791 22.9334 621.176 23.0164C613.812 23.4986 605.21 24.371 597.976 23.5242L597.978 98.6033L620.94 98.6042L631.098 98.6267C633.329 98.6315 637.405 99.0708 638.941 97.3113C643.211 92.4171 643.561 84.7025 643.872 78.6248C644.12 73.2212 644.236 67.8123 644.219 62.4031C644.197 57.9335 644.108 53.4645 643.947 48.9978C643.674 41.7999 643.543 31.0774 638.273 25.4939C635.629 22.6932 629.769 22.7966 626.027 22.8455Z" fill="#EBEBEB"/>
<path d="M0 118.753C1.29035 116.004 2.72313 111.891 3.81627 108.966C6.12304 102.798 8.36932 96.608 10.5548 90.396C19.0244 66.4839 27.1138 42.3433 37.9444 19.3668C39.5538 15.9525 41.4296 12.852 43.7913 9.90503C51.4945 0.292671 65.3053 1.03823 76.4786 1.1671C83.4256 1.24722 96.1675 0.841242 102.619 2.88395C104.196 4.76491 105.209 6.34942 106.467 8.46005L106.467 118.974H86.0667V21.9092L60.3239 21.9093C51.7564 32.1213 49.3629 47.1639 43.8973 59.4589L59.7532 59.4462C61.2983 59.4454 65.2791 59.3509 66.574 59.5652C68.1393 59.8245 72.3797 62.5632 73.5844 63.7681C73.7759 63.9601 73.9615 64.1575 74.1415 64.3601C74.4508 69.528 74.7892 74.6939 75.1566 79.858L51.0369 79.8473C47.2439 79.8462 40.0352 78.8837 37.6191 81.9189C29.7605 91.7919 25.5164 107.042 21.9424 118.974L0 118.974V118.753Z" fill="#EBEBEB"/>
<path d="M185.876 0H186.298L186.296 21.9091L156.61 21.9197C151.951 21.9203 147.272 21.8711 142.619 21.894C141.035 21.9019 139.169 22.2005 138.094 23.4496C133.286 29.035 134.425 43.0321 134.698 50.0851L165.397 50.0952L174.505 50.0692C177.604 50.0576 181.604 49.446 183.614 52.2084C187.07 56.9532 186.853 64.9304 186.301 70.4561L134.649 70.4559C134.462 73.0586 134.363 75.667 134.351 78.2764C134.34 84.2559 134.629 93.5171 138.884 98.3032C140.942 100.618 144.833 100.207 147.696 100.191L155.737 100.166L186.298 100.171L186.296 118.974L149.702 118.981L139.302 118.982C135.209 118.982 133.16 119.392 129.658 116.881C127.481 115.361 122.562 112.883 121.034 110.692C115.028 102.08 114.447 91.2547 113.889 81.1162C113.341 70.2491 113.203 59.3651 113.475 48.4873C113.635 41.2549 113.785 34.0709 114.813 26.9009C120.174 -10.5081 161.586 6.11231 185.876 0Z" fill="#EBEBEB"/>
<path d="M443.871 0.917699C447.601 0.242226 454.659 1.88301 457.934 3.73769C460.741 5.32639 462.174 6.86783 462.873 10.0033C463.41 12.4157 464.182 14.9124 464.845 17.3005L471.006 39.4674L493.133 118.974H469.569C467.174 110.234 463.963 100.454 461.305 91.7021L445.345 39.1744C439.348 50.2356 437.608 63.7082 431.192 74.6139C429.192 78.0164 424.821 78.4347 421.235 78.6504C417.897 78.8513 413.674 78.6889 410.808 76.8207C409.076 73.5845 407.594 69.572 406.169 66.1322C403.724 60.1901 401.348 54.1913 398.7 48.3376C398.016 46.8238 394.734 39.3263 393.213 39.2043C392.432 40.0935 391.563 44.0568 391.138 45.4421C389.004 52.4701 386.919 59.513 384.885 66.5706L369.456 118.975L344.357 118.974L356.678 79.0769C356.126 77.7414 355.21 75.968 354.567 74.6301C352.613 70.8381 350.657 66.6067 348.779 62.7482L337.343 39.2426L312.31 119.062L288.008 118.974C290.514 110.501 293.252 101.91 295.861 93.4482L311.021 44.2465L318.62 19.5814C319.741 15.944 320.885 11.2478 322.31 7.82897C326.095 -1.24457 339.1 1.12413 346.133 2.49907C352.143 16.2074 358.594 30.1827 364.804 43.8243C365.404 43.9074 366.345 44.1277 366.924 43.9347C369.192 43.1805 377.529 6.93601 380.5 1.73762C386.698 1.83612 393.042 0.434449 399.105 2.2529C401.955 3.05752 403.618 5.11771 405.051 7.62063C409.633 15.6343 413.122 24.351 416.358 32.9833C416.905 34.4421 417.379 36.0371 418.069 37.4106C421.615 40.0863 426.321 26.8043 427.288 24.6552C430.515 17.4882 432.989 9.60292 437.425 3.08032C438.543 1.43797 442.04 1.09199 443.871 0.917699Z" fill="#EBEBEB"/>
<path d="M518.784 1.53869L568.235 1.53809C568.09 7.27838 567.204 15.4318 566.799 21.3396C560.591 23.8179 533.635 20.7656 525.627 21.7064C521.758 22.1609 519.075 24.2192 516.582 27.1642V50.0861L547.91 50.075C552.213 50.0732 558.102 49.8462 562.396 50.3657C563.367 50.4832 565.078 52.8112 565.589 53.7678C567.924 58.144 569.673 65.67 568.285 70.456L516.582 70.4562V90.171V93.2314C518.536 95.502 522.442 98.6543 525.011 100.171L568.235 100.171V118.974L532.384 118.981L520.869 118.981C518.755 118.982 516.599 119.074 514.492 118.936C513.572 118.875 512.492 118.734 511.642 118.359C506.246 115.984 499.336 106.635 497.242 101.242C493.702 92.1276 494.772 36.7415 496.259 25.3266C496.575 22.7724 497.257 20.277 498.285 17.9174C502.331 8.73951 509.857 4.98994 518.784 1.53869Z" fill="#EBEBEB"/>
</svg>
