<svg width="541" height="151" viewBox="0 0 541 151" fill="none" xmlns="http://www.w3.org/2000/svg">
<path d="M274.661 31.0838C276.334 31.0611 278.007 31.0644 279.68 31.0926C312.132 31.8732 316.31 50.6164 316.388 78.7948C316.394 80.5233 316.377 82.2606 316.325 83.995C315.507 84.9116 314.404 86.3002 313.098 86.4139C308.245 86.8242 303.299 86.5384 298.417 86.6112C286.051 86.7887 273.532 86.2916 261.181 86.6873C261.783 90.8255 263.102 95.4379 266.558 98.1414C275.531 105.155 288.603 103.74 298.996 101.462C301.914 100.822 304.899 99.7825 307.823 99.2645C308.466 99.1481 308.62 99.4626 309.065 99.8553C310.354 103.068 311.654 108.426 312.583 111.86L312.412 112.052C307.905 117.01 290.756 119.598 283.788 119.677C255.711 119.991 238.924 111.703 238.113 81.2508C237.339 52.2184 240.752 31.7396 274.661 31.0838ZM292.391 63.1043C291.6 51.2153 286.248 45.708 273.942 47.0467C260.445 49.7464 261.714 60.7546 261.888 71.8563C268.245 71.9639 274.605 71.9936 280.965 71.9412C283.383 71.9704 289.734 72.2001 291.759 71.7811C293.15 70.0928 292.534 65.2292 292.391 63.1043Z" fill="#EBEBEB"/>
<path d="M436.129 31.3361C447.069 30.3152 462.43 31.2934 471.351 38.2902C483.303 47.6681 482.445 65.8409 482.788 79.5041C482.832 81.2589 482.724 83.7184 481.831 85.1007C480.333 87.423 468.735 86.6076 466.844 86.6076L442.806 86.5871C438.491 86.5841 432.39 86.4187 428.265 86.797L427.799 86.8439C428.747 92.0064 430.162 96.3948 434.887 99.3195C445.393 105.824 460.737 103.117 471.746 99.965C471.956 99.8864 472.169 99.8112 472.378 99.7384C473.504 99.3514 474.237 99.0545 475.308 99.5695C477.309 101.927 478.514 109.188 478.715 112.246C474.985 116.646 464.639 117.883 458.919 118.797C446.502 120.788 427.593 119.687 417.18 111.917C408.978 105.797 406.706 96.6626 405.213 86.9953C403.206 73.9898 404.145 53.2782 412.213 42.4044C417.997 34.6121 426.938 32.5007 436.129 31.3361ZM445.425 46.9767C444.095 46.9185 442.762 46.9406 441.433 47.0421C437.418 47.6626 434.366 48.5125 431.649 51.9425C428.89 55.4276 427.02 67.8113 429.004 71.3849C431.239 72.4267 443.261 71.9464 446.615 71.9376C450.101 71.9464 455.852 72.133 459.16 71.8537C459.893 61.2822 459.079 47.5227 445.425 46.9767Z" fill="#EBEBEB"/>
<path d="M173.34 0.170074C173.814 0.10285 174.292 0.0353266 174.771 0.00971721C175.725 -0.0412105 176.725 0.0888646 177.388 0.862675C178.996 2.73914 178.133 29.5871 178.097 34.0254C190.162 30.8952 214.642 27.612 224.107 38.2564C229.154 43.9324 228.559 52.3864 228.563 59.5469L228.561 80.2992L228.598 102.271C228.609 106.237 228.782 111.802 228.374 115.628C226.676 118.291 219.076 117.04 216.217 117.145C213.753 117.232 210.972 117.296 208.532 117.197C206.786 117.127 205.095 116.534 205.066 114.546C204.784 110.431 204.9 105.978 204.902 101.875L204.92 72.1827C204.922 67.4974 205.165 59.0897 204.529 54.805C202.931 45.6124 194.087 46.9133 187.117 47.7235C183.774 48.112 181.204 48.3425 178.041 49.5604C178.627 70.8121 177.84 92.2308 178.245 113.519C178.354 119.22 167.42 116.714 163.574 117.252C161.565 117.532 156.024 117.226 154.458 116.12C153.102 112.782 154.401 62.9983 153.995 55.5303C153.7 50.1188 153.731 6.78165 154.685 3.98237C156.685 3.11893 170.426 0.720385 173.34 0.170074Z" fill="#EBEBEB"/>
<path d="M323.542 31.0882C328.849 31.0559 338.211 30.7579 343.137 31.2977C345.162 35.6278 346.878 44.5977 348.205 49.4641C352.462 65.1047 355.685 81.8678 360.474 97.2917C365.778 79.0421 370.396 60.4895 375.505 42.1777C376.505 38.5918 377.349 34.6436 378.731 31.2032C382.668 31.0507 398.754 30.418 401.402 32.0142C402.618 34.9436 396.662 53.8573 395.391 58.435L384.448 98.2345C382.461 105.306 380.512 112.392 378.606 119.487C375.429 131.017 372.866 143.153 360.841 148.03C352.523 151.403 336.681 151.746 328.61 148.327C328.389 143.534 328.502 138.208 328.514 133.372C349.026 133.331 349.41 136.89 355.261 116.01C351.958 116.176 345.665 116.225 342.517 115.87C340.9 111.988 338.816 103.738 337.638 99.4946L329.346 69.4007L322.873 46.0816C321.761 42.0773 320.496 37.9911 319.713 33.9166C319.213 31.312 321.779 31.1549 323.542 31.0882Z" fill="#EBEBEB"/>
<path d="M528.777 31.3428C531.189 31.1108 536.595 30.9127 538.777 31.4534C540.322 32.7321 539.976 37.927 540.02 39.873C540.072 42.0533 540.261 47.1545 539.269 48.9172C538.812 49.7315 528.245 49.2889 526.782 49.5883C523.412 49.8872 520.491 50.3624 517.276 50.8822C517.512 63.2337 517.335 75.186 517.372 88.046C517.387 92.6062 517.823 111.743 516.671 116.344C516.339 117.66 507.885 117.276 505.359 117.238C491.408 117.072 493.27 118.891 493.238 104.477L493.23 84.1057L493.241 58.0798C493.253 42.4756 490.623 37.6226 508.388 34.3429C515.24 33.0775 521.777 32.0869 528.777 31.3428Z" fill="#EBEBEB"/>
<path d="M7.56309 0.16925C12.0311 -0.0944102 18.7863 0.106987 23.3937 0.103494L54.4314 0.085448L74.7854 0.0836895C78.5772 0.0848536 85.0324 -0.144163 88.534 0.602292C88.7405 1.80768 81.6947 15.8713 80.652 17.7271C78.348 18.3467 59.5131 18.2303 55.7945 18.2338L0.171631 18.3039C0.0965668 11.3524 -1.47716 1.83735 7.56309 0.16925Z" fill="#EBEBEB"/>
<path d="M43.6637 98.9006C51.4058 98.435 62.0547 98.7405 70.0577 98.7405L117.879 98.758C117.839 103.833 118.598 110.62 114.825 114.581C111.606 117.959 107.037 117.139 102.652 117.13L86.6806 117.098C68.832 117.101 50.4076 117.36 32.6049 117.077C31.1429 117.133 30.7324 117.267 29.6635 116.565C29.0432 114.677 30.1889 113.16 31.1141 111.213C32.9698 111.219 34.4649 111.205 36.3127 111.411C38.8341 110.78 41.9757 101.657 43.6637 98.9006Z" fill="#EBEBEB"/>
<path d="M31.1141 111.214C32.9698 111.22 34.4649 111.205 36.3127 111.412C35.0809 113.167 33.35 115.195 32.6049 117.078C31.1429 117.133 30.7324 117.267 29.6635 116.566C29.0432 114.677 30.1889 113.161 31.1141 111.214Z" fill="#EBEBEB"/>
<path d="M0.0976562 31.1687L47.6416 31.1146C55.9777 31.1155 66.5652 30.7703 74.7079 31.254C73.7184 33.7422 66.9007 47.8096 65.2955 49.7335L65.0215 49.8275C63.6069 49.494 61.7428 49.4634 60.2581 49.3776C54.2294 49.2181 47.6326 49.4108 41.541 49.4122L0.170974 49.3255C0.149153 43.3239 0.193668 37.1573 0.0976562 31.1687Z" fill="#EBEBEB"/>
<path d="M57.7242 68.2363C77.4779 68.6001 98.0105 68.2683 117.834 68.2974C117.774 74.3535 117.787 80.4124 117.872 86.4685L67.2974 86.4627C63.0686 86.4568 47.583 86.1484 44.4452 86.6023C42.8886 83.9628 44.4524 82.2545 45.9249 79.9992L51.072 80.2407L51.7761 80.0457C52.58 79.8013 52.6222 79.7722 53.1046 78.7187C54.6952 75.2469 56.087 71.6965 57.7242 68.2363Z" fill="#EBEBEB"/>
<path d="M45.9249 79.9995L51.072 80.2411C49.4346 81.7311 45.6354 86.1982 44.4452 86.6027C42.8886 83.9632 44.4524 82.2549 45.9249 79.9995Z" fill="#EBEBEB"/>
<path d="M0.129883 61.4802L37.8646 61.4825C41.7589 61.4808 57.0995 60.9971 59.2726 62.2785C59.6203 62.8363 59.8603 62.9996 59.5676 63.7312C57.6523 68.5219 54.7938 72.9512 52.8983 77.8024C52.598 78.5707 51.9993 79.3331 51.7767 80.0461L51.0726 80.2411L45.9255 79.9996C41.8595 79.6794 35.681 80.017 31.4577 79.9734C21.0893 79.8657 10.5184 80.1305 0.163922 79.857L0.129883 61.4802Z" fill="#EBEBEB"/>
<path d="M72.2194 37.3613L117.759 37.3657L117.849 55.5527L79.6743 55.5085C73.7393 55.5163 66.5963 55.7532 60.7791 55.5425C59.6154 55.7826 59.0722 55.5699 58.4062 54.6503C57.991 52.6158 59.1967 51.0682 60.258 49.3779C61.7427 49.4638 63.6068 49.4944 65.0214 49.8279L65.2955 49.7339C67.5486 49.0311 70.9241 39.791 72.2194 37.3613Z" fill="#EBEBEB"/>
<path d="M60.258 49.3779C61.7427 49.4638 63.6068 49.4943 65.0214 49.8278C63.5981 51.5766 61.8504 53.6003 60.7791 55.5425C59.6154 55.7826 59.0722 55.5699 58.4062 54.6503C57.991 52.6158 59.1967 51.0681 60.258 49.3779Z" fill="#EBEBEB"/>
<path d="M0.124436 92.6646C12.6493 92.8683 30.7429 92.4347 43.66 92.8683C44.2052 92.8857 44.9137 93.7384 45.2244 94.3001C44.8014 95.793 40.6467 103.691 39.6869 105.626C38.8539 107.559 38.2595 109.186 36.7594 110.678C30.1645 110.547 23.4446 110.94 16.8651 110.798C12.6546 110.515 6.37219 111.816 3.01643 108.781C-0.95439 105.187 0.145384 97.7224 0.124436 92.6646Z" fill="#EBEBEB"/>
<path d="M86.9145 5.82211C90.9385 5.56805 94.983 5.74382 98.9581 5.71239C113.033 5.60093 117.739 6.11602 117.877 21.42L117.888 24.0525L86.1472 24.0796C83.4179 24.0764 74.144 24.2056 72.0908 23.8223C72.6809 22.0392 73.4199 20.434 74.1752 18.7176L78.505 18.6373C79.3353 18.6413 80.4037 18.8186 80.9117 18.1015C83.3068 14.7216 84.9916 9.54885 86.9145 5.82211Z" fill="#EBEBEB"/>
<path d="M74.1752 18.7175L78.505 18.6372C76.4148 22.011 76.3337 23.8056 72.0908 23.8222C72.6809 22.0392 73.4199 20.4339 74.1752 18.7175Z" fill="#EBEBEB"/>
</svg>
