<svg width="182" height="176" viewBox="0 0 182 176" fill="none" xmlns="http://www.w3.org/2000/svg">
<rect width="182" height="176" fill="white"/>
<path d="M81.7983 112.41C82.7083 111.88 83.0383 111.2 82.9183 110.41C82.8283 109.85 81.5083 109.1 80.8983 109.46L62.6783 120.17C60.6183 121.38 58.5483 122.62 56.1383 122.51C53.2283 122.37 50.9183 119.83 51.6583 116.94C52.1583 114.99 53.6683 113.13 55.4383 112.1L73.6683 101.43C74.5783 100.89 75.1683 100.1 74.4783 99.0904C73.9383 98.2904 73.0483 98.3004 72.1383 98.8304L54.8583 108.94C50.5183 111.48 43.3283 114.08 40.3783 110.89C39.4983 109.94 39.1883 108.07 39.4483 106.84C40.1783 103.44 42.4283 101.63 45.0683 99.8404L52.4583 94.8404L82.4183 75.2204C83.3883 75.0904 84.9483 75.9804 85.3283 76.7004L84.4483 81.9804C84.1483 83.7904 84.2683 85.4704 84.5583 87.2404C85.8883 95.4204 93.1883 97.8504 95.3583 95.8404C97.1083 94.2204 97.7483 92.1604 98.5683 90.0204L103.458 77.2804C104.608 74.2904 104.728 70.8904 102.738 68.3604C98.9383 63.5104 94.1183 60.3404 88.8683 56.9804C91.0883 56.6604 93.0083 56.8104 95.0283 57.2404C103.128 58.9804 110.988 61.0004 118.998 63.3404L141.618 104.15L136.518 107.9C134.408 105.08 131.188 102.78 127.468 102.88C123.748 102.98 121.248 105.55 120.558 109.12C116.238 106.3 110.408 107.42 107.728 111.92C107.068 113.04 106.888 114.78 106.658 116.14C105.208 116.17 103.308 116.14 102.138 116.79C99.1183 118.48 97.9683 121.5 97.8883 125.02C96.2183 124.83 94.2183 124.53 92.7483 125.11C89.0483 126.54 87.4483 130.42 88.3783 134.24C86.0083 136.03 82.9083 137.11 80.0383 136.14C78.1583 135.5 76.8983 133.9 76.6583 131.98L92.6383 121.92C93.4283 121.43 93.9083 120.55 93.3983 119.54C93.0583 118.89 91.7183 118.91 90.8983 119.44L76.2183 128.79C74.6483 129.79 73.0883 130.53 71.2583 130.99C67.0883 132.03 62.8283 129.61 62.2983 125.12C62.1683 124.02 63.3583 123.26 64.2083 122.76L81.8083 112.43L81.7983 112.41Z" fill="#214491"/>
<path d="M34.22 108.84L6 94.6602C11.02 85.7902 16.72 77.7902 22.65 69.5902C27.47 62.8002 32.07 56.2502 36.33 48.7402L60.68 61.0502L34.22 108.84ZM28.14 97.6902C30.29 97.8502 31.56 96.6102 31.83 94.7702C32.05 93.2502 30.9 91.6102 29.11 91.3702C27.04 91.0902 25.38 92.2102 25.12 94.2702C24.93 95.7802 26.12 97.5402 28.15 97.6902H28.14Z" fill="#214491"/>
<path d="M175.911 94.6405L147.721 108.86L121.211 61.0505L145.501 48.7305L149.371 55.1405C153.641 61.7905 158.071 67.9905 162.711 74.4105C167.431 80.9505 171.721 87.3005 175.921 94.6405H175.911ZM156.701 94.5205C156.701 92.7005 155.231 91.2305 153.411 91.2305C151.591 91.2305 150.121 92.7005 150.121 94.5205C150.121 96.3405 151.591 97.8105 153.411 97.8105C155.231 97.8105 156.701 96.3405 156.701 94.5205Z" fill="#214491"/>
<path d="M34.4297 118.182L37.7397 117.942C48.9497 137.672 69.7397 149.572 92.2397 149.202C114.56 148.832 135.08 136.322 145.6 116.242L149.49 116.472L158.55 109.672C153.37 125.432 143.05 138.732 129.02 147.592C110 159.612 86.6697 162.142 64.5997 153.372C46.8397 146.322 31.0997 130.802 24.4297 111.102L34.4397 118.182H34.4297Z" fill="#434343"/>
<path d="M137.75 48.7111C113.09 20.1611 68.74 20.2711 44.41 49.1111L35.75 44.8711C49.19 27.8411 69.42 18.1211 90.81 18.0011C112.2 17.8811 132.73 27.4711 146.31 44.4111L137.75 48.7211V48.7111Z" fill="#434343"/>
<path d="M93.3997 93.6304C85.6497 91.2004 86.8297 82.4804 89.0997 74.8304L82.5097 71.1304C81.2997 72.5304 79.6897 73.7204 78.0797 74.7604L72.1397 78.6104L44.6797 96.5004L63.1397 63.2404L67.9197 61.1704C71.3997 59.4704 74.6097 57.9104 78.3297 56.5004C79.4197 56.0904 81.5597 56.7104 82.6997 57.2304C89.2297 60.1704 94.9197 64.2304 99.8097 69.4004C102.34 72.0704 101.05 75.3704 99.6297 79.0104L95.4197 89.8404C94.9097 91.1704 94.2797 92.4004 93.3897 93.6304H93.3997Z" fill="#214491"/>
<path d="M125.731 120.862C124.751 125.492 119.881 127.392 115.981 125.832L110.221 117.492C109.211 116.032 109.971 113.482 111.131 112.332C113.761 109.712 118.311 109.852 120.421 112.982L125.741 120.872L125.731 120.862Z" fill="#214491"/>
<path d="M108.118 132.692C106.828 132.472 105.128 132.082 104.588 131.452C103.208 129.822 101.968 128.012 101.288 126.122C100.278 123.302 101.638 119.942 104.538 119.122C105.828 118.752 107.748 119.622 108.498 120.702C110.088 122.982 112.168 125.052 113.248 127.582C114.408 130.292 110.888 133.162 108.118 132.692Z" fill="#214491"/>
<path d="M133.699 116.751C132.349 118.201 130.229 119.701 128.169 119.081L124.369 113.441C123.449 112.071 123.239 110.371 123.789 108.761C124.209 107.521 125.649 105.991 127.289 105.851C130.259 105.591 132.339 107.451 133.919 109.571C135.619 111.851 135.849 114.451 133.699 116.761V116.751Z" fill="#214491"/>
<path d="M101.521 135.502C100.911 137.522 99.2511 139.592 97.0211 139.312C93.7811 138.912 91.4011 135.812 91.1511 132.712C90.9311 129.942 92.7111 127.582 95.4411 127.652C98.1711 127.722 99.7411 129.612 100.981 131.672C101.691 132.862 102.011 133.892 101.521 135.502Z" fill="#214491"/>
<path d="M28.1418 97.6906C26.1118 97.5406 24.9318 95.7706 25.1118 94.2706C25.3618 92.2106 27.0318 91.0906 29.1018 91.3706C30.8918 91.6106 32.0418 93.2506 31.8218 94.7706C31.5618 96.6106 30.2918 97.8506 28.1318 97.6906H28.1418Z" fill="white"/>
<path d="M153.411 97.8105C155.228 97.8105 156.701 96.3375 156.701 94.5205C156.701 92.7035 155.228 91.2305 153.411 91.2305C151.594 91.2305 150.121 92.7035 150.121 94.5205C150.121 96.3375 151.594 97.8105 153.411 97.8105Z" fill="white"/>
</svg>
