<svg width="32" height="32" viewBox="0 0 32 32" fill="none" xmlns="http://www.w3.org/2000/svg">
<path fill-rule="evenodd" clip-rule="evenodd" d="M10.9908 25.9414C10.6588 25.9748 10.3253 25.9915 9.99162 25.9915C7.34167 25.9915 4.80027 24.9388 2.92648 23.0651C1.05269 21.1913 0 18.6499 0 15.9999C0 13.35 1.05269 10.8086 2.92648 8.93478C4.80027 7.06099 7.34167 6.0083 9.99162 6.0083C10.3253 6.0083 10.6588 6.02502 10.9908 6.05838V9.05587C10.6593 9.01535 10.3254 8.99861 9.99162 9.00579C8.13666 9.00579 6.35767 9.74266 5.04602 11.0543C3.73436 12.366 2.99748 14.145 2.99748 15.9999C2.99748 17.8549 3.73436 19.6339 5.04602 20.9455C6.35767 22.2572 8.13666 22.994 9.99162 22.994C10.3254 23.0012 10.6593 22.9845 10.9908 22.944V25.9414Z" fill="white"/>
<path fill-rule="evenodd" clip-rule="evenodd" d="M27.9771 25.9414C27.6451 25.9748 27.3116 25.9915 26.9779 25.9915C24.328 25.9915 21.7866 24.9388 19.9128 23.0651C18.039 21.1913 16.9863 18.6499 16.9863 15.9999C16.9863 13.35 18.039 10.8086 19.9128 8.93478C21.7866 7.06099 24.328 6.0083 26.9779 6.0083C27.3116 6.0083 27.6451 6.02502 27.9771 6.05838V9.05587C27.6457 9.01535 27.3118 8.99861 26.9779 9.00579C25.3833 9.00565 23.8364 9.55048 22.5938 10.55C21.3512 11.5494 20.4874 12.9435 20.1457 14.5012H25.9788V17.4987H20.1457C20.4874 19.0563 21.3512 20.4504 22.5938 21.4499C23.8364 22.4494 25.3833 22.9942 26.9779 22.994C27.3118 23.0012 27.6457 22.9845 27.9771 22.944V25.9414Z" fill="white"/>
</svg>
