<svg width="32" height="32" viewBox="0 0 32 32" fill="none" xmlns="http://www.w3.org/2000/svg">
<path d="M7.95311 10.5544V7.896H1.01465V10.5544H2.60649V16.2409H1.01465V18.8993H7.95311V16.2409H6.36126V10.5544H7.95311Z" fill="white"/>
<path d="M15.6104 12.1176C15.1816 11.9928 12.9749 11.3612 12.5928 11.2365C12.2108 11.1117 11.8989 10.9324 11.8989 10.7062C11.8989 10.4801 12.2497 10.2384 12.9593 10.2384C15.1971 10.2384 16.2722 11.6185 16.2722 11.6185C16.2722 11.6185 16.3933 11.7799 16.4339 11.8378H18.593V8.07241H16.2752V8.75746C16.0981 8.6352 14.7912 7.78223 12.7644 7.78223C10.0899 7.78223 8.60059 9.17016 8.60059 11.2443C8.60059 13.3183 10.4797 14.1761 11.0022 14.3944C11.5246 14.6127 13.5675 15.1897 14.4408 15.4626C15.3141 15.7355 15.6338 15.9305 15.6338 16.0708C15.6338 16.2112 15.2517 16.5776 14.1601 16.5776C12.2586 16.5776 11.2794 15.4563 11.1075 15.2392V15.2375C11.0529 15.1643 10.9888 15.0776 10.967 15.045C10.9418 15.0073 10.8833 14.9235 10.8428 14.8656H8.68374V18.8866H11.1075V18.0469C11.3895 18.2346 12.8332 19.1352 14.5656 19.1352C16.4993 19.1352 18.9633 18.2931 18.9633 15.6654C18.9633 13.0376 16.0393 12.2423 15.6104 12.1176Z" fill="white"/>
<path d="M25.1175 7.74512C21.8939 7.74512 19.25 9.35686 19.25 13.4712C19.25 17.5855 22.1201 19.1266 25.1316 19.1266C28.143 19.1266 30.9849 17.5996 30.9849 13.5137C30.9849 9.42772 28.1432 7.74512 25.1175 7.74512ZM25.1458 16.3837C24.0429 16.3837 23.336 16.1292 23.336 13.4571C23.336 10.7849 23.8592 10.5021 25.1882 10.5021C25.994 10.5021 26.9696 10.5587 26.9696 13.3723C26.9696 16.1858 26.2487 16.3837 25.1458 16.3837Z" fill="white"/>
<path d="M5.63879 6.6819C6.36344 5.61186 7.25459 4.66332 8.27617 3.8756C8.68924 4.18101 9.12832 4.45803 9.58993 4.70493C8.81655 5.567 8.12365 6.52209 8.00887 6.6819H8.47291C8.75143 6.30651 9.32756 5.55135 9.93507 4.88184C10.5991 5.20826 11.3048 5.47525 12.0411 5.6786C11.8451 6.09442 11.697 6.45802 11.61 6.6819H12.0132C12.1058 6.45135 12.2415 6.12979 12.4109 5.77448C13.3502 6.00397 14.3344 6.13259 15.3413 6.15218V6.68196H15.7155V6.15399C16.715 6.14669 17.6938 6.03279 18.6298 5.81877C18.7894 6.1563 18.9178 6.46102 19.0066 6.6819H19.4097C19.3261 6.46688 19.1863 6.12317 19.0016 5.72776C19.7511 5.53276 20.4702 5.27276 21.1475 4.95145C21.7318 5.60318 22.278 6.31954 22.5469 6.6819H23.0109C22.8996 6.52702 22.2426 5.62109 21.496 4.77904C22.0093 4.51374 22.496 4.21189 22.9509 3.8756C23.9725 4.66332 24.8637 5.61186 25.5883 6.6819H26.0385C23.8248 3.26535 19.9789 1 15.6135 1C11.2481 1 7.40218 3.26535 5.18848 6.6819H5.63879ZM12.2081 5.33633C11.5077 5.14713 10.8357 4.89911 10.2022 4.5957C10.2883 4.50625 10.3743 4.41961 10.4593 4.33758C11.3268 3.50102 12.7537 2.58243 13.0664 2.38469C13.3202 2.5241 13.5972 2.642 13.8918 2.73557C13.663 3.03561 13.2138 3.64468 12.7245 4.41724C12.5341 4.7179 12.3606 5.03392 12.2081 5.33633ZM15.3413 5.77778C14.3933 5.75882 13.4665 5.6408 12.5806 5.43071C12.7192 5.15986 12.8737 4.88115 13.0407 4.61754C13.6044 3.72758 14.1129 3.05938 14.2823 2.84199C14.6203 2.92139 14.9756 2.97161 15.3413 2.98801V5.77778ZM15.7155 5.77965V2.99226C16.0763 2.98614 16.4292 2.94797 16.767 2.88004C16.9606 3.13049 17.4452 3.77449 17.9791 4.61754C18.1547 4.89494 18.3167 5.18899 18.4608 5.47312C17.578 5.66837 16.6565 5.77267 15.7155 5.77965ZM18.836 5.38448C18.6777 5.0676 18.4958 4.73387 18.2952 4.41724C17.8312 3.68454 17.4031 3.0988 17.165 2.78428C17.4783 2.69627 17.7741 2.58187 18.0457 2.44345C18.4848 2.7249 19.76 3.56577 20.5604 4.33758C20.6667 4.44007 20.7743 4.54954 20.8819 4.66307C20.2351 4.96168 19.5496 5.2034 18.836 5.38448ZM22.6375 3.64162C22.1984 3.95857 21.7293 4.24252 21.2353 4.49216C21.0973 4.34407 20.958 4.20103 20.8202 4.06817C20.0716 3.34626 18.957 2.58891 18.4109 2.23329C18.5964 2.11303 18.766 1.98003 18.9173 1.83525C20.2691 2.2215 21.5241 2.83912 22.6375 3.64162ZM15.6136 1.37427C16.6019 1.37427 17.5625 1.49485 18.4823 1.72054C17.7843 2.2875 16.7384 2.6201 15.6136 2.6201C14.4837 2.6201 13.4407 2.28856 12.7436 1.72085C13.6637 1.49498 14.6247 1.37427 15.6136 1.37427ZM12.3097 1.83525C12.4328 1.95327 12.5676 2.06368 12.7137 2.16549C12.2189 2.48387 11.0002 3.2961 10.1996 4.0681C10.0843 4.17926 9.96807 4.29766 9.85229 4.42004C9.40947 4.18818 8.98716 3.9285 8.58975 3.64162C9.70296 2.83912 10.9579 2.22156 12.3097 1.83525Z" fill="white"/>
<path d="M25.5886 20.1451C24.8794 21.1926 24.0104 22.1236 23.0159 22.9013C22.5423 22.5451 22.0339 22.2267 21.4962 21.9486C22.1439 21.2181 22.7242 20.4394 22.9391 20.1451H22.473C22.1857 20.5288 21.6827 21.1796 21.1477 21.7763C20.4704 21.4549 19.7513 21.1947 19.0017 20.9998C19.1602 20.6604 19.2854 20.3596 19.3706 20.1451H18.9663C18.8806 20.3542 18.7666 20.6195 18.6297 20.9092C17.6943 20.6955 16.7156 20.5816 15.7153 20.5744V20.1451H15.341V20.5761C14.3333 20.5956 13.3492 20.7241 12.4105 20.9533C12.2642 20.6465 12.143 20.3648 12.053 20.1451H11.6486C11.7379 20.37 11.8711 20.6896 12.0405 21.049C11.304 21.2524 10.5981 21.519 9.93413 21.8457C9.37622 21.2307 8.84494 20.5437 8.54633 20.1451H8.08024C8.30218 20.4492 8.91518 21.2715 9.58962 22.0231C9.10387 22.2832 8.64264 22.5764 8.21067 22.9012C7.2161 22.1235 6.34716 21.1925 5.63798 20.145H5.18848C7.40224 23.5616 11.248 25.8269 15.6134 25.8269C19.9786 25.8269 23.8245 23.5616 26.0382 20.145L25.5886 20.1451ZM18.8358 21.3433C19.5497 21.5243 20.2353 21.7659 20.8821 22.0647C20.7743 22.1783 20.6666 22.288 20.5602 22.3907C19.7623 23.16 18.4911 23.9989 18.0487 24.2826C17.7771 24.1436 17.4809 24.0292 17.1666 23.9412C17.4051 23.6261 17.8322 23.0415 18.2949 22.3109C18.4956 21.9942 18.6775 21.6603 18.8358 21.3433ZM15.7152 20.9486C16.657 20.9556 17.5784 21.0596 18.4606 21.2546C18.3165 21.5389 18.1545 21.833 17.9787 22.1106C17.4455 22.9525 16.9617 23.5958 16.7675 23.847C16.4307 23.7799 16.0778 23.742 15.7152 23.736V20.9486H15.7152ZM15.3409 20.9505V23.7399C14.9739 23.7562 14.6183 23.8058 14.2807 23.8846C14.1101 23.6656 13.6032 22.9993 13.0404 22.1106C12.8733 21.8468 12.7186 21.5679 12.58 21.2968C13.4654 21.087 14.3922 20.9694 15.3409 20.9505ZM12.2076 21.3915C12.3602 21.6941 12.5338 22.0101 12.7242 22.3109C13.2131 23.0829 13.662 23.6916 13.891 23.9919C13.596 24.0854 13.3193 24.2034 13.0656 24.3432C12.7517 24.1446 11.3261 23.2267 10.4591 22.3907C10.3739 22.3086 10.2879 22.2218 10.2017 22.1323C10.8351 21.8287 11.507 21.5807 12.2076 21.3915ZM8.52163 23.1359C8.93876 22.8292 9.38352 22.5528 9.85142 22.3077C9.96732 22.4302 10.0838 22.5488 10.1992 22.6601C10.9996 23.4319 12.2179 24.2439 12.7129 24.5624C12.5366 24.6859 12.3758 24.8216 12.233 24.969C10.883 24.5734 9.63072 23.9471 8.52163 23.1359ZM15.6133 25.4527C14.5926 25.4527 13.6013 25.3245 12.6542 25.0843C13.3458 24.4766 14.4439 24.1081 15.6133 24.1081C16.7813 24.1081 17.8805 24.4769 18.572 25.0844C17.6251 25.3246 16.6339 25.4527 15.6133 25.4527ZM18.9934 24.969C18.8236 24.794 18.6295 24.6344 18.413 24.4933C18.96 24.137 20.0724 23.3809 20.8199 22.66C20.9578 22.5271 21.097 22.384 21.2352 22.2358C21.7544 22.4984 22.2464 22.7988 22.7049 23.1358C21.5957 23.9471 20.3434 24.5734 18.9934 24.969Z" fill="white"/>
<path d="M1.72961 29.7969C1.74626 30.1065 1.86572 30.3205 2.0881 30.4389C2.20238 30.5013 2.33119 30.5324 2.4746 30.5324C2.74264 30.5324 2.9712 30.4208 3.16033 30.1974C3.3494 29.974 3.48345 29.5205 3.56242 28.8369C3.43773 29.0342 3.28346 29.1729 3.09957 29.2529C2.91568 29.333 2.71775 29.3729 2.50579 29.3729C2.07562 29.3729 1.73535 29.2391 1.48496 28.9713C1.23451 28.7035 1.10938 28.359 1.10938 27.9375C1.10938 27.5328 1.23301 27.1768 1.48028 26.8695C1.72755 26.5623 2.09228 26.4087 2.57434 26.4087C3.2247 26.4087 3.67358 26.7015 3.92085 27.2871C4.05802 27.609 4.12658 28.0118 4.12658 28.4957C4.12658 29.0418 4.04449 29.5256 3.88037 29.9473C3.60808 30.6491 3.14679 31.0001 2.49643 31.0001C2.06003 31.0001 1.72855 30.8857 1.50211 30.6572C1.27561 30.4286 1.16233 30.1419 1.16233 29.7969H1.72961V29.7969ZM3.18996 28.6611C3.37385 28.5148 3.4658 28.2591 3.4658 27.8939C3.4658 27.5661 3.38321 27.3219 3.21797 27.161C3.05279 27.0003 2.84238 26.9199 2.58682 26.9199C2.31254 26.9199 2.09484 27.0117 1.93377 27.1953C1.77271 27.3789 1.69218 27.6243 1.69218 27.9313C1.69218 28.2217 1.76279 28.4526 1.90414 28.6238C2.04543 28.7949 2.27087 28.8805 2.58052 28.8805C2.8029 28.8805 3.00607 28.8073 3.18996 28.6611Z" fill="white"/>
<path d="M7.41121 27.1284C7.6107 27.4961 7.71044 28.0001 7.71044 28.6401C7.71044 29.2469 7.62005 29.7486 7.43928 30.1456C7.17748 30.7149 6.74931 30.9996 6.15509 30.9996C5.61894 30.9996 5.21997 30.767 4.95816 30.3014C4.73996 29.9129 4.63086 29.3913 4.63086 28.7367C4.63086 28.2297 4.69636 27.7944 4.82723 27.4306C5.07238 26.7533 5.51608 26.4146 6.15814 26.4146C6.73583 26.4146 7.15352 26.6525 7.41121 27.1284ZM6.84662 30.1019C7.01935 29.8443 7.10574 29.3643 7.10574 28.6619C7.10574 28.1549 7.04324 27.7377 6.91842 27.4104C6.79353 27.0831 6.55101 26.9195 6.19095 26.9195C5.85997 26.9195 5.618 27.0748 5.46505 27.3855C5.31204 27.6962 5.23556 28.1538 5.23556 28.7586C5.23556 29.2136 5.28446 29.5794 5.38227 29.8557C5.53211 30.2776 5.78817 30.4885 6.15028 30.4885C6.44172 30.4885 6.67377 30.3596 6.84662 30.1019Z" fill="white"/>
<path d="M10.962 27.1284C11.1615 27.4961 11.2612 28.0001 11.2612 28.6401C11.2612 29.2469 11.1708 29.7486 10.9901 30.1456C10.7283 30.7149 10.3001 30.9996 9.70587 30.9996C9.16972 30.9996 8.77075 30.767 8.50894 30.3014C8.29074 29.9129 8.18164 29.3913 8.18164 28.7367C8.18164 28.2297 8.24714 27.7944 8.37801 27.4306C8.62316 26.7533 9.06686 26.4146 9.70892 26.4146C10.2867 26.4146 10.7043 26.6525 10.962 27.1284ZM10.3974 30.1019C10.5701 29.8443 10.6565 29.3643 10.6565 28.6619C10.6565 28.1549 10.594 27.7377 10.4692 27.4104C10.3443 27.0831 10.1018 26.9195 9.74174 26.9195C9.41075 26.9195 9.16879 27.0748 9.01583 27.3855C8.86282 27.6962 8.78634 28.1538 8.78634 28.7586C8.78634 29.2136 8.83525 29.5794 8.93306 29.8557C9.08289 30.2776 9.33896 30.4885 9.70106 30.4885C9.9925 30.4885 10.2245 30.3596 10.3974 30.1019Z" fill="white"/>
<path d="M12.1426 27.7174V27.2872C12.5478 27.2477 12.8304 27.1818 12.9904 27.0893C13.1504 26.9968 13.2698 26.7781 13.3489 26.4331H13.7914V30.8779H13.193V27.7173L12.1426 27.7174Z" fill="white"/>
<path d="M15.79 27.5835H16.4415V28.263H15.79V27.5835ZM15.79 30.1986H16.4415V30.8782H15.79V30.1986Z" fill="white"/>
<path d="M17.2941 29.8748C17.4322 29.5902 17.7018 29.3314 18.1029 29.0987L18.7014 28.7527C18.9695 28.5968 19.1575 28.4637 19.2656 28.3534C19.4359 28.1806 19.5212 27.9828 19.5212 27.76C19.5212 27.4998 19.4433 27.2931 19.2875 27.1401C19.1316 26.9871 18.9238 26.9105 18.664 26.9105C18.2796 26.9105 18.0136 27.0565 17.8661 27.3483C17.7871 27.5046 17.7435 27.7213 17.7352 27.9984H17.1648C17.171 27.6099 17.2427 27.2929 17.3798 27.0478C17.6229 26.6156 18.052 26.3994 18.6671 26.3994C19.1783 26.3994 19.5518 26.5376 19.7877 26.814C20.0235 27.0904 20.1415 27.3979 20.1415 27.7366C20.1415 28.094 20.0157 28.3995 19.7643 28.653C19.6188 28.8006 19.358 28.9792 18.9819 29.1891L18.5549 29.426C18.3512 29.5383 18.1913 29.6453 18.0749 29.747C17.8671 29.9278 17.7362 30.1284 17.6821 30.3486H20.1197V30.8785H17.0557C17.0764 30.4941 17.1559 30.1595 17.2941 29.8748Z" fill="white"/>
<path d="M23.3858 27.1284C23.5852 27.4961 23.685 28.0001 23.685 28.6401C23.685 29.2469 23.5947 29.7486 23.4138 30.1456C23.152 30.7149 22.7239 30.9996 22.1296 30.9996C21.5935 30.9996 21.1945 30.767 20.9327 30.3014C20.7146 29.9129 20.6055 29.3913 20.6055 28.7367C20.6055 28.2297 20.6709 27.7944 20.8018 27.4306C21.047 26.7533 21.4906 26.4146 22.1328 26.4146C22.7104 26.4146 23.1281 26.6525 23.3858 27.1284ZM22.8212 30.1019C22.994 29.8443 23.0803 29.3643 23.0803 28.6619C23.0803 28.1549 23.0178 27.7377 22.8929 27.4104C22.768 27.0831 22.5256 26.9195 22.1655 26.9195C21.8345 26.9195 21.5926 27.0748 21.4396 27.3855C21.2865 27.6962 21.21 28.1538 21.21 28.7586C21.21 29.2136 21.2589 29.5794 21.3568 29.8557C21.5067 30.2776 21.7627 30.4885 22.1248 30.4885C22.4163 30.4885 22.6483 30.3596 22.8212 30.1019Z" fill="white"/>
<path d="M24.5674 27.7174V27.2872C24.9726 27.2477 25.2551 27.1818 25.4152 27.0893C25.5752 26.9968 25.6946 26.7781 25.7737 26.4331H26.2163V30.8779H25.6178V27.7173L24.5674 27.7174Z" fill="white"/>
<path d="M28.2948 29.7407C28.3323 30.0607 28.4808 30.2821 28.7406 30.4047C28.8736 30.467 29.0274 30.4982 29.202 30.4982C29.5344 30.4982 29.7806 30.3922 29.9407 30.1802C30.1006 29.9683 30.1807 29.7335 30.1807 29.4758C30.1807 29.1641 30.0857 28.9231 29.8955 28.7527C29.7054 28.5822 29.4774 28.497 29.2114 28.497C29.0181 28.497 28.8524 28.5345 28.7142 28.6093C28.576 28.684 28.4581 28.788 28.3604 28.921L27.8742 28.8929L28.214 26.4897H30.5329V27.0321H28.6347L28.4445 28.2727C28.5484 28.1937 28.6471 28.1345 28.7406 28.0949C28.9068 28.0264 29.0991 27.9921 29.3172 27.9921C29.7266 27.9921 30.0736 28.1241 30.3583 28.388C30.643 28.6519 30.7853 28.9865 30.7853 29.3917C30.7853 29.8135 30.6549 30.1855 30.3941 30.5076C30.1333 30.8297 29.7172 30.9907 29.1458 30.9907C28.7821 30.9907 28.4605 30.8883 28.1811 30.6837C27.9016 30.4791 27.7452 30.1647 27.7119 29.7408L28.2948 29.7407Z" fill="white"/>
</svg>
