<svg width="47" height="31" viewBox="0 0 47 31" fill="none" xmlns="http://www.w3.org/2000/svg">
<path d="M10.4011 16.707C10.4011 17.2419 10.216 17.7048 9.84223 18.0991C9.38278 18.586 8.73132 18.8294 7.88785 18.8294C7.56212 18.8294 7.26382 18.7917 6.98952 18.7163C6.71522 18.6408 6.4375 18.5654 6.15291 18.4831C6.05691 18.4831 5.99176 18.514 5.95062 18.5791C5.90947 18.6443 5.87519 18.7265 5.84776 18.826H5.55289V16.323H5.84776C5.96776 16.9299 6.18034 17.4202 6.47521 17.7939C6.84552 18.2602 7.32897 18.4934 7.92557 18.4934C8.33016 18.4934 8.64217 18.3871 8.86161 18.1745C9.08105 17.9619 9.19077 17.6876 9.19077 17.3585C9.19077 17.0533 9.08448 16.803 8.87532 16.6076C8.73475 16.4807 8.46045 16.3162 8.05243 16.1207L7.37354 15.795C6.62265 15.435 6.11863 15.0304 5.8649 14.5778C5.71746 14.3138 5.64203 13.9949 5.64203 13.6246C5.64203 12.9834 5.86833 12.476 6.32092 12.1022C6.7118 11.7834 7.23296 11.6257 7.88099 11.6257C8.19986 11.6257 8.53245 11.6805 8.87875 11.7937C9.22505 11.9068 9.42049 11.9617 9.46164 11.9617C9.58164 11.9617 9.67079 11.9102 9.72565 11.8108C9.75308 11.7628 9.77708 11.7011 9.79765 11.6291H10.1028V13.8269H9.81822C9.69822 13.364 9.49249 12.9629 9.21134 12.6234C8.82732 12.1674 8.36787 11.9411 7.83299 11.9411C7.54155 11.9411 7.28782 12.0234 7.07181 12.1914C6.8558 12.356 6.74608 12.596 6.74608 12.908C6.74608 13.1789 6.81466 13.3949 6.95524 13.5526C7.09239 13.7103 7.37354 13.8955 7.79185 14.1046L9.28334 14.8452C9.5405 14.9755 9.76679 15.1675 9.96223 15.4247C10.2537 15.7984 10.4011 16.227 10.4011 16.707ZM17.3031 12.596C16.6277 11.9548 15.7876 11.6325 14.7796 11.6325C13.7647 11.6325 12.9144 11.9617 12.2252 12.62C11.536 13.2783 11.1897 14.1492 11.1897 15.2292C11.1897 16.2956 11.5257 17.163 12.1978 17.8282C12.8698 18.4934 13.7304 18.826 14.7762 18.826C15.8151 18.826 16.6757 18.49 17.3511 17.8214C18.0266 17.1528 18.366 16.2887 18.366 15.2258C18.366 14.1526 18.0129 13.2714 17.3031 12.596ZM16.3191 17.1973C16.0345 18.0614 15.5202 18.4934 14.7796 18.4934C14.1933 18.4934 13.7475 18.226 13.4424 17.6945C13.1372 17.1596 12.9864 16.3402 12.9864 15.2327C12.9864 14.3343 13.1064 13.604 13.3498 13.0451C13.6618 12.3285 14.1384 11.972 14.7796 11.972C15.4276 11.972 15.9042 12.332 16.2094 13.0451C16.4528 13.6109 16.5728 14.3412 16.5728 15.2327C16.5728 16.0281 16.4871 16.6865 16.3191 17.1973ZM1.45898 11.7868H5.00772V12.0405C4.70256 12.0405 4.48312 12.0748 4.3494 12.1434C4.14711 12.2428 4.04425 12.452 4.04425 12.7606V17.6671C4.04425 17.9585 4.13682 18.1574 4.31854 18.2637C4.45912 18.346 4.68885 18.3837 5.00772 18.3837V18.6374H1.45898V18.3837C1.88415 18.3425 2.14816 18.2705 2.25102 18.1711C2.35388 18.0682 2.40188 17.9002 2.40188 17.6636V12.7606C2.40188 12.4623 2.30588 12.26 2.10701 12.1537C1.97329 12.0782 1.75386 12.0405 1.45898 12.0405V11.7868ZM21.589 13.2646V17.5985C21.589 17.9791 21.6131 18.3151 21.6611 18.6065H20.8107C20.8587 18.3254 20.8827 17.9894 20.8827 17.5985V12.4348H20.4027C20.1456 12.4348 19.8884 12.452 19.6278 12.4897V11.7868C19.8233 11.8177 20.0701 11.8314 20.3684 11.8314H20.9307C21.181 11.8314 21.4279 11.8177 21.6713 11.7868C21.6131 12.3251 21.589 12.8189 21.589 13.2646ZM13.1372 7.60033C14.3133 8.2415 15.5716 8.71123 16.8608 9.04725C16.7477 9.4827 16.6483 9.925 16.5591 10.3673H17.7043C17.7797 10.0142 17.862 9.66099 17.9546 9.31126C19.5421 9.65756 21.1673 9.829 22.7891 9.85986V10.3673H23.9103V9.85643C25.5355 9.82557 27.1607 9.65756 28.7448 9.30783C28.8374 9.65756 28.9231 10.0107 28.9951 10.3673H30.1403C30.0512 9.925 29.9517 9.48613 29.8386 9.05068C31.1243 8.7078 32.3861 8.2415 33.5553 7.60033C34.2136 8.45065 34.7588 9.38326 35.184 10.3673H36.4012C36.2366 9.94215 36.048 9.52727 35.8388 9.11925C34.3199 6.11569 31.6764 3.69843 28.5425 2.45723C27.0407 1.85035 25.4292 1.5349 23.8143 1.45947H22.8817C21.0713 1.54176 19.2712 1.93264 17.6186 2.68353C15.1225 3.79787 12.9727 5.66309 11.512 7.9672C11.0286 8.72495 10.6205 9.52727 10.2948 10.3639H11.5086C11.9372 9.38326 12.4823 8.45065 13.1372 7.60033ZM32.8216 6.726C31.7758 7.26774 30.6649 7.67919 29.5266 7.97406C29.0534 6.52713 28.4122 5.12135 27.4933 3.8973C27.2465 3.60586 27.0236 3.29727 26.7424 3.04012C29.0637 3.66072 31.1929 4.96363 32.8216 6.726ZM23.9103 2.63553C24.7263 2.81039 25.4361 3.29727 26.0053 3.89387C27.171 5.10078 27.8808 6.66085 28.4328 8.22435C28.0591 8.31693 27.6819 8.38893 27.3013 8.43694C26.1801 8.61866 25.0452 8.71466 23.9103 8.73181C23.9137 6.702 23.9103 4.66876 23.9103 2.63553ZM22.7925 2.63553V8.73523C21.9525 8.72838 21.1159 8.64952 20.2827 8.5638C19.6072 8.46094 18.9284 8.39236 18.27 8.22435C18.7398 6.88715 19.3227 5.56709 20.2073 4.44932C20.8622 3.61614 21.7193 2.85839 22.7925 2.63553ZM19.0998 3.30413C19.3809 3.20812 19.6621 3.10526 19.957 3.0504C18.6129 4.40818 17.7763 6.18083 17.1831 7.97406C16.0448 7.68262 14.927 7.2746 13.8881 6.726C15.311 5.17964 17.118 3.9933 19.0998 3.30413ZM26.9001 16.7413C26.9001 15.8327 26.2933 15.3767 25.0795 15.3767C24.8703 15.3767 24.6338 15.3904 24.3663 15.4213V14.7149C24.5755 14.7492 24.7949 14.7698 25.0281 14.7698C25.6212 14.7698 26.0567 14.6326 26.331 14.3583C26.5676 14.1321 26.6876 13.844 26.6876 13.4943C26.6876 13.1137 26.5607 12.8154 26.3036 12.6028C26.0533 12.3903 25.7035 12.2805 25.2509 12.2805C24.7023 12.2805 24.308 12.4383 24.0646 12.7537C23.9583 12.8909 23.8623 13.1 23.78 13.388L23.0394 13.2269C23.1697 12.8291 23.3308 12.5308 23.5194 12.3354C23.9172 11.9 24.5103 11.6839 25.2955 11.6839C25.9435 11.6839 26.4578 11.8417 26.8384 12.1571C27.219 12.4725 27.4076 12.8977 27.4076 13.4326C27.4076 14.0086 27.1984 14.4441 26.7836 14.7355C26.5881 14.8795 26.307 14.9858 25.947 15.0578C26.4064 15.1058 26.7699 15.2327 27.0442 15.4418C27.4419 15.7504 27.6408 16.1996 27.6408 16.7893C27.6408 17.3893 27.4247 17.8659 26.9893 18.2157C26.5538 18.5654 25.9675 18.7437 25.2235 18.7437C24.3252 18.7437 23.66 18.5003 23.2246 18.0134C23.0565 17.8248 22.9057 17.5334 22.7685 17.1493L23.516 16.9608C23.636 17.3516 23.8177 17.6362 24.0612 17.8077C24.3629 18.0202 24.7469 18.13 25.2098 18.13C25.7275 18.13 26.1355 18.0065 26.4407 17.7562C26.7459 17.4991 26.9001 17.163 26.9001 16.7413ZM33.5622 23.3588C32.3895 22.7142 31.1312 22.2479 29.842 21.9084C29.9551 21.4695 30.0546 21.0272 30.1437 20.5849H28.9985C28.9231 20.9415 28.8408 21.2947 28.7482 21.6478C27.1607 21.3015 25.5321 21.1335 23.9103 21.1027V20.5849H22.7891V21.1027C21.1673 21.1335 19.5421 21.2981 17.958 21.6513C17.8654 21.2981 17.7797 20.9415 17.7043 20.5849H16.5591C16.6483 21.0307 16.7477 21.473 16.8608 21.9118C15.5716 22.2547 14.3099 22.721 13.1372 23.3622C12.4789 22.5084 11.9303 21.5724 11.5052 20.5849H10.2948C10.8846 22.0867 11.7349 23.4891 12.8012 24.7028C14.5807 26.7429 16.9671 28.2516 19.573 28.975C20.6496 29.2802 21.7673 29.431 22.8817 29.4928H23.8143C24.668 29.4448 25.5218 29.3556 26.355 29.167C28.4088 28.7213 30.3563 27.799 32.009 26.496C33.6205 25.2274 34.9542 23.5988 35.8766 21.761C36.072 21.377 36.2469 20.9861 36.4012 20.5883H35.1874C34.7691 21.5724 34.2205 22.5084 33.5622 23.3588ZM13.8847 24.2331C14.9305 23.6948 16.0414 23.273 17.1831 22.9885C17.7763 24.7851 18.6163 26.5543 19.9604 27.9155C17.6392 27.3018 15.5099 25.9955 13.8847 24.2331ZM22.7925 28.3236C21.9765 28.1521 21.2667 27.6618 20.6976 27.0686C19.5352 25.8583 18.8186 24.2982 18.2735 22.7279C19.7581 22.4056 21.2736 22.2513 22.7925 22.2273V28.3236ZM23.9103 28.3236V22.2239C24.7332 22.2307 25.5492 22.3061 26.3653 22.3816C27.0544 22.4844 27.7505 22.5633 28.4328 22.7279C27.9631 24.0685 27.3802 25.3954 26.4921 26.5098C25.8338 27.3464 24.9766 28.0973 23.9103 28.3236ZM26.739 27.919C28.0865 26.5578 28.9231 24.7851 29.5197 22.985C30.658 23.2799 31.7758 23.6845 32.8147 24.2331C31.1895 25.9989 29.0568 27.2984 26.739 27.919ZM45.2404 16.3744C45.2404 17.0945 45.0244 17.6636 44.589 18.0854C44.1535 18.514 43.5706 18.7265 42.8334 18.7265C42.1306 18.7265 41.5648 18.5243 41.1294 18.1197C40.9374 17.9311 40.7522 17.6499 40.5671 17.2796L41.2974 17.067C41.3762 17.2865 41.4688 17.4613 41.582 17.5848C41.8974 17.9345 42.3191 18.1094 42.8472 18.1094C43.3478 18.1094 43.7489 17.9551 44.0609 17.6465C44.3627 17.3311 44.517 16.9196 44.517 16.4087C44.517 15.915 44.373 15.5241 44.0884 15.2327C43.8038 14.9344 43.4266 14.7869 42.9569 14.7869C42.5009 14.7869 42.11 14.9104 41.7877 15.1607C41.5991 15.3081 41.462 15.4864 41.3762 15.6956L40.7076 15.6338C40.7659 15.3493 40.8105 15.0407 40.8414 14.7149L41.0368 12.6988C41.0539 12.4383 41.0642 12.26 41.0642 12.164C41.0642 12.0577 41.0574 11.9274 41.0471 11.7799C41.2802 11.8108 41.5923 11.8245 41.9934 11.8245H43.8312C44.2118 11.8245 44.5581 11.8005 44.8735 11.7525V12.5103C44.5718 12.4623 44.2221 12.4383 43.8312 12.4383H41.7363L41.5477 14.4098C41.5374 14.5161 41.5134 14.6498 41.4757 14.8109C41.9043 14.3995 42.4254 14.1972 43.0357 14.1972C43.6906 14.1972 44.2255 14.3995 44.6404 14.8041C45.0416 15.1881 45.2404 15.7093 45.2404 16.3744ZM32.9553 16.875C33.2707 16.875 33.5827 16.8956 33.8913 16.9368V16.1961C33.593 16.2373 33.2844 16.2579 32.9656 16.2579H32.6261V13.3332C32.6261 12.7503 32.6433 12.2497 32.681 11.8279H32.0124C31.8169 12.1262 31.5941 12.428 31.3438 12.7366L29.0877 15.555L28.5082 16.2407V16.9093C28.7688 16.8853 29.122 16.875 29.5711 16.875H31.9541V17.6431C31.9541 18.0065 31.9301 18.3254 31.8821 18.6065H32.6947C32.6467 18.3151 32.6227 17.9928 32.6227 17.6431V16.875H32.9553ZM31.9644 14.0052V16.2716H29.2968L31.3472 13.6863C31.6249 13.3297 31.8478 13.0314 32.0158 12.7948C31.9815 13.1549 31.9644 13.556 31.9644 14.0052ZM38.8733 15.4384C38.599 15.2292 38.2938 15.1024 37.9544 15.0544C38.3521 14.9755 38.6675 14.7938 38.9007 14.5024C39.1339 14.2178 39.247 13.868 39.247 13.4497C39.247 12.9046 39.0516 12.4725 38.6573 12.1571C38.2664 11.8417 37.7281 11.6839 37.0423 11.6839C36.3703 11.6839 35.8354 11.8451 35.4377 12.164C35.0434 12.4794 34.8479 12.908 34.8479 13.4463C34.8479 13.8612 34.9679 14.2178 35.2045 14.5092C35.4377 14.8007 35.7497 14.9824 36.1406 15.0544C35.8423 15.1024 35.5748 15.2018 35.3382 15.3595C34.8102 15.7024 34.5428 16.1961 34.5428 16.8407C34.5428 17.4545 34.7588 17.9242 35.1942 18.2568C35.6331 18.5825 36.2606 18.7471 37.0766 18.7471C37.8618 18.7471 38.4687 18.5791 38.8973 18.2465C39.3259 17.9208 39.5384 17.4511 39.5384 16.8373C39.5419 16.2339 39.319 15.7676 38.8733 15.4384ZM35.9486 14.4406C35.6811 14.2143 35.5474 13.9023 35.5474 13.5046C35.5474 13.1343 35.6846 12.8394 35.9588 12.6131C36.2331 12.3937 36.5966 12.284 37.0458 12.284C37.5018 12.284 37.8687 12.3937 38.143 12.6131C38.4172 12.8326 38.5544 13.1309 38.5544 13.5046C38.5544 13.9023 38.4207 14.2143 38.1532 14.4406C37.8927 14.6669 37.5258 14.7801 37.056 14.7801C36.5863 14.7801 36.216 14.6669 35.9486 14.4406ZM38.4721 17.6774C38.1635 17.9859 37.6835 18.1402 37.0355 18.1402C36.4834 18.1402 36.0514 18.0202 35.7428 17.7836C35.4343 17.5471 35.28 17.2145 35.28 16.7927C35.28 16.3573 35.4377 16.0179 35.7531 15.7676C36.0686 15.5173 36.5006 15.3938 37.0458 15.3938C37.5944 15.3938 38.0229 15.5173 38.3384 15.7676C38.6538 16.0179 38.8116 16.3607 38.8116 16.7927C38.8116 17.1768 38.6984 17.4682 38.4721 17.6774Z" fill="white"/>
</svg>
