<svg width="958" height="218" viewBox="0 0 958 218" fill="none" xmlns="http://www.w3.org/2000/svg">
<path d="M405.383 76.8833L421.543 77.1234C421.418 82.131 421.171 87.1356 420.802 92.131C430.401 92.2753 440 92.3496 449.6 92.3539C453.614 105.217 458.777 121.114 463.277 133.565C468.081 121.945 472.649 104.77 476.298 92.2869C481.689 92.1973 487.197 92.3514 492.597 92.4435C484.949 117.493 475.369 143.337 466.762 168.112C462.562 180.202 451.363 188.443 438.667 184.087C436.697 183.411 437.407 172.583 437.454 170.889C441.582 171.375 443.515 171.295 447.631 171.119C451.978 167.346 456.924 160.455 454.99 154.529C449.955 139.102 444.236 123.506 438.194 108.425C436.439 104.044 435.722 99.6538 433.754 95.4432L433.001 95.8816C432.389 98.2544 432.801 101.649 432.962 104.179C429.871 104.589 424.247 104.499 420.944 104.527C421.623 118.531 420.853 132.796 421.577 146.925C425.308 147.097 429.247 146.946 432.994 146.875C433.049 151.582 432.886 155.666 432.643 160.372C425.017 161.738 420.727 161.852 413.262 160.301C401.503 148.177 405.275 121.014 405.218 104.488C401.744 104.687 397.499 104.628 393.957 104.665L394.206 92.2556L405.363 92.2274C405.178 87.458 405.356 81.7252 405.383 76.8833Z" fill="white"/>
<path d="M765.223 91.9834C783.58 90.0423 794.03 96.0651 798.203 115.106C803.229 138.041 792.175 167.158 763.828 160.77C762.342 160.435 757.569 159.629 756.142 159.913L755.896 161.479L756.105 183.74L741.51 183.95C741.048 173.413 741.381 160.647 741.366 149.936C741.271 130.712 741.297 111.486 741.441 92.2617C749.393 92.3876 757.3 92.6637 765.223 91.9834ZM783.459 127.571C784.022 117.037 778.971 102.51 766.053 104.583C751.971 110.55 756.937 115.031 756.036 128.278C755.089 142.207 758.633 150.081 774.289 147.106C780.52 141.371 783.007 136.022 783.459 127.571Z" fill="white"/>
<path d="M634.205 91.7522C639.897 91.2953 648.893 91.2889 653.663 94.2805C679.897 110.736 675.981 151.894 645.855 161.168C601.435 168.331 595.408 98.0008 634.205 91.7522ZM644.507 104.902C639.558 104.184 635.9 103.531 631.713 106.856C622.601 114.092 622.248 133.191 628.944 141.987C635.516 150.618 644.063 150.193 650.218 141.905L650.509 141.505C650.799 141.11 651.073 140.694 651.329 140.259C651.585 139.824 651.825 139.372 652.049 138.903C652.943 137.026 653.579 134.894 653.987 132.655C654.191 131.536 654.338 130.391 654.431 129.238C654.688 126.066 654.541 122.837 654.067 119.943C654.024 119.679 653.979 119.419 653.93 119.161C653.878 118.883 653.822 118.608 653.763 118.337C653.606 117.606 653.426 116.904 653.225 116.238L653.095 115.747C651.708 110.751 648.781 107.923 644.507 104.902Z" fill="white"/>
<path d="M528.18 69.7227C533.764 69.7368 538.587 69.797 544.169 70.1623C544.42 82.0689 544.265 94.4686 544.281 106.413L582.738 106.432C582.595 94.3218 582.602 82.2107 582.759 70.1009L598.35 69.9701C598.512 76.0696 599.093 158.232 598.009 160.173L595.848 160.344C591.477 160.293 587.054 160.332 582.677 160.339L582.711 121.117L544.157 121.051C544.12 134.146 544.292 147.24 544.671 160.329L528.148 160.364C527.663 131.447 527.448 98.5478 528.18 69.7227Z" fill="white"/>
<path d="M897.478 91.8557C903.551 91.1207 912.43 91.2834 917.81 94.3371C928.715 100.531 928.144 111.992 928.285 122.781C928.451 134.951 927.641 148.662 930.932 160.413C926.081 160.378 918.294 159.253 914.125 159.589C894.856 161.141 885.97 166.404 874.661 146.565C872.78 139.395 873.967 131.559 879.106 126.031C887.696 116.793 901.831 116.707 913.492 116.116C912.915 113.116 912.105 110.753 911.172 107.871C910.11 106.81 907.899 105.25 906.609 104.282C894.973 103.495 893.149 104.635 889.409 115.059C884.595 114.997 879.778 114.833 874.968 114.568C877.235 101.05 883.06 93.1324 897.478 91.8557ZM907.948 129.322C903.122 129.672 892.904 130.185 890.202 134.114C886.604 139.339 890.595 145.38 895.938 147.041C902.121 147.466 905.308 146.887 910.098 142.643C910.902 141.924 911.676 141.175 912.419 140.401C912.837 136.333 913.118 133.483 913.094 129.389L907.948 129.322Z" fill="white"/>
<path d="M323.11 69.6212C332.074 69.1619 341.001 68.573 348.744 74.0289C358.855 81.1526 362.387 90.8338 364.582 102.225C359.02 102.339 353.455 102.301 347.895 102.109C346.712 94.6238 345.097 91.6499 341.129 85.4117C328.628 80.8277 316.292 83.6923 311.645 96.6735C304.102 117.743 309.349 158.38 341.069 144.914L343.923 140.911C346.509 136.192 347.281 133.111 348.391 128.001C353.335 128.509 359.394 128.352 364.446 128.355C364.065 130.445 363.643 132.539 363.191 134.635C355.823 168.801 308.954 171.142 297.137 138.946C295.708 135.053 294.817 131.037 294.448 126.773C292.31 102.084 294.586 76.4335 323.11 69.6212Z" fill="white"/>
<path d="M698.402 91.8153C706.261 91.0876 717.038 91.254 723.071 96.651C729.653 102.541 729.868 107.524 730.682 115.445C725.672 115.506 720.662 115.492 715.653 115.402C714.414 110.307 713.026 108.487 709.893 104.498C706.651 104.321 698.815 103.776 696.681 106.006C693.797 109.344 693.836 113.773 698.147 115.791C709.614 121.157 729.37 121.142 731.002 137.4C732.619 153.515 720.558 160.412 706.234 161.631C688.842 161.525 679.404 153.615 675.426 136.912C680.596 136.636 685.771 136.512 690.948 136.538C692.792 139.898 694.7 143.222 696.672 146.509C707.445 149.594 710.939 148.131 718.111 140.298C706.543 131.111 697.749 132.831 686.083 125.269C682.679 122.871 679.436 118.908 678.954 114.646C677.562 102.349 687.189 93.5156 698.402 91.8153Z" fill="white"/>
<path d="M840.695 76.9717L856.002 77.0632L855.789 92.2403L868.741 92.336C868.901 96.7345 868.752 100.251 868.533 104.655C864.469 104.479 859.939 104.518 855.834 104.462L856.109 147.34C860.337 147.11 864.718 147.012 868.963 146.862C868.939 151.784 868.885 155.369 868.373 160.246C867.025 161.349 858.531 161.402 856.448 161.459C834.547 162.065 840.494 119.01 840.617 104.486C836.856 104.567 832.857 104.496 829.074 104.492L829.234 92.2206L840.759 92.239C840.519 87.6336 840.691 81.6766 840.695 76.9717Z" fill="white"/>
<path d="M941.607 66.0122C944.831 66.3573 953.631 66.2185 957.456 66.3297C958.175 97.0234 956.59 129.74 957.714 160.012C955.117 160.639 944.899 160.367 941.644 160.348C941.067 129.545 941.448 96.911 941.607 66.0122Z" fill="white"/>
<path d="M373.418 92.243L389.469 92.2031C390.053 113.47 390.221 139.104 389.603 160.376C384.222 160.27 378.839 160.28 373.458 160.407C373.956 138.783 373.696 113.946 373.418 92.243Z" fill="white"/>
<path d="M808.836 92.2626L823.591 92.1846C823.647 114.146 823.138 138.841 823.933 160.546C819.039 160.306 813.847 160.372 808.923 160.357C808.57 137.966 808.858 114.736 808.836 92.2626Z" fill="white"/>
<path d="M376.651 69.6282C382.189 69.2855 386.783 68.852 390.149 74.2649C392.994 78.8378 389.588 83.2357 385.71 85.4291C373.486 88.7954 369.176 78.8759 376.651 69.6282Z" fill="white"/>
<path d="M810.718 69.6701C814.321 69.3544 818.13 69.4981 821.759 69.5466C825.84 76.3019 826.804 80.5106 820.423 85.915C808.143 88.863 805.821 79.3138 810.718 69.6701Z" fill="white"/>
<path d="M94.5731 0.202851C113.239 -0.991435 134.165 3.09797 150.556 12.2018C174.82 25.5149 192.755 47.9763 200.369 74.5853C175.079 74.6475 145.339 83.1658 121.829 91.9584C115.911 94.1715 110.432 97.2809 104.145 99.4524C103.804 94.4309 104.1 87.3845 104.202 82.2154L131.549 82.3554L131.553 53.1645C123.088 52.8725 112.692 52.8765 104.209 53.1365C103.595 45.5388 103.98 33.1117 103.997 25.2712L74.8053 25.2974L74.7814 52.9593L62.5419 53.0208L47.1056 53.0644L47.1432 82.2865L74.8043 82.2915C74.6238 91.165 74.7984 100.737 74.9916 109.617L83.7782 109.41C78.1142 113.455 71.1679 117.064 65.2472 120.981C47.627 132.639 32.5868 145.281 20.5185 162.739C12.7884 154.151 5.65157 137.724 2.89007 126.474C-12.0384 65.6604 32.7138 4.09239 94.5731 0.202851Z" fill="white"/>
<path d="M94.2775 109.242C97.1494 106.392 105.323 103.315 109.338 101.432C127.369 92.9757 145.376 87.8308 164.665 83.2439C187.24 77.8759 229.357 72.9598 247.171 90.9584C251.485 95.4023 253.857 101.378 253.764 107.571C253.628 122.803 240.395 138.77 230 148.899C229.688 149.204 229.373 149.506 229.055 149.806C227.779 149.335 227.346 151.364 225.56 152.022L225.238 151.551L226.326 150.466C226.296 149.62 226.863 148.555 227.213 147.728C232.546 140.249 239.047 129.736 237.432 120.122C236.54 114.808 232.53 109.007 228.036 106.136C211.516 95.5825 186.36 97.8515 168.082 101.248C158.133 103.122 148.316 105.64 138.692 108.786C106.003 119.789 68.2997 139.976 47.3973 168.394C32.7634 188.288 38.3183 208.607 63.6869 213.229C64.0005 213.285 67.7483 214.102 67.9146 214.179C69.4307 215.517 70.8244 214.968 72.2956 216.119C70.7832 217.575 64.8877 217.041 62.5383 217.245C47.7454 216.547 28.392 214.521 19.1292 200.976C15.677 195.928 14.3155 188.252 15.9989 182.239C23.166 156.641 47.2054 137.931 68.2222 123.46C73.5553 119.854 80.3703 116.769 85.4832 113.495L85.4948 112.811C84.8849 111.573 84.2212 110.527 84.3599 109.157C84.4945 108.371 85.0951 107.685 85.575 107.006C87.7519 108.978 89.551 107.549 92.3557 108.156C92.8063 107.977 92.5921 108.11 92.8814 107.498C93.3337 108.138 93.6919 108.722 94.2775 109.242Z" fill="white"/>
<path d="M85.5775 107.006C87.7543 108.979 89.5534 107.549 92.3582 108.157C92.8088 107.978 92.5946 108.111 92.8839 107.499C93.3362 108.138 93.6943 108.723 94.28 109.242C94.2607 110.825 93.3398 112.075 92.3877 113.308C90.7017 114.858 90.4317 115.156 88.3273 116.085C86.5961 114.402 88.6502 114.187 85.4973 112.811C84.8874 111.573 84.2236 110.528 84.3623 109.158C84.497 108.371 85.0976 107.686 85.5775 107.006Z" fill="white"/>
<path d="M85.5745 107.006C87.7514 108.979 89.5505 107.549 92.3552 108.157C92.3496 108.891 92.5228 109.499 91.9196 109.995C90.2804 111.34 87.918 111.999 85.9992 110.894C85.225 109.657 85.4771 109.618 84.3594 109.158C84.4941 108.371 85.0947 107.686 85.5745 107.006Z" fill="white"/>
<path d="M88.3281 116.085C90.4325 115.156 90.7025 114.858 92.3886 113.307C93.0064 116.131 93.207 118.023 90.5768 119.847C89.3191 118.636 88.5652 117.84 88.3281 116.085Z" fill="white"/>
<path d="M85.4921 112.811C88.645 114.187 86.5908 114.401 88.3221 116.084C88.5592 117.84 89.3131 118.636 90.5708 119.847C89.5515 120.813 89.3929 121.111 88.1219 120.736C86.1682 118.941 86.7787 115.793 85.4805 113.495L85.4921 112.811Z" fill="white"/>
<path d="M113.067 203.341C90.4249 206.053 66.7842 200.296 47.3899 188.38C46.2885 187.703 44.214 186.344 44.1289 185.079C44.2672 179.213 50.7177 169.852 54.3186 165.686C83.6777 131.722 136.078 108.783 179.813 103.293C181.064 104.553 181.682 104.256 182.605 105.108C147.744 112.009 102.809 133.686 81.2757 163.06C74.4821 172.328 71.251 187.411 82.8434 194.684C90.9855 199.792 98.3462 200.541 107.745 201.156C114.623 200.996 120.615 200.861 127.445 199.381C127.884 199.9 128.491 200.457 128.548 201.095C124.755 201.809 116.816 203.223 113.067 203.341Z" fill="white"/>
<path d="M107.745 201.156C114.622 200.996 120.615 200.861 127.445 199.381C127.884 199.9 128.49 200.457 128.547 201.095C124.755 201.809 116.816 203.223 113.066 203.341L108.024 203.182C109.729 203.115 114.177 203.08 115.516 202.215C114.541 201.296 106.834 201.54 104.947 201.508C105.428 201.159 107.013 201.196 107.745 201.156Z" fill="white"/>
<path d="M95.3898 59.8338C95.4803 58.1963 95.4896 55.5499 96.0526 54.1043C99.1859 51.7612 107.245 57.5808 110.535 58.9379C114.113 60.4131 126.445 59.8475 128.168 62.6409C127.856 63.5694 127.341 64.0994 126.377 64.4709C120.562 66.7126 108.636 71.5549 102.611 70.1136L101.88 70.5426C101.076 70.096 100.593 69.8998 100.032 69.1472C98.6132 69.0055 98.4789 68.7462 97.4563 69.3195L97.3043 69.7588C98.9009 71.3158 99.3538 73.7131 98.1523 75.6512C98.136 77.0888 99.0775 78.4776 100.548 78.6478C99.1157 78.8617 97.4889 78.991 96.2365 79.6718C96.0037 79.703 95.8394 79.7339 95.6296 79.6006C93.5076 78.2494 89.8934 78.4081 87.2487 78.3239C84.6624 78.3259 83.1024 78.0469 80.9981 79.4912C78.0108 78.88 77.4571 76.7563 76.5263 74.174C76.7667 72.6998 76.9812 71.7132 77.3696 70.2706L76.898 69.7505C71.2587 71.8924 58.957 67.1074 53.2478 64.9488C52.3046 64.5919 51.0895 63.868 50.5977 62.9186C51.1204 59.6948 63.0111 60.3406 66.011 59.5083C72.4419 57.7235 75.9603 53.682 82.9345 53.543C83.2325 55.8429 83.437 62.604 86.5147 62.5188C88.3863 61.4367 88.4961 58.7494 89.6733 58.9689C89.9443 60.4474 89.9909 61.758 90.943 62.7928C92.502 62.8045 93.5498 61.7446 94.6795 60.6359C94.9342 60.3852 95.1717 60.1172 95.3898 59.8338Z" fill="white"/>
<path d="M77.3707 70.2708C79.0072 68.3948 79.3354 68.0886 81.7041 67.2715C82.1351 68.0636 82.2698 68.2203 82.1298 69.0952C81.5937 69.6492 81.4451 69.7975 80.8199 70.2425L80.8083 70.4899C83.8142 69.587 85.4274 70.0742 88.0326 69.5571C88.1194 71.3805 88.6059 76.4751 87.8074 77.7501L87.3186 77.9976L87.2497 78.3241C84.6635 78.3261 83.1035 78.0471 80.9991 79.4914C78.0118 78.8801 77.4582 76.7565 76.5273 74.1742C76.7678 72.7 76.9823 71.7134 77.3707 70.2708Z" fill="white"/>
<path d="M77.3707 70.2708C79.0072 68.3948 79.3354 68.0886 81.7041 67.2715C82.1351 68.0636 82.2698 68.2203 82.1298 69.0952C81.5937 69.6492 81.4451 69.7975 80.8199 70.2425L80.8083 70.4899C80.3926 71.8228 79.9626 73.151 79.518 74.4742C82.5432 77.0019 83.2991 77.4911 87.3186 77.9976L87.2497 78.3241C84.6635 78.3261 83.1035 78.0471 80.9991 79.4914C78.0118 78.8801 77.4582 76.7565 76.5273 74.1742C76.7678 72.7 76.9823 71.7134 77.3707 70.2708Z" fill="white"/>
<path d="M91.5765 69.7485C92.8768 69.8436 96.2323 70.1998 97.3064 69.7588C98.903 71.3158 99.3559 73.7132 98.1544 75.6513C94.6776 78.2096 94.073 78.2701 89.957 78.1108L89.9903 73.6414C90.5842 71.6517 89.4123 70.3817 91.5765 69.7485Z" fill="white"/>
<path d="M89.4473 67.0644L89.7735 65.7708C93.5549 63.9201 100.39 65.4326 102.379 69.6067C102.459 69.775 102.537 69.9436 102.615 70.1129L101.884 70.5418C101.08 70.0952 100.597 69.899 100.036 69.1465C98.617 69.0048 98.4826 68.7454 97.46 69.3187L97.3081 69.758C96.2339 70.199 92.8785 69.8428 91.5782 69.7477C89.414 70.3809 90.5859 71.6509 89.992 73.6405C89.9059 71.1265 89.831 69.5402 89.4473 67.0644Z" fill="white"/>
<path d="M93.6581 66.7382L93.968 66.1899C94.979 66.0159 96.0332 66.7276 97.0212 67.2264C98.5376 67.6677 99.0507 67.8336 100.032 69.1476C98.6131 69.0059 98.4787 68.7465 97.4561 69.3198L97.3042 69.7591C96.23 70.2001 92.8746 69.8439 91.5743 69.7488C90.9272 69.4419 91.1916 69.6577 90.7676 69.0594L91.0961 68.5157C92.1982 67.9766 92.6445 67.8047 93.4918 66.9158L93.6581 66.7382Z" fill="white"/>
<path d="M76.8984 69.751C78.7042 65.936 81.8621 64.7255 86.1423 65.2855C87.2437 65.4295 87.834 65.9044 88.4419 66.8422L87.8646 67.8747L87.118 68.0413C86.2873 67.5116 85.7875 67.1434 85.0216 66.5429C84.1627 66.7111 82.4527 66.9984 81.7035 67.2718C79.3347 68.0889 79.0065 68.3952 77.37 70.2711L76.8984 69.751Z" fill="white"/>
<path d="M155.969 133.218C158.437 133.35 161.491 133.248 164.005 133.227C164.263 139.144 164.145 145.431 164.126 151.382C170.335 151.415 176.543 151.414 182.751 151.379L182.664 133.215C184.925 133.378 188.386 133.3 190.74 133.322C190.816 137.904 191.206 175.862 190.503 177.741L189.812 177.996L182.724 177.955C182.778 171.474 182.757 164.992 182.66 158.511C176.905 158.712 169.892 158.562 164.117 158.482C164.211 164.967 164.178 171.452 164.019 177.935C161.212 178.065 158.736 177.934 155.942 177.805C155.574 166.576 156.065 155.094 155.865 143.835C155.804 140.396 155.782 136.649 155.969 133.218Z" fill="white"/>
<path d="M129.852 132.829C133.606 132.369 138.473 132.786 142.039 134.101C145.532 135.389 151.93 145.125 150.485 148.66C149.278 149.799 144.795 149.407 142.967 149.372C142.408 147.217 141.468 143.784 140.024 142.382C132.041 134.628 123.372 143.548 123.384 152.367C123.395 160.37 123.188 164.861 128.416 170.791C131.883 172.066 134.992 171.657 138.508 171.184L140.429 168.041C141.461 166.023 142.146 164.322 142.659 162.114C145.344 161.997 148.418 162.073 151.134 162.08C149.414 169.134 147.091 175.906 139.077 177.729C123.897 180.915 115.719 171.881 115.268 157.475C114.934 146.789 117.71 135.493 129.852 132.829Z" fill="white"/>
<path d="M87.2471 78.3241C89.8919 78.4083 93.506 78.2496 95.628 79.6008C95.8379 79.7341 96.0022 79.7032 96.235 79.672C98.4976 80.8632 98.9306 81.5442 99.5944 84.0417C99.6635 85.6868 99.8355 87.0589 98.777 88.4041C98.1654 89.1812 96.0171 89.8999 96.1774 90.531C96.7394 92.7452 98.7135 94.7092 97.2246 97.066C96.4478 98.2958 94.5396 98.1927 93.9886 99.3313C95.1475 100.571 95.8023 100.41 95.6626 101.949C95.5629 103.05 95.369 104.204 95.1997 105.296C94.4209 105.969 93.4941 106.694 92.8789 107.498C92.5895 108.11 92.8037 107.978 92.3531 108.157C89.5484 107.549 87.7493 108.979 85.5724 107.006C81.641 104.409 84.6775 101.621 83.6998 99.0879C82.5173 96.0244 79.9127 94.7903 83.2346 90.5281C82.4039 90.0073 80.8735 89.2524 79.96 88.7629C78.8828 86.0725 77.9058 83.1085 81.0191 81.4272C81.7727 81.1458 82.0281 80.9968 82.7178 80.5792C82.3763 79.8143 82.0018 79.8964 80.9965 79.4914C83.1009 78.0471 84.6609 78.3261 87.2471 78.3241Z" fill="white"/>
<path d="M87.2471 78.3241C89.8919 78.4083 93.506 78.2496 95.628 79.6008C95.8379 79.7341 96.0022 79.7032 96.235 79.672C98.4976 80.8632 98.9306 81.5442 99.5944 84.0417C98.779 84.617 98.1145 85.2442 97.1631 85.2994L96.7002 84.896C95.8904 86.8121 95.8372 88.2102 93.8326 88.9777L93.407 89.542C91.1267 89.5706 85.9884 89.5201 83.9 89.8337C83.7128 90.1662 83.5458 90.3102 83.2346 90.5281C82.4039 90.0073 80.8735 89.2524 79.96 88.7629C78.8828 86.0725 77.9058 83.1085 81.0191 81.4272C81.7727 81.1458 82.0281 80.9968 82.7178 80.5792C82.3763 79.8143 82.0018 79.8964 80.9965 79.4914C83.1009 78.0471 84.6609 78.3261 87.2471 78.3241Z" fill="white"/>
<path d="M88.3234 80.8774C89.5432 80.8584 91.4085 80.6775 92.4248 81.2083L92.6253 81.4457C94.9275 82.3908 95.7376 82.4464 96.7053 84.8959C95.8956 86.8121 95.8424 88.2101 93.8378 88.9776L93.5834 88.9849C92.5544 89.3527 88.6982 89.6537 87.9609 88.816C88.4012 87.8453 88.2915 82.3685 88.3234 80.8774Z" fill="white"/>
<path d="M88.3234 80.8774C89.5432 80.8584 91.4085 80.6775 92.4248 81.2083L92.6253 81.4457L90.1129 81.3699C89.4564 82.2073 89.4521 87.7396 89.9775 88.7352C91.4597 89.0415 92.0543 89.0116 93.5834 88.9849C92.5544 89.3527 88.6982 89.6537 87.9609 88.816C88.4012 87.8453 88.2915 82.3685 88.3234 80.8774Z" fill="white"/>
<path d="M82.666 84.8991C83.0744 83.5799 82.9487 82.6235 83.5569 81.2068C84.7172 80.568 86.6972 80.8906 88.3224 80.8783C88.2904 82.3694 88.4002 87.8462 87.9599 88.8169C85.209 88.1408 82.9573 88.1904 82.666 84.8991Z" fill="white"/>
<path d="M87.6687 97.7039C86.9351 97.4202 85.3575 97.3374 84.8996 96.7797C83.5448 95.1293 83.1577 93.2836 84.9834 91.7948C86.1187 90.869 86.8932 91.2185 88.2264 91.2993C89.7615 91.2328 90.8752 91.2361 92.4099 91.3089C95.8544 92.8101 96.1198 96.3211 92.4684 97.8961C92.1169 98.0481 90.0824 97.9643 89.5995 97.95C88.6847 98.0394 88.4855 98.0976 87.6687 97.7039Z" fill="white"/>
<path d="M87.6687 97.7039C86.9351 97.4202 85.3575 97.3374 84.8996 96.7797C83.5448 95.1293 83.1577 93.2836 84.9834 91.7948C86.1187 90.869 86.8932 91.2185 88.2264 91.2993C88.2972 93.1795 88.7645 96.4189 87.6687 97.7039Z" fill="white"/>
<path d="M88.2296 91.2985C89.7646 91.232 90.8783 91.2353 92.413 91.3082C91.4876 91.398 90.4806 91.2792 90.0124 91.9011C89.1308 93.0717 89.5318 96.4235 89.6027 97.9492C88.6878 98.0386 88.4886 98.0968 87.6719 97.7031C88.7676 96.4181 88.3004 93.1788 88.2296 91.2985Z" fill="white"/>
<path d="M87.2491 105.967C86.861 105.768 86.5969 105.511 86.2551 105.233C85.6585 103.517 85.2245 102.201 86.0772 100.508C86.4905 99.6875 87.5507 99.9881 88.3511 100.01L89.3947 99.9951C90.4349 100.102 92.3314 100.169 92.8392 101.09C94.8881 104.804 91.9214 105.929 89.0492 105.789L87.2491 105.967Z" fill="white"/>
<path d="M89.3904 99.9951C90.4306 100.102 92.3272 100.169 92.835 101.09C94.8838 104.804 91.9172 105.929 89.0449 105.789C89.7217 103.257 89.6681 102.542 89.3904 99.9951Z" fill="white"/>
<path d="M88.3501 100.01L89.3937 99.9951C89.6713 102.542 89.7249 103.257 89.0481 105.789L87.248 105.967C88.1682 104.755 88.1975 101.659 88.3501 100.01Z" fill="white"/>
<path d="M67.9154 214.179C72.7733 214.333 77.4835 214.721 82.3627 214.718C86.5126 214.715 91.0752 214.278 95.1463 214.449C88.03 215.869 69.5619 218.911 62.5391 217.245C64.8885 217.041 70.784 217.576 72.2964 216.119C70.8252 214.968 69.4315 215.517 67.9154 214.179Z" fill="white"/>
<path d="M210.168 165.433C212.375 162.753 216.011 159.605 218.562 157.083C221.736 153.945 224.269 151.072 227.211 147.729C226.861 148.556 226.295 149.621 226.325 150.466L225.236 151.552L225.558 152.022C227.345 151.365 227.777 149.335 229.053 149.807C226.583 153.655 214.366 162.65 210.168 165.433Z" fill="white"/>
<path d="M97.3047 69.7594L97.4567 69.3201C98.4792 68.7467 98.6136 69.0061 100.032 69.1478C100.594 69.9004 101.076 70.0966 101.881 70.5432C102.179 73.5817 102.546 76.1294 100.549 78.6484C99.0778 78.4782 98.1364 77.0894 98.1527 75.6518C99.3542 73.7137 98.9013 71.3164 97.3047 69.7594Z" fill="white"/>
<path d="M179.812 103.293C183.463 102.783 187.318 102.577 191.003 102.458C192.165 102.523 193.707 102.435 194.53 103.135L194.611 103.498C190.612 104.059 186.61 104.595 182.605 105.108C181.682 104.256 181.064 104.553 179.812 103.293Z" fill="white"/>
<path d="M88.4482 52.9427C89.3361 52.5679 90.357 52.7029 91.1172 53.2955C91.8771 53.8882 92.2572 54.8456 92.1102 55.798C91.9636 56.7504 91.3128 57.5489 90.4096 57.8851C89.0541 58.3895 87.544 57.7181 87.0106 56.3736C86.4768 55.0295 87.1156 53.5051 88.4482 52.9427Z" fill="white"/>
<path d="M127.445 199.38L139.011 196.945C135.988 198.518 131.957 200.485 128.548 201.095C128.491 200.457 127.884 199.9 127.445 199.38Z" fill="white"/>
<path d="M191.008 102.459C192.552 102.192 198.132 101.946 199.181 103.055C198.025 103.553 195.908 103.496 194.616 103.498L194.535 103.135C193.712 102.435 192.17 102.523 191.008 102.459Z" fill="white"/>
</svg>
