<svg width="773" height="263" viewBox="0 0 773 263" fill="none" xmlns="http://www.w3.org/2000/svg">
<path d="M366.615 157.174C374.881 157.367 383.323 159.627 389.698 165.301C406.166 179.969 406.844 213.285 392.828 229.715C386.497 237.132 377.232 240.306 367.801 240.931C344.768 241.086 331.958 225.27 330.819 202.918C329.868 184.244 336.155 164.676 355.799 158.489C359.32 157.383 362.917 157.345 366.615 157.174ZM386.149 186.814C383.6 175.294 374.864 170.159 363.446 170.923C345.123 175.187 343.638 194.904 347.02 210.416C349.63 222.384 358.07 228.219 370.183 227.151C388.03 222.422 389.558 202.187 386.149 186.814Z" fill="white"/>
<path d="M336.745 45.9023C343.653 46.1353 351.568 45.9606 358.554 45.9729C358.116 54.1081 358.42 65.1303 358.409 73.4391C358.351 91.1474 358.393 108.856 358.527 126.564C353.839 126.685 350.175 126.536 345.475 126.277C345.174 107.621 345.427 89.8478 344.872 71.0052C345.207 68.4543 345.391 65.7747 345.612 63.2035C339.817 75.6747 331.68 111.971 329.624 126.47C324.313 126.562 320.771 126.701 315.463 125.981C312.461 111.407 308.824 96.6045 305.569 82.0632C304.228 76.0696 302.092 70.8097 300.829 64.581C298.503 84.099 299.426 106.647 299.399 126.638L286.141 126.443C286.96 100.158 286.451 72.473 286.17 46.0685C293.566 46.0129 300.962 45.9974 308.358 46.0226C310.514 59.9077 318.068 87.0111 321.879 100.716C327.412 87.8158 333.191 60.7268 336.745 45.9023Z" fill="white"/>
<path d="M486.566 158.445C508.008 158.995 543.526 151.574 543.67 182.602C543.766 203.169 530.172 207.994 512.844 208.245L500.443 208.25L500.373 239.087C495.735 239.268 491.391 239.188 486.758 239.113C486.143 231.371 486.539 217.697 486.544 209.484L486.566 158.445ZM528.938 183.382C525.122 168.581 514.141 172.001 501.51 171.6C501.189 179.444 501.238 187.534 501.2 195.404C508.403 195.42 519.17 196.328 524.914 191.926C527.468 188.768 527.987 187.352 528.938 183.382Z" fill="white"/>
<path d="M374.938 45.9725C384.07 46.2674 408.023 45.0727 415.616 46.8866C418.843 47.6448 421.82 49.2268 424.257 51.4774C433.912 60.3725 434.222 78.5964 425.202 88.0487C418.352 95.2315 410.262 95.5019 401.12 95.5975L388.777 95.7069C388.649 105.919 388.755 116.437 388.75 126.669L374.906 126.65C374.495 100.986 374.495 71.6043 374.938 45.9725ZM389.389 58.4686C389.346 66.296 389.186 74.6701 389.725 82.4628C397.334 82.4083 406.658 83.16 413.144 79.1932C417.109 73.0288 419.156 65.4573 411.425 61.1132C405.2 57.617 396.356 58.7748 389.389 58.4686Z" fill="white"/>
<path d="M680.391 158.3C683.239 167.592 687.096 176.665 690.468 185.796C696.96 203.365 704.2 221.319 710.115 239.064C705.178 239.272 700.396 239.251 695.464 239.246C693.193 233.176 691.184 226.892 689.132 220.737L682.575 220.571C674.299 220.555 665.685 220.416 657.451 220.806C655.538 224.91 652.781 234.079 651.242 238.802C646.556 239.272 641.448 239.192 636.703 239.224C642.479 221.132 649.608 202.858 655.779 184.856C658.675 176.398 662.507 166.833 664.81 158.3C670.003 158.583 675.202 158.583 680.391 158.3ZM672.67 177.669C669.699 186.561 664.954 198.813 662.902 207.592L673.081 207.485C676.319 207.447 679.824 207.341 683.041 207.394C681.828 203.504 674.69 180.048 672.67 177.669Z" fill="white"/>
<path d="M657.437 46.0665C675.615 45.9468 693.798 45.9543 711.976 46.0884C712.045 50.0285 712.056 53.9692 712.003 57.9094C698.853 58.4197 684.624 58.1696 671.372 58.1498C671.11 65.4793 670.934 70.2091 671.41 77.5033C684.009 77.4493 696.609 77.5022 709.213 77.6631L709.358 90.2941C696.689 90.4635 683.924 90.1258 671.255 90.4998C670.875 98.331 670.939 106.178 671.452 114.001C685.356 114.653 699.697 113.696 713.536 114.534L713.964 125.976C706.777 126.818 698.126 126.592 690.758 126.596L657.26 126.552C656.544 116.366 657.074 98.6286 657.095 87.9703C657.116 75.7154 656.539 57.7902 657.437 46.0665Z" fill="white"/>
<path d="M257.071 158.364C261.079 158.653 267.02 158.508 271.172 158.535C271.069 168.33 270.638 181.479 271.465 191.129C282.951 190.616 290.692 190.579 302.197 191.065C303.214 184.285 302.696 166.133 302.641 158.546C307.332 158.428 311.814 158.541 316.495 158.647C315.629 168.666 317.539 235.816 315.494 239.064L313.492 239.315C310.027 239.374 306.379 239.267 302.9 239.219C302.236 228.1 302.855 214.929 302.529 203.392C292.057 203.296 281.585 203.269 271.113 203.307C271.16 215.319 271.137 227.325 271.045 239.337L257.311 239.171C256.524 212.994 256.918 184.68 257.071 158.364Z" fill="white"/>
<path d="M607.652 44.5824C618.37 43.5009 630.58 45.4747 636.88 55.278C638.819 58.2901 641.427 63.7787 640.711 67.348C638.568 68.9382 630.003 68.2463 626.834 68.1618C625.231 58.6529 617.045 54.8746 608.223 56.5989C599.706 58.2633 598.141 62.3622 599.396 69.8081C609.741 77.1589 623.837 76.6668 634.486 84.4686C645.37 92.4408 645.456 108.285 637.777 118.531C632.327 125.799 624.034 127.227 615.512 128.341C596.628 128.906 585.814 119.594 582.912 101.169C587.299 100.437 592.001 99.9118 596.425 99.3796C596.516 100.102 596.628 100.821 596.762 101.537C599.263 114.569 609.997 117.031 621.523 113.838C623.147 113.389 626.882 110.426 627.593 108.749C633.497 96.1613 619.717 92.67 609.1 90.1309C590.377 85.6521 577.441 70.2051 591.365 51.9486C594.721 47.5409 601.897 45.6254 607.652 44.5824Z" fill="white"/>
<path d="M439.503 157.172C456.895 156.932 467.08 162.302 470.109 180.715L457.045 181.42C454.993 176.269 454.112 174.704 450.296 170.595C442.41 168.906 425.984 169.088 427.919 178.85C429.832 188.521 455.704 189.916 465.055 198.583C469.693 202.964 472.354 209.034 472.439 215.409C472.498 222.072 469.618 228.837 464.884 233.501C458.354 239.935 448.351 240.966 439.653 240.875C423.9 238.086 416.548 233.849 412.541 217.333C412.145 215.719 412.14 215.473 413.022 214.223C415.763 213.229 422.586 212.855 425.829 212.524C428.517 224.765 434.368 229.259 446.439 227.752C452.68 226.972 459.936 221.687 458.995 214.891C457.953 207.41 443.895 204.899 438.156 202.916C420.427 198.743 406.839 183.483 419.765 165.999C424.355 159.796 431.584 157.829 439.503 157.172Z" fill="white"/>
<path d="M490.831 46.0057C495.384 45.847 499.984 45.9432 504.542 45.9881L504.558 59.1348C504.585 70.3157 505.482 101.352 502.533 111.187C501.421 114.992 499.37 118.457 496.57 121.261C486.583 131.142 462.773 130.719 453.011 120.575C446.471 113.825 445.359 102.881 445.381 93.8059C445.424 78.0148 444.777 61.7444 445.391 45.9721L459.327 45.9801C459.728 58.6421 459.076 71.6718 459.391 84.1618C460.267 98.2548 455.207 113.725 474.753 114.969C494.758 116.243 491.007 94.6266 490.954 79.6622L490.831 46.0057Z" fill="white"/>
<path d="M581.096 158.599C600.984 158.46 620.871 158.465 640.759 158.615C640.519 162.692 640.364 166.774 640.3 170.862C633.888 171.401 624.906 171.043 618.125 171.177C617.484 185.155 617.938 202.313 617.938 216.526C617.97 224.06 617.895 231.594 617.724 239.128C613.214 239.229 608.598 239.224 604.077 239.267C603.5 218.011 605.125 191.482 603.479 170.974C598.274 171.54 586.834 171.193 581.55 170.84C581.513 166.534 581.39 162.89 581.096 158.599Z" fill="white"/>
<path d="M720.555 158.989H734.447L734.752 226.865C747.335 227.389 760.095 226.945 772.887 227.48C772.673 231.322 772.519 235.169 772.428 239.016C768.725 239.492 758.482 239.262 754.292 239.257L720.624 239.187C719.919 213.512 720.544 184.888 720.555 158.989Z" fill="white"/>
<path d="M522.817 46.2412C527.3 46.3438 531.788 46.3908 536.276 46.3817C536.453 68.961 536.095 91.6208 536.442 114.183L574.508 114.283C574.583 118.664 574.529 122.044 574.273 126.413C559.931 126.72 536.394 127.126 522.491 126.272C522.17 117.491 522.608 106.196 522.592 97.0881C522.565 80.3187 522.357 62.9668 522.817 46.2412Z" fill="white"/>
<path d="M256.851 46.0011C261.487 45.9744 266.122 45.9878 270.757 46.0417C270.672 49.8745 270.66 53.8531 270.704 57.6918C270.964 80.5499 270.07 103.721 271.06 126.544C266.288 126.659 261.483 126.537 256.708 126.46C256.754 99.7751 256.487 72.6482 256.851 46.0011Z" fill="white"/>
<path d="M557.231 158.514L570.894 158.503L570.899 239.069C566.4 239.267 561.938 239.203 557.434 239.176C556.59 232.331 557.001 217.05 557.028 209.702C557.092 192.77 556.798 175.377 557.231 158.514Z" fill="white"/>
<path d="M92.0481 37.9438C95.7291 38.3836 105.034 38.0748 109.329 38.1641C109.264 41.2001 109.174 44.2763 109.146 47.3091C122.834 49.3738 136.366 58.2676 144.511 69.3718C153.146 81.2181 156.679 96.0301 154.319 110.499C152.639 121.366 146.414 133.73 138.076 141L137.239 139.96C145.761 126.017 149.139 110.744 145.236 94.5948C141.619 80.0681 132.416 67.5553 119.626 59.7736C116.381 57.8021 112.721 55.9816 109.076 54.8858C108.769 81.8453 108.636 108.807 108.686 135.768C108.751 150 109.211 163.78 109.439 177.925C103.941 177.768 98.4426 177.688 92.9428 177.683C93.0453 135.685 92.8688 93.6858 92.4131 51.6896C84.7586 51.6333 78.7123 52.1988 71.3736 54.9301C68.9751 55.8226 66.2551 57.1806 64.0273 57.9818C72.3936 52.0748 82.1418 47.7771 92.3691 46.6328C92.2281 43.7378 92.1211 40.8413 92.0481 37.9438Z" fill="white"/>
<path d="M153.299 179.205C154.274 178.71 155.649 178.77 156.599 179.205C158.949 180.277 158.399 183.832 158.174 185.982C157.241 194.71 153.659 203.108 149.474 210.743C147.504 214.335 144.614 217.676 142.864 221.408C142.059 223.12 142.016 225.297 142.813 227.027C143.928 229.445 145.401 230.22 147.729 231.093C155.171 229.568 158.616 224.023 164.281 219.348C166.944 217.113 170.646 212.215 173.256 210.312C186.918 200.355 176.792 229.064 175.754 232.933C183.834 227.558 185.692 224.168 188.244 215.405C189.209 212.09 193.882 206.338 197.012 204.98C197.807 204.636 200.261 204.42 201.148 205.062C205.526 209.292 201.609 215.465 198.611 219.218C197.101 221.11 195.217 222.718 193.909 224.75C193.522 225.327 192.882 227.087 193.356 227.755C196.081 231.582 201.829 228.545 204.249 227.15L205.996 231.185C204.856 232.405 203.553 233.463 202.126 234.325C199.373 235.985 195.421 237.357 192.161 236.63C189.284 235.99 187.749 232.092 186.244 229.5C183.844 231.92 181.316 233.698 178.616 235.735C174.869 238.563 172.233 241.37 167.671 242.808C167.391 241.928 167.084 240.945 166.769 240.065C165.754 237.215 164.087 225.418 170.679 230.442C171.686 226.387 171.986 222.735 171.894 218.585C168.391 220.645 165.091 223.5 161.954 226.562C155.672 232.697 151.253 240.528 141.068 236.533C138.761 235.628 137.506 230.253 136.791 227.868C134.191 230.611 129.151 235.52 124.813 233.937C122.371 233.047 121.296 229.895 120.366 227.673C117.679 230.998 108.914 243.815 104.454 237.253C102.677 234.638 102.474 229.367 102.191 226.17C100.62 227.925 99.3434 229.572 97.667 231.317L94.5791 232.04C90.2761 230.882 89.5072 229.553 86.4287 226.41C81.7265 232.337 80.1372 241.665 77.6436 248.652C76.4753 251.927 74.1701 260.835 71.2881 262.285C70.7201 262.265 70.5839 262.268 70.1465 261.848C66.1636 258.033 70.71 238.303 71.5459 232.685C71.8304 230.775 71.9589 228.875 72.0029 226.945C60.5062 239.063 62.3618 232.7 52.5439 225.673C52.4542 225.628 52.3642 225.58 52.2744 225.535C48.7353 227.678 46.3694 231.002 43.7197 234.085C42.2257 235.822 39.2222 239.8 36.6807 239.05C36.2574 238.497 36.119 237.84 36.2656 237.168C37.5223 231.413 39.0587 226.78 39.1982 220.761C34.6251 223.838 31.7511 227.405 28.167 231.5C26.6707 233.207 21.4408 239.985 19.123 237.16C18.9326 234.025 20.7058 230.615 21.4551 227.53C21.8551 225.88 22.0038 224.875 22.207 223.165C19.5504 224.72 15.7352 228.537 14.1953 231.192C13.4656 229.677 13.0686 228.7 12.4961 227.115C14.5399 223.655 25.3615 211.635 29.418 211.415C32.7041 212.74 30.2218 220.76 29.665 223.49C33.1619 220.295 36.1711 216.822 39.5117 213.41C40.556 212.103 45.6563 208.003 46.9248 210.673C48.5578 214.113 46.3815 222.177 45.5625 225.62C48.5072 222.138 52.3623 218.188 56.9717 217.2C60.7585 219.85 61.6363 224.445 65.4082 228.003C70.8233 223.325 74.7459 215.653 78.1611 209.448C79.5351 206.953 81.5823 200.694 84.0684 199.471C85.0061 199.476 84.608 199.33 85.3223 199.878C85.9523 201.095 86.011 202.42 85.6631 203.732C83.7346 211.007 81.0082 218.088 78.876 225.298C77.478 230.025 76.751 235.045 75.458 239.825L76.2451 240.538C76.2961 240.316 76.3433 240.088 76.4033 239.865C77.6153 235.365 82.6269 219.379 86.4453 217.391C87.1901 217.003 88.0631 216.871 88.8701 217.136C91.7301 218.078 94.3257 224.96 95.8174 227.645C98.0994 225.033 100.3 222.348 102.417 219.598C104.261 217.168 109.702 208.113 113.369 210.678C113.937 212.218 107.432 230.048 110.454 232.07C114.934 231.495 119.594 221.01 122.887 218.33C124.259 217.213 125.309 217.565 126.979 217.812C127.389 220.212 127.414 226.68 129.531 227.745C131.636 227.645 134.866 223.715 136.651 222.075C136.326 217.325 138.679 206.703 140.616 201.638C142.804 195.918 147.866 182.362 153.299 179.205ZM75.457 239.825C75.0983 241.278 73.9138 245.865 74.4355 247.15C75.4837 245.63 75.7519 242.411 76.2441 240.538L75.457 239.825ZM196.475 212.885C194.912 214.39 192.77 216.933 192.385 219.096C192.625 219.733 192.405 219.528 192.975 219.806C194.52 218.143 197.063 215.912 196.99 213.63C196.83 213.377 196.675 213.09 196.475 212.885ZM151.816 193.178C147.896 197.268 147.376 200.256 145.434 205.476C144.394 208.27 143.306 210.271 142.941 213.346C142.994 213.481 143.142 213.896 143.212 213.998C146.312 210.443 152.289 198.146 151.999 193.458L151.816 193.178Z" fill="white"/>
<path d="M100.425 0.00302118C108.449 -0.158979 115.086 6.21428 115.249 14.2385C115.411 22.2628 109.039 28.8995 101.014 29.0628C92.9888 29.2258 86.3511 22.8523 86.1886 14.8273C86.0261 6.80227 92.4001 0.165021 100.425 0.00302118Z" fill="white"/>
<path d="M12.0378 179.732C12.5041 179.72 12.6461 179.757 13.1106 179.817C14.4571 182.06 10.0911 199.122 9.59205 202.58C8.1623 212.485 4.85306 227.55 7.38456 237.372C5.78831 238.957 4.28606 240.397 1.97956 240.592C1.66256 240.205 0.919553 239.302 0.815303 238.812C-0.608447 232.13 0.167306 223.84 0.643306 217.027C0.901806 213.327 1.6503 209.917 1.6603 206.33C1.6678 203.63 0.193806 200.5 0.668056 197.687C1.40406 193.322 2.9203 187.637 4.7033 183.635C5.72205 181.347 9.77931 180.335 12.0378 179.732Z" fill="white"/>
<path d="M137.239 139.96L138.076 141C136.761 142.235 134.369 144.582 132.861 145.29C134.499 143.452 135.744 141.892 137.239 139.96Z" fill="white"/>
</svg>
