<svg width="595" height="114" viewBox="0 0 595 114" fill="none" xmlns="http://www.w3.org/2000/svg">
<path d="M433.601 8.84729C433.877 8.81082 434.13 8.80026 434.401 8.7839C453.774 7.60269 464.691 20.1424 464.688 38.9675C464.682 52.9005 458.501 65.6215 443.415 68.2417C442.307 68.4341 441.871 69.4479 440.064 69.4642C422.323 69.8313 409.596 61.3407 408.258 42.5091C407.004 24.8133 414.271 10.0632 433.601 8.84729ZM438.249 58.8868C440.605 58.4145 442.54 58.1287 444.62 56.8403C451.453 52.611 453.137 44.8823 452.866 37.3524C452.471 26.4084 446.444 17.6344 434.61 18.6967C412.851 20.8754 415.618 61.3791 437.92 58.9304C438.031 58.9187 438.141 58.9042 438.249 58.8868Z" fill="white"/>
<path d="M302.664 9.65766L322.436 9.5802C329.118 9.55355 335.128 9.14373 341.283 11.424C353.166 15.8253 353.562 35.1057 341.949 40.223C339.718 41.2054 337.618 41.9942 335.5 42.976C336.667 43.3481 338.796 44.125 339.657 44.9554C341.798 47.1634 344.622 50.6013 346.086 53.3424C347.959 56.857 353.794 63.7539 353.937 67.3838C353.73 67.5477 353.242 67.9599 353.035 68.0462C349.722 67.0644 342.711 68.9504 340.89 66.6377C337.397 62.2029 334.354 57.1197 331.081 52.4751C329.057 49.575 326.782 46.8603 324.277 44.3633C320.048 43.6448 318.367 43.4632 314.064 44.0372C314.015 47.8956 314.966 64.8453 313.657 67.301C312.232 68.1979 304.299 67.6788 302.402 67.3858C303.045 48.5051 301.966 28.6797 302.664 9.65766ZM314.402 33.3107C320.833 33.7408 329.81 34.7546 335.721 31.9644C336.733 31.5886 337.795 29.4023 338.778 28.5788L338.432 24.5991C337.725 23.5612 336.981 22.5378 336.469 21.3868C330.046 18.9886 322.675 19.5765 315.897 19.8299C315.216 20.0972 314.806 20.1352 314.495 20.8526C313.485 23.1615 314.157 30.6451 314.402 33.3107Z" fill="white"/>
<path d="M474.058 9.38761C476.67 9.70506 482.857 8.90545 484.858 9.88861C485.542 10.2244 486.246 11.1903 486.714 11.7862C489.428 15.2395 507.376 45.5845 507.787 45.7798C508.272 45.4444 508.136 45.6118 508.386 45.0971C508.813 45.4209 509.221 47.0642 509.788 48.1173L510.123 48.2138C510.515 46.875 510.012 44.4298 509.672 43.0689C508.816 33.7024 509.89 19.6998 509.52 9.81423C513.008 9.49911 516.883 9.56497 520.42 9.55491C520.856 15.9109 521.24 64.6478 520.152 67.513C518.73 67.8918 510.728 67.7604 508.61 67.8261C502.926 58.7545 497.003 49.8818 491.587 40.6225C490.924 39.4864 486.563 32.2099 486.069 31.8062C485.882 31.9373 485.504 32.1433 485.481 32.3343C484.251 42.621 485.772 57.787 484.978 67.7348L473.781 67.7534C473.383 57.3957 473.898 45.1945 473.764 34.6191C473.688 28.5889 473.458 14.8671 474.058 9.38761Z" fill="white"/>
<path d="M584.516 36.8547L584.981 37.2122C585.673 38.4661 585.036 56.6583 585.173 59.4526C585.359 63.2079 566.69 68.9666 563.531 69.3008C554.126 70.2966 541.452 66.439 535.835 58.5467C530.604 51.2025 529.208 43.1915 530.005 34.4781C531.049 23.6056 538.488 12.1437 549.722 9.57695C554.938 8.38481 566.303 8.4046 571.655 9.92419C574.622 10.7669 577.642 15.8548 580.495 16.8437C581.63 17.3037 582.232 18.8767 582.849 20.1263C585.234 24.9563 584.481 24.2223 581.738 27.7744C574.081 28.8452 571.934 29.6172 569.526 23.3133C569.052 22.0672 566.201 21.3588 565.314 20.7749C563.775 19.3532 563.644 19.3875 561.718 19.0867C549.923 17.1184 542.31 24.9523 541.606 36.2051C540.864 48.0132 545.818 58.1726 558.414 59.162C558.449 59.1649 566.57 57.1696 566.428 57.3149C568.307 55.426 570.387 55.4071 572.432 53.8756C573.508 53.0725 573.203 48.214 573.275 46.6451C568.961 46.2655 563.263 46.4963 558.734 46.3562C559.028 43.2229 558.134 38.6795 560.264 36.5557C568.022 36.9335 577.037 36.2572 584.516 36.8547Z" fill="white"/>
<path d="M195.304 9.08716C201.552 8.83551 208.842 9.11669 215.069 9.00976C220.205 8.92157 230.693 10.5164 234.274 14.4977C237.468 17.9257 239.192 23.2959 238.996 28.0112C238.214 46.8815 220.571 46.6499 206.879 46.4336C206.37 46.5877 205.507 46.7455 205.403 47.2655C204.219 53.1686 205.597 60.4021 205.27 66.4604C205.252 66.7996 204.641 67.5111 204.402 67.7733C202.198 67.7187 196.237 68.1073 194.747 67.1089C193.751 65.9625 194.207 59.69 194.122 57.3613C194.45 49.9764 194.149 41.247 194.122 33.7144C194.097 26.6438 194.278 18.2119 193.869 11.3045C194.382 10.6569 194.868 9.80358 195.304 9.08716ZM227.316 29.2991C227.258 20.5916 220.942 19.9492 213.769 19.8405C212.173 19.8163 208.032 19.5088 206.881 20.0022C206.45 20.537 205.809 20.9598 205.42 21.4652C204.804 22.2646 204.898 33.0796 205.068 34.5329C205.133 35.0941 205.332 35.4856 205.779 35.8277C206.199 36.1495 206.737 36.2225 207.246 36.3155C210.105 35.9202 213.627 36.2332 216.543 36.0989C217.129 36.3512 218.627 35.0293 218.617 35.0299C224.338 34.8512 224.729 33.8176 227.316 29.2991Z" fill="white"/>
<path d="M207.247 36.3157C206.738 36.2227 206.2 36.1497 205.78 35.828C205.333 35.4859 205.134 35.0944 205.068 34.5331C204.898 33.0799 204.805 22.2648 205.42 21.4654C205.809 20.9601 206.451 20.5372 206.881 20.0024C206.693 22.6484 206.623 34.2553 207.247 36.3157Z" fill="white"/>
<path d="M248.387 9.71116C252.135 9.40019 258.784 9.59054 262.773 9.59415C272.095 9.63167 281.416 9.62199 290.739 9.56511C290.94 13.5674 291.324 16.1958 290.434 20.0979C286.906 19.6996 262.913 19.3649 260.697 20.0076C259.358 22.3589 259.919 29.1285 259.845 32.2513C267.637 33.3284 280.964 31.7644 289.008 32.6823C288.985 34.4297 289.17 41.1859 288.275 42.0646C284.108 43.208 261.901 41.3917 260.312 42.8016C259.5 45.1583 259.977 54.4434 259.794 57.7705C270.282 58.4073 282.404 57.3055 292.548 58.1946C292.499 61.3461 292.415 64.4683 292.58 67.6169C289.378 67.8175 280.337 67.816 277.095 67.7076C273.011 67.5713 250.084 68.2064 248.563 67.2144C248.237 66.1404 248.021 64.5694 248.025 63.4432C248.087 49.3878 248.242 35.3395 248.135 21.2828C248.106 17.5371 247.97 13.4128 248.387 9.71116Z" fill="white"/>
<path d="M361.099 9.81067C364.776 9.53153 369.41 9.44884 373.057 9.89275L372.941 41.854C372.921 46.5527 373.049 52.8714 372.766 57.4969C376.787 58.3447 381.409 57.7852 385.513 57.9459C391.256 58.1709 397.769 57.4123 403.418 58.3281C403.156 60.6199 403.514 66.1871 402.769 67.2459L401.637 67.8714C399.846 67.5784 385.929 67.5877 383.622 67.6787C379.085 67.858 367.667 67.3183 363.67 67.8571L360.834 66.9381C361.169 60.1999 361.151 53.0415 361.049 46.2812C360.863 34.1959 361.436 21.8591 361.099 9.81067Z" fill="white"/>
<path d="M193.027 83.2712C195.255 83.089 197.423 83.1375 199.654 83.1567C202.076 87.7743 202.666 93.1458 203.205 98.2398C204.707 93.3202 205.571 88.4902 207.158 83.3904C209.628 83.3622 211.682 83.432 214.139 83.5587C213.871 86.4821 213.84 104.073 213.41 104.979C212.102 105.618 210.491 104.47 209.334 103.83L209.299 96.7938C209.883 95.2751 210.728 92.745 210.65 91.1543L210.369 90.6503C209.003 91.769 208.66 95.7559 208.709 97.4887C207.367 99.9715 206.972 102.112 206.415 104.837C197.188 105.912 200.744 97.9093 198.649 91.9449C197.361 96.5627 197.377 100.164 197.346 104.86C195.942 104.804 194.555 104.557 193.167 104.339C192.795 98.4226 193.051 89.424 193.027 83.2712Z" fill="white"/>
<path d="M580.18 83.4149C581.754 83.2048 583.435 83.4105 585.015 83.5076C584.226 90.4359 584.823 97.9809 584.875 104.974C581.12 104.058 577.431 105.481 573.905 104.501C572.367 103.714 571.36 102.682 570.412 101.253C569.196 99.4266 568.957 97.2938 569.394 95.1738C569.888 92.7753 571.247 90.653 573.312 89.3105C574.508 88.5318 575.898 87.9444 577.344 88.2452C578.185 88.819 578.246 89.3497 578.769 90.1787C579.517 90.2339 579.558 90.1542 580.113 89.7104C580.593 87.7968 580.25 85.3878 580.18 83.4149ZM573.844 93.999C573.746 96.1132 573.234 99.161 574.781 100.836C575.511 101.629 576.361 101.813 577.393 101.937C578.481 101.509 579.258 100.983 579.75 99.8847C580.544 98.1106 580.253 95.6127 580.215 93.6892C578.984 92.9012 577.699 92.1711 577.117 90.7527C576.352 92.122 575.046 93.0314 573.844 93.999Z" fill="white"/>
<path d="M245.589 83.5364C247.076 83.3585 248.49 83.4138 249.981 83.5079C249.856 87.2344 250.386 102.224 249.473 104.531C249.37 104.789 248.897 104.917 248.636 105.033C247.489 105.08 246.387 104.465 245.361 104.012C242.881 104.933 241.078 105.08 238.508 104.41C237.544 103.825 236.692 102.737 236.091 101.79C234.202 98.8166 234.748 95.2689 235.451 92.0293C241.387 85.0414 243.307 90.2336 245.753 89.7093C246.452 88.0598 245.138 85.4693 245.574 83.5986C245.579 83.5777 245.584 83.5571 245.589 83.5364ZM243.381 101.822C244.372 101.473 245.349 99.1404 245.868 98.1917L245.681 94.0066C245.074 93.4692 243.206 91.4114 242.589 91.2692C240.599 92.4519 239.663 93.1989 239.062 95.5389C238.663 97.0959 238.662 98.7648 239.516 100.174C239.941 100.877 240.367 101.364 241.11 101.725L243.381 101.822Z" fill="white"/>
<path d="M385.483 88.3671C385.701 88.3546 385.919 88.3459 386.137 88.3409C387.833 88.3028 389.305 88.9617 390.53 90.1479C392.298 91.8601 392.976 94.2534 393.017 96.6492C393.058 98.948 392.633 101.4 390.957 103.104C388.467 105.633 385.166 104.456 382.053 104.466L382.141 109.067C382.135 109.519 382.036 110.001 381.981 110.451C381.492 110.973 380.703 111.403 379.976 111.455C379.301 111.503 379.051 111.196 378.589 110.79C377.661 108.319 377.632 91.8857 378.612 89.1146L379.29 88.8269C380.34 88.8903 381.326 89.8084 382.152 90.4077C383.185 89.5346 384.281 88.9681 385.483 88.3671ZM386.536 101.757C387.403 101.546 387.598 101.389 388.086 100.607C389.128 98.9422 389.291 96.6951 388.831 94.81C388.543 93.627 387.877 92.469 386.815 91.8212C386.463 91.6076 386.012 91.4044 385.599 91.5067C385.576 91.5128 385.553 91.5215 385.529 91.5288C383.871 92.3621 382.923 92.9707 382.301 94.8315C381.818 96.2754 381.754 98.0467 382.458 99.4328C382.926 100.357 383.642 101.015 384.45 101.641C385.145 101.815 385.826 101.777 386.536 101.757Z" fill="white"/>
<path d="M336.981 88.3781C342.222 88.0985 339.648 89.2722 342.58 90.0194C344.221 89.423 344.265 88.7426 345.547 88.8234C347.549 90.5999 347.034 104.965 346.731 108.263C345.271 108.413 343.764 108.751 342.54 108.035C342.691 107.082 343.046 105.687 342.668 104.855C340.527 103.949 337.312 105.377 334.543 103.713C330.424 101.239 331.544 94.9533 332.745 91.2309C334.057 90.3107 335.616 89.1606 336.981 88.3781ZM337.242 101.602L340.515 101.723C341.417 101.246 342.156 99.6159 342.458 98.6283C343.025 96.7867 342.828 94.9756 341.911 93.3061C341.792 93.0884 341.667 92.8722 341.542 92.6577C340.649 92.2519 339.75 91.7982 338.805 91.5253C337.269 92.8524 336.082 94.1516 335.925 96.2935C335.782 98.2184 336.524 99.8705 337.242 101.602Z" fill="white"/>
<path d="M402.815 88.0327C405.424 88.1019 407.333 90.1184 409.706 90.1321C411.237 90.1408 412.243 88.0048 414.227 88.1868C416.028 88.3516 417.453 89.8734 418.535 91.1796C418.867 93.8228 419.46 101.651 418.477 103.869C418.148 104.611 417.779 104.794 417.066 105.076C415.99 105.077 415.108 104.311 414.265 103.721C414.719 101.142 415.836 96.1602 414.721 93.6946C414.349 92.8741 413.186 91.7731 412.668 90.8715C411.725 91.8987 410.585 92.7549 409.512 93.6391C409.296 96.7337 409.41 99.8625 409.445 102.964C409.465 103.518 409.238 104.04 409.061 104.556C408.395 105.055 407.923 105.32 407.091 105.426C406.69 105.264 406.39 105.195 406.102 104.858C404.214 102.643 405.201 96.7348 405.416 93.9835C404.642 92.9779 403.953 91.8719 403.237 90.8206C402.373 91.8931 401.291 92.8477 400.305 93.8135C400.046 96.3529 400.872 102.094 399.863 104.08C399.516 104.762 399.153 104.87 398.472 105.1C397.39 105.046 396.52 104.303 395.668 103.704C396.128 100.786 395.575 91.3772 396.48 89.8583C396.901 89.1503 397.253 89.0709 398.004 88.8823C399.089 89.0169 399.988 89.9664 400.799 90.6439C401.489 89.7871 402.161 88.9166 402.815 88.0327Z" fill="white"/>
<path d="M315.885 83.2317C320.417 83.2146 325.249 82.9161 329.706 83.8328C329.441 84.5208 329.159 85.5538 328.667 86.0935C326.904 88.0345 322.145 86.794 319.774 86.898C318.983 86.9329 318.099 87.0416 317.546 87.6802C317.18 88.1066 317.017 88.7585 317.046 89.3113C317.232 92.8756 326.072 90.4498 328.495 92.6431C328.647 93.2281 328.699 93.3493 328.449 93.8987C327.515 95.9428 320.109 94.6189 317.008 95.7533C317.159 97.5362 317.34 99.3161 317.549 101.093C320.083 101.368 326.986 100.662 328.769 101.909C329.217 102.221 329.575 102.678 329.636 103.238C329.703 103.839 329.54 104.247 329.162 104.679C326.91 105.264 317.441 105.307 314.925 105.031C314.105 104.942 313.701 104.877 313.186 104.238C312.776 102.686 312.72 84.8574 313.174 83.8235C313.872 83.2582 315.015 83.3012 315.885 83.2317Z" fill="white"/>
<path d="M503.815 88.6325C508.309 87.6187 512.769 90.4601 513.746 94.9594C514.723 99.4587 511.841 103.891 507.329 104.83C505.252 105.262 503.085 104.882 501.281 103.766C499.097 102.418 497.66 100.135 497.392 97.5846C497.121 95.0335 498.049 92.5019 499.905 90.7284C500.993 89.6884 502.346 88.9635 503.815 88.6325ZM501.991 94.1967C501.921 95.8543 501.857 97.4855 501.991 99.1413C502.741 100.273 503.37 101.419 504.81 101.707C505.581 101.861 506.447 101.814 507.233 101.8C508.632 101.014 509.26 98.9297 509.86 97.4712C509.327 95.1018 508.905 93.33 506.732 91.9512C506.331 91.696 505.883 91.3725 505.435 91.2135C504.289 92.1845 503.044 93.13 501.991 94.1967Z" fill="white"/>
<path d="M485.231 82.9458C487.672 82.8392 489.804 83.172 492.146 83.8602C493.519 85.2702 494.743 86.581 495.197 88.5618C495.36 89.2789 495.316 89.437 494.929 90.0593C492.041 90.9562 489.222 86.5371 486.944 86.2122C484.693 85.8913 482.697 87.666 481.065 88.9228C480.207 92.4295 480.266 95.4944 481.182 98.9773C481.671 99.3726 482.18 99.7406 482.709 100.08C484.012 100.91 485.595 101.502 487.157 101.136C488.37 100.852 489.603 99.7877 490.252 98.7541C490.461 98.2824 490.726 97.8839 491.017 97.4619C491.462 97.2968 491.933 97.1128 492.399 97.0375C493.167 96.9134 493.679 97.1215 494.292 97.5621C494.601 97.9987 494.784 98.3786 494.787 98.9209C494.804 101.067 492.794 102.81 491.398 104.203C489.987 104.479 488.53 104.738 487.099 104.855C484.399 105.077 481.737 104.455 479.658 102.666C477.418 100.739 476.243 97.9534 476.033 95.0419C475.803 91.8439 476.577 88.4511 478.721 85.9884C480.591 83.8367 482.427 83.1508 485.231 82.9458Z" fill="white"/>
<path d="M283.063 88.4222C284.507 88.3185 286.119 88.2048 287.53 88.5862C288.819 88.9344 290.351 89.863 291.014 91.0651C291.86 92.5945 292.288 103.218 291.779 104.923C288.063 104.708 282.23 105.062 279.004 103.831C278.634 102.499 278.176 100.511 278.416 99.1496C278.805 96.9418 280.556 96.0236 282.254 94.8387C283.477 94.8047 286.367 95.0224 287.261 94.2521C287.554 93.9993 287.486 93.6851 287.514 93.3191C287.29 92.8128 287.052 92.3056 286.648 91.9156C284.875 90.2031 282.943 92.8256 280.756 92.8349C280.133 92.8372 279.467 92.8143 279.003 92.3518L279.005 91.6868C279.627 90.2966 281.777 89.2012 283.063 88.4222ZM285.449 102.088C286.521 101.384 287.679 99.7437 287.951 98.4921C287.991 98.3111 287.838 97.9576 287.786 97.7699C287.259 97.4795 286.913 97.4342 286.316 97.481C285.336 97.5467 283.983 97.4943 283.288 98.2838C282.724 98.9244 282.444 99.4025 282.48 100.271C282.682 100.77 282.934 101.44 283.46 101.668C284.036 101.918 284.828 101.989 285.449 102.088Z" fill="white"/>
<path d="M427.834 88.3862C428.218 88.3636 428.605 88.3499 428.989 88.3447C430.932 88.3243 432.896 89.0416 434.286 90.4222C436.302 92.4234 436.674 95.1485 436.686 97.8397C433.277 97.4781 429.71 97.7877 426.29 97.9516L426.182 98.2832C426.866 99.3037 426.921 100.588 427.532 101.491C427.724 101.772 428.009 102.044 428.343 102.103C430.534 102.49 431.313 100.354 432.71 99.4054C433.687 99.4211 434.545 99.4761 435.485 99.7635C435.572 99.9391 435.842 100.347 435.834 100.524C435.776 101.618 435.098 102.403 434.301 103.098C432.832 104.37 430.921 105.011 428.98 104.881C426.028 104.657 424.46 103.185 422.639 101.075C422.269 98.7433 421.938 95.8214 422.581 93.5267C423.369 90.7082 425.472 89.6979 427.834 88.3862ZM425.699 94.2992C427.462 94.7457 429.094 95.0227 430.912 95.0625C431.721 94.7067 432.215 94.6501 432.654 93.8659C432.061 92.3647 430.281 91.8156 428.89 91.1826L425.699 94.2992Z" fill="white"/>
<path d="M219.067 91.5967C220.166 90.68 222.386 88.6576 223.778 88.2804C227.541 87.261 234.603 93.8001 231.949 97.4943C231.083 98.0105 223.619 97.798 222.032 97.7856C222.31 98.831 222.69 100.622 223.262 101.465C224.279 101.95 226.431 102.128 227.048 101.022C228.75 100.875 229.637 100.999 231.338 101.192C228.632 105.885 226.031 105.274 221.247 104.322C220.446 103.165 219.224 102.377 218.61 101.251C217.101 98.4828 218.151 94.4776 219.067 91.5967ZM226.47 95.1113C227.193 94.9566 227.752 94.8843 228.216 94.2556C228.198 93.5104 228.039 93.2319 227.499 92.7003C226.752 91.9664 225.724 91.5665 224.764 91.195C223.931 91.9443 222.734 92.7811 222.434 93.8981C222.62 94.4029 222.631 94.5369 223.132 94.7645C224.015 95.1662 225.495 95.0883 226.47 95.1113Z" fill="white"/>
<path d="M363.441 88.5762C363.906 88.7209 364.252 88.7668 364.584 89.1534C365.96 90.7619 365.617 99.4178 365.442 101.78C365.361 102.899 365.279 104.34 364.377 105.118C363.217 105.231 362.632 104.352 361.529 104.255C357.46 103.9 357.506 105.498 352.422 103.764C350.944 101.258 351.005 98.4174 351.005 95.6079C350.956 94.0965 350.604 91.567 351.214 90.2082C351.47 89.6405 351.671 89.3964 352.262 89.1767C353.067 88.8773 354.202 88.7325 355.002 89.1023C356.142 90.6392 355.723 99.2225 355.802 101.591C357.122 101.74 358.461 101.701 359.787 101.697C360.284 100.544 360.895 99.4149 361.448 98.286C361.143 95.9082 360.604 92.718 361.364 90.4314C361.71 89.3874 362.519 89.0357 363.441 88.5762Z" fill="white"/>
<path d="M446.823 88.3901C447.358 88.3491 447.9 88.35 448.432 88.3628C450.902 88.4215 452.237 89.6483 453.845 91.3344C454.439 94.1087 455.111 101.511 453.784 104.002C453.365 104.785 452.827 105.016 452.03 105.255C451.222 105.11 450.791 104.937 450.203 104.354C448.906 102.095 449.828 96.2583 449.907 93.5509C449.124 92.7885 448.164 91.4617 447.146 91.2117L446.698 92.2014C446.311 92.3897 445.892 92.5932 445.561 92.8708C443.481 94.6036 444.429 99.8104 444.228 102.299C444.144 103.318 443.943 104.206 443.132 104.883C442.96 105.026 442.402 105.142 442.172 105.115C441.692 105.058 441.288 104.916 440.991 104.534C439.583 102.73 439.868 94.0104 440.176 91.5076C440.339 90.175 440.61 89.6765 441.631 88.879C442.844 88.8458 443.309 89.8349 444.473 90.1686C445.788 89.9544 446.032 89.4219 446.823 88.3901Z" fill="white"/>
<path d="M292.58 67.6171C292.472 68.5428 292.635 68.4448 292.059 68.9323C291.37 69.034 288.002 69.5048 287.539 69.4473C282.555 68.8305 250.129 70.5186 247.236 68.8128C245.881 66.7163 247.016 52.8642 247.117 50.0922C247.267 45.9754 246.612 10.3896 247.531 9.40088L248.386 9.7113C247.969 13.413 248.106 17.5372 248.134 21.283C248.242 35.3396 248.087 49.388 248.025 63.4433C248.02 64.5696 248.236 66.1406 248.562 67.2145C250.083 68.2065 273.01 67.5714 277.094 67.7077C280.336 67.8162 289.377 67.8176 292.58 67.6171Z" fill="white"/>
<path d="M541.801 83.526C543.279 83.3967 544.782 83.4333 546.266 83.4243C546.848 89.2339 546.115 95.2228 546.534 101.091C548.43 101.286 555.886 100.954 557.067 101.674C557.381 102.86 557.148 104.116 557.014 105.317C553.634 104.922 544.782 105.828 542.42 103.932C542.06 103.641 542.054 85.8071 541.801 83.526Z" fill="white"/>
<path d="M266.908 88.3993C268.023 88.2822 269.255 88.2403 270.352 88.5066C271.751 88.8463 273.575 89.457 274.34 90.755C274.664 91.3044 274.747 92.0493 274.578 92.6617C274.379 93.386 274.27 93.7987 273.613 94.1632C271.886 93.9293 269.965 92.2144 268.614 91.184C267.722 92.1467 266.643 92.9503 265.63 93.7801C265.551 94.7998 265.469 95.8281 265.519 96.8512C265.586 98.2108 265.77 100.409 266.837 101.353C269.248 103.486 271.533 99.247 273.435 99.1194C274.668 99.6478 276.452 99.7356 277.334 100.687L277.202 101.068C274.442 101.81 274.423 103.626 272.197 104.483C270.24 105.236 267.73 105.399 265.803 104.531C263.963 103.703 262.631 102.012 261.92 100.158C260.694 96.9645 261.485 93.9885 262.818 90.9876C264.188 90.1348 265.551 89.2718 266.908 88.3993Z" fill="white"/>
<path d="M461.476 84.4663C461.773 84.5131 462.072 84.6948 462.34 84.8218C463.096 87.2702 464.597 89.3394 465.228 91.8407C464.868 92.8775 463.943 92.3395 463.227 93.0588C462.29 93.9994 462.738 99.6933 462.735 101.233C463.62 101.419 464.687 101.547 465.516 101.899C466.197 102.189 466.407 102.446 466.686 103.11C466.479 103.918 466.174 104.228 465.508 104.711C464.108 105.006 462.247 105.08 460.842 104.795C457.182 104.052 459.338 96.3717 458.718 93.7442C458.582 93.1745 458.18 92.6862 457.872 92.202C457.287 91.2911 457.124 90.6119 457.36 89.5463C457.854 87.3377 459.643 85.642 461.476 84.4663Z" fill="white"/>
<path d="M563.609 84.4258C563.737 84.4848 564.112 84.6057 564.19 84.6955C564.528 85.0704 567.274 91.538 567.501 91.7115C567.867 91.9949 568.592 92.0109 569.069 92.3716L568.917 92.6541C568.298 92.5417 567.582 92.342 566.957 92.3376C566.122 92.3321 565.677 92.6748 565.107 93.209C564.304 95.5342 564.761 98.8817 564.81 101.349C565.912 101.606 567.812 101.59 568.653 102.357C569.037 102.707 568.926 103.507 568.952 104.016C566.049 105.132 564.333 104.898 561.401 104.155C560.935 101.65 560.86 99.3906 560.842 96.8602C560.836 96.1431 561.057 94.3396 560.828 93.7316C560.738 93.495 560.484 93.2032 560.351 92.9776C559.641 91.7921 559.237 90.5821 559.597 89.2003C560.083 87.3445 561.971 85.3628 563.609 84.4258Z" fill="white"/>
<path d="M296.284 83.5742C297.366 83.4367 299.114 83.0638 300.08 83.6782C300.255 83.789 300.377 83.8637 300.417 84.0668C300.804 85.963 300.595 101.356 300.324 103.401C300.243 104.021 299.911 104.567 299.571 105.08C299.228 105.157 298.882 105.222 298.532 105.23C297.567 105.254 296.618 104.148 295.967 103.527C296.65 100.047 295.638 84.701 296.284 83.5742Z" fill="white"/>
<path d="M369.923 87.5108C369.813 86.1991 369.377 84.9141 369.851 83.8692C370.959 83.0662 372.675 83.3152 374.138 83.3417C373.871 85.3422 373.676 85.9709 372.978 87.8741C374.362 92.4766 374.287 99.7751 373.781 104.577C373.644 105.874 370.668 104.808 369.979 104.43C369.153 103.198 369.583 92.006 369.615 89.8334C370.113 89.7741 371.253 89.7622 371.491 89.387C372.233 88.2121 372.268 87.3745 371.282 86.4883L370.627 86.5362L369.923 87.5108Z" fill="white"/>
<path d="M401.636 67.8721C402.343 68.0971 402.567 67.7869 403.501 67.9067L403.733 68.3741C400.909 70.1162 373.408 68.9492 368.454 69.2475C367.093 69.3294 361.185 69.3445 360.23 68.3929L360.39 67.9139C361.106 67.7105 362.232 68.0843 363.669 67.8579C367.666 67.319 379.083 67.8587 383.621 67.6794C385.928 67.5884 399.844 67.5791 401.636 67.8721Z" fill="white"/>
<path d="M257.38 89.207C258.307 91.5558 258.937 103.341 256.906 105.048C252.183 106.134 253.853 98.7154 253.862 96.1949C253.867 94.5039 253.252 91.0858 254.201 89.8427C255.477 89.8122 256.264 89.8767 257.38 89.207Z" fill="white"/>
<path d="M560.266 36.5559L561.272 36.1284C561.118 36.0054 561.042 35.6308 560.964 35.402C564.582 34.5949 580.486 35.0498 584.986 35.3146C584.57 36.3781 584.41 35.8805 584.517 36.855C577.038 36.2574 568.024 36.9338 560.266 36.5559Z" fill="white"/>
<path d="M204.402 67.7737C204.641 67.5116 205.252 66.8001 205.27 66.4609C205.597 60.4025 204.219 53.1691 205.403 47.2659C205.507 46.746 206.37 46.5881 206.879 46.4341C206.636 49.4272 207.697 65.9499 206.534 66.9573C206.522 66.9675 206.508 66.9747 206.495 66.9835L204.402 67.7737Z" fill="white"/>
<path d="M192.941 69.2775C192.965 65.17 192.463 63.3229 193.649 59.3598L193.521 60.8648C193.638 60.632 193.877 58.2391 194.121 57.3613C194.206 59.69 193.75 65.9626 194.746 67.1089C196.235 68.1073 202.196 67.7187 204.401 67.7734L206.494 66.9831C206.227 69.0601 206.311 68.8485 204.489 69.0237C200.691 69.3894 196.683 68.8008 192.941 69.2775Z" fill="white"/>
<path d="M527.23 106.471C526.782 104.957 526.994 105.132 525.688 104.093C524.196 102.907 525.851 99.6248 527.986 100.372C529.671 102.109 529.545 104.05 529.554 106.361C528.903 106.352 527.911 106.436 527.23 106.471Z" fill="white"/>
<path d="M254.2 89.8423C254.824 89.5502 255.857 88.5861 256.128 87.8674C255.446 86.1903 253.888 87.3081 253.441 84.9175C254.159 82.8833 255.777 83.2149 257.599 83.4724C258.849 84.6089 256.629 87.2274 257.379 89.2067C256.263 89.8764 255.476 89.8118 254.2 89.8423Z" fill="white"/>
<path d="M518.324 100.812C519.395 100.316 520.666 100.749 521.213 101.794C521.757 102.839 521.384 104.128 520.366 104.722C519.662 105.133 518.789 105.123 518.097 104.698C517.402 104.272 516.998 103.499 517.047 102.687C517.094 101.874 517.585 101.153 518.324 100.812Z" fill="white"/>
<path d="M353.939 67.3838C354.692 67.6253 354.864 67.6782 355.411 68.2767L355.381 68.7804C354.387 69.4689 344.636 69.2166 343.167 68.9487C342.771 68.8777 342.39 68.7292 342.053 68.5121C342.914 68.211 350.643 68.8109 353.037 68.0462C353.243 67.9599 353.732 67.5477 353.939 67.3838Z" fill="white"/>
<path d="M342.541 108.035C343.766 108.751 345.273 108.413 346.733 108.263L346.573 110.207C345.921 111.2 346.232 110.912 345.159 111.466C342.887 111.518 342.686 109.767 342.541 108.035Z" fill="white"/>
<path d="M527.229 106.471C527.91 106.436 528.902 106.352 529.554 106.36C529.292 107.959 526.947 109.266 525.487 110.503C525.388 109.395 524.905 108.243 525.263 107.173C526.025 106.481 526.037 106.671 527.229 106.471Z" fill="white"/>
<path d="M484.833 68.3645L484.955 68.4811C483.286 69.864 476.726 69.1502 474.422 68.9961L473.898 68.7529L474.105 68.4538C477.651 68.1599 481.275 68.3494 484.833 68.3645Z" fill="white"/>
<path d="M369.923 87.5108L370.627 86.5362L371.281 86.4883C372.267 87.3745 372.232 88.2121 371.491 89.387C371.252 89.7622 370.112 89.7741 369.614 89.8334C369.518 88.3284 369.358 88.7086 369.923 87.5108Z" fill="white"/>
<path d="M208.707 97.4889C208.659 95.756 209.002 91.7691 210.367 90.6504L210.648 91.1544C210.727 92.7451 209.881 95.2753 209.297 96.7939L209.085 96.2646L208.707 97.4889Z" fill="white"/>
<path d="M227.049 101.022C227.901 99.0806 229.983 98.6068 231.497 100.028C231.468 100.489 231.462 100.746 231.339 101.192C229.637 100.999 228.751 100.875 227.049 101.022Z" fill="white"/>
<path d="M509.674 43.0688C510.015 44.4297 510.518 46.8749 510.125 48.2137L509.791 48.1172C509.224 47.0641 508.816 45.4208 508.389 45.097C508.581 43.7269 508.424 44.1844 509.674 43.0688Z" fill="white"/>
<path d="M395.577 94.0713C395.627 94.1966 395.673 94.325 395.691 94.4596C395.932 96.1997 396.142 98.4511 395.071 99.8858C394.833 98.8336 394.53 97.68 394.556 96.6002C394.58 95.5899 394.833 94.7671 395.577 94.0713Z" fill="white"/>
<path d="M90.1885 34.8277C91.4303 31.9384 99.6375 18.958 102.096 18.0884C104.767 19.8641 106.607 18.6843 110.374 19.5674C123.582 22.7673 134.162 32.6208 138.283 45.5607C139.298 59.471 140.528 69.6726 130.799 81.23C119.812 94.2812 101.651 98.6979 85.7492 92.8294C84.0407 92.1989 81.8372 91.2819 80.1725 90.8035C76.3228 88.6449 65.3334 78.8874 65.2988 74.2695C65.3096 74.2323 75.5519 58.1511 75.9001 57.8032C76.6847 56.195 79.2943 52.1922 80.3164 50.5256C83.4997 45.2264 86.7911 39.9926 90.1885 34.8277ZM109.821 65.3785C110.395 68.7 110.414 72.5369 111.198 75.6754C110.666 78.3497 110.94 78.3453 112.682 80.4392C114.793 80.1735 118.176 80.9696 119.596 79.2504C120.071 74.2332 117.425 61.2875 117.012 55.7088C116.712 51.6562 114.984 31.4204 113.81 29.3466C111.285 29.0331 109.644 28.5544 107.458 30.1712C105.343 31.7358 101.55 40.6004 99.8621 41.929C95.5141 49.3653 90.4017 57.1597 86.2539 64.4184L85.6901 64.8899L85.5252 65.7435L85.3448 65.9929C84.6124 67.0869 83.872 68.142 83.2766 69.3177C81.6333 71.9231 79.6648 74.6662 78.1275 77.2475C77.3781 77.8753 77.0986 79.4184 77.4349 80.3133C78.871 80.8217 80.2036 80.2642 81.4355 80.4002C87.845 81.1074 87.571 73.5324 90.8031 71.3092L90.7234 70.3675C93.4325 66.9151 92.8975 65.438 96.577 63.239C100.689 63.5747 105.429 63.3552 109.638 63.4157L109.821 65.3785Z" fill="white"/>
<path d="M104.753 46.4904C105.761 45.9062 105.494 43.7103 106.873 42.4219C107.22 44.042 107.87 44.2844 107.959 46.0196C108.095 48.634 108.569 52.1047 109.513 54.5383C109.548 54.9766 109.299 56.9963 109.241 57.5494C107.063 57.5631 100.172 58.0563 98.4882 57.6535L98.4297 57.0861C98.8704 56.8336 103.334 48.1887 104.753 46.4904Z" fill="white"/>
<path d="M105.701 42.1127C106.798 41.7156 108.393 41.1893 109.406 40.7114C109.486 46.0054 109.001 49.0247 109.513 54.5383C108.569 52.1047 108.094 48.634 107.959 46.0196C107.869 44.2844 107.22 44.042 106.873 42.4219C105.494 43.7104 105.76 45.9062 104.752 46.4905C105.026 45.0979 105.491 43.4334 105.701 42.1127Z" fill="white"/>
<path d="M90.1868 34.8271C90.4032 35.8947 89.7752 36.7786 89.1913 37.6607C88.6555 38.46 88.1066 39.2506 87.5449 40.0319C89.7388 40.9361 92.3281 41.1017 94.6566 41.6409C95.8493 41.9173 96.9338 42.353 98.0906 42.5759C98.7928 42.2626 99.0133 41.9333 99.4988 41.3561L99.8604 41.9284C95.5124 49.3647 90.4 57.1591 86.2522 64.4178L85.6884 64.8893L85.4258 64.8497C85.2326 63.9543 85.8633 64.1914 86.2391 62.9838C81.1072 61.6113 80.868 57.407 79.3182 53.2527C78.5665 54.5973 77.2985 57.3335 75.8984 57.8026C76.683 56.1944 79.2926 52.1916 80.3148 50.525C83.498 45.2258 86.7895 39.992 90.1868 34.8271Z" fill="white"/>
<path d="M89.5353 45.6641C91.0276 45.8658 94.5791 45.9995 95.5565 47.1484C95.3377 49.6945 90.6913 55.8822 89.2244 58.5411C88.3912 58.8373 86.9455 58.6446 86.099 58.3824C85.3651 58.1548 84.8002 57.702 84.4435 57.0222C83.5743 55.3663 83.8495 52.9696 84.4083 51.2321C85.3168 48.4067 86.9571 46.9793 89.5353 45.6641Z" fill="white"/>
<path d="M96.5782 63.2388C100.69 63.5745 105.431 63.355 109.639 63.4155L109.822 65.3783C109.76 66.4717 109.72 67.6837 109.553 68.7565C109.529 66.9425 109.515 66.1964 109.134 64.4333C108.502 63.8186 108.686 63.9872 107.702 63.8625C106.704 64.2633 107.06 64.0468 106.37 64.8841C103.124 68.8245 96.7301 69.0963 92.2311 69.0355L91.003 71.5293L90.8043 71.309L90.7246 70.3673C93.4337 66.9149 92.8987 65.4378 96.5782 63.2388Z" fill="white"/>
<path d="M138.284 45.5601C139.581 48.7026 139.583 50.184 139.93 53.5972C141.616 70.2033 132.01 86.5103 116.745 93.1904C116.538 93.2813 116.368 93.3304 116.142 93.3714C114.551 94.2219 113.42 94.7822 111.619 95.1078C110.438 95.3368 109.116 95.8065 107.899 96.0791C98.6647 98.1442 87.9372 96.2686 80.1738 90.8029C81.8386 91.2813 84.0421 92.1984 85.7505 92.8288C101.652 98.6973 119.813 94.2806 130.8 81.2294C140.529 69.672 139.299 59.4704 138.284 45.5601Z" fill="white"/>
<path d="M151.81 66.5C152.455 68.191 151.76 73.2678 151.93 75.9253C150.781 79.6139 144.44 91.0862 141.438 93.0604C128.718 105.72 119.376 111.458 100.554 111.616C97.1069 111.646 90.1158 111.273 86.9052 110.276C86.1579 110.257 85.4136 110.174 84.6808 110.025C77.1377 108.434 69.6056 104.424 63.6147 99.6884C61.6991 98.1744 59.8915 97.1199 58.5438 95.0403C57.5545 93.5914 57.1071 92.8711 55.8027 91.7079C56.2018 91.1264 58.0921 90.2451 58.8205 89.8588C62.4057 93.1025 65.0677 96.1363 68.9339 99.5224C75.3708 103.339 82.3766 106.895 89.7499 108.382C94.4763 109.336 99.1678 109.092 103.805 108.942C114.295 108.602 121.459 106.056 129.877 99.9514C131.409 98.8405 133.5 97.008 134.857 96.1023C141.861 89.7998 148.087 81.2073 150.83 72.0834C151.316 70.4674 151.516 68.2602 151.81 66.5Z" fill="white"/>
<path d="M58.8205 89.8589C62.4057 93.1026 65.0677 96.1364 68.9339 99.5225C69.0762 100.083 72.7743 104.148 73.5085 104.852C76.7322 107.94 83.1088 108.397 86.9052 110.276C86.1579 110.257 85.4136 110.174 84.6808 110.025C77.1377 108.434 69.6056 104.424 63.6147 99.6884C61.6991 98.1744 59.8915 97.12 58.5438 95.0403C57.5545 93.5914 57.1071 92.8712 55.8027 91.708C56.2018 91.1264 58.0921 90.2452 58.8205 89.8589Z" fill="white"/>
<path d="M112.202 2.28703C114.742 2.25165 116.317 2.90055 118.721 3.67723C127.19 6.38172 134.899 11.0462 141.223 17.2908C142.613 18.6275 143.909 20.0583 145.102 21.5729C146.604 25.3073 148.223 26.9328 149.654 30.0642C152.086 35.386 154.254 41.5935 155.136 47.3757C155.477 49.6059 155.456 52.234 155.77 54.1802C155.725 57.08 155.742 60.1778 155.386 63.0486C155.09 65.4299 154.332 67.8429 153.983 70.2024C153.47 72.1672 152.783 74.0823 151.93 75.9253C151.759 73.2679 152.454 68.1911 151.81 66.5C154.427 51.117 151.18 36.7571 142.021 24.1459C141.368 21.274 138.031 18.2185 135.897 16.3278C127.968 9.30327 118.797 5.57284 108.705 2.87971C109.43 2.31698 111.205 2.35045 112.202 2.28703Z" fill="white"/>
<path d="M0.1875 110.645C1.68885 108.636 2.91008 106.259 4.22832 104.082L12.0606 91.2758L40.2659 45.5391C45.3573 37.1015 50.8764 27.5743 56.952 19.8529C59.3603 16.7922 67.3078 10.2818 70.7715 8.73389L70.6566 10.3838C61.5266 16.4532 57.4675 21.4776 51.7387 30.4113C47.3648 37.1181 42.655 45.4092 38.3166 52.402C29.8089 65.8348 21.4851 79.3832 13.3476 93.0433C10.7266 96.5067 8.5666 101.246 5.80981 104.756C5.23742 105.485 2.69526 108.636 2.59082 109.268C2.80172 109.432 3.047 109.647 3.28766 109.744C4.3868 110.306 6.40099 110.3 7.71056 110.373C12.2773 111.695 37.5486 110.101 39.0525 111.523C36.3871 111.751 30.699 111.464 27.6845 111.485C21.0391 111.448 14.3945 111.466 7.74977 111.367C6.28181 111.346 1.41946 110.765 0.562012 111.301L0.1875 110.645Z" fill="white"/>
<path d="M153.985 70.202C154.526 69.7399 155.688 67.7954 155.703 67.1729L155.852 67.1807C155.781 75.9093 148.893 88.005 143 94.4776C142.104 95.462 139.85 96.7981 139.223 97.5149C138.282 98.5897 133.788 103.412 132.493 103.784C130.209 104.679 130.145 105.292 128.455 106.249C127.38 106.585 126.276 107.341 125.306 107.943C124.012 108.396 120.738 109.429 119.623 109.952L118.909 110.247C116.944 110.947 115.723 111.262 113.628 111.462C112.377 111.621 109.298 111.807 108.399 112.302L108.209 112.756C108.384 113.038 108.594 113.411 108.812 113.645H88.438C88.5692 113.323 89.1778 112.471 89.4253 111.992C87.2861 111.816 83.4524 111.253 81.4709 110.754C74.8906 109.098 61.3138 100.956 58.3301 95.2237L58.5445 95.04C59.8922 97.1196 61.6998 98.1741 63.6153 99.6881C69.6062 104.424 77.1383 108.434 84.6814 110.025C85.4142 110.173 86.1586 110.257 86.9059 110.275C90.1165 111.272 97.1075 111.645 100.555 111.616C119.376 111.458 128.719 105.72 141.439 93.0601C144.441 91.086 150.781 79.6136 151.931 75.925C152.784 74.0819 153.471 72.1668 153.985 70.202Z" fill="white"/>
<path d="M55.8038 91.7085C57.1081 92.8717 57.5555 93.5919 58.5448 95.0408L58.3304 95.2245C57.3632 95.0539 57.166 95.1123 56.2337 95.4309C53.8181 98.2275 51.5209 103.805 48.8895 106.961C48.4776 107.455 43.8664 113.645 43.8664 113.645H0.110821C0.121291 112.789 -0.190753 111.268 0.188536 110.646L0.563049 111.302C1.42049 110.766 6.28285 111.346 7.75081 111.368C14.3956 111.466 21.0401 111.448 27.6855 111.486C30.7 111.465 36.3881 111.752 39.0536 111.523C40.8658 111.533 42.0117 111.702 43.8129 111.966C48.0727 104.646 51.8389 99.7866 55.8038 91.7085Z" fill="white"/>
<path d="M51.7368 30.4111C51.7964 31.05 51.8851 32.385 52.0521 32.9413C50.8591 35.4028 48.1152 39.3583 46.5554 41.9038C42.5449 48.5225 38.5003 55.1209 34.422 61.6986L23.3174 79.7757C21.7457 82.3756 17.75 89.2126 16.0818 91.3559C15.2691 91.898 14.1757 92.8496 13.3457 93.0431C21.4832 79.3831 29.807 65.8346 38.3147 52.4019C42.6531 45.4091 47.3629 37.1179 51.7368 30.4111Z" fill="white"/>
<path d="M56.2348 87.1196C57.1837 87.9756 57.9755 88.9045 58.8208 89.8587C58.0924 90.245 56.2022 91.1263 55.8031 91.7079C51.8382 99.7859 48.072 104.646 43.8122 111.965C42.011 111.701 40.8652 111.533 39.0529 111.522C37.549 110.101 12.2776 111.695 7.71094 110.373C11.4669 110.362 39.3237 110.68 40.3381 110.073C40.8841 109.821 42.2091 109.422 42.5387 108.958C46.4026 103.522 53.3759 92.8286 56.2348 87.1196Z" fill="white"/>
<path d="M73.4962 8.78369C74.0247 9.17709 74.5882 9.56444 75.0379 10.0424C73.7591 11.576 70.5596 12.6683 68.5754 14.1351C60.9892 19.7434 57.1823 25.2188 52.0536 32.9417C51.8866 32.3854 51.7979 31.0504 51.7383 30.4116C57.4671 21.478 61.5262 16.4535 70.6562 10.3841L73.4962 8.78369Z" fill="white"/>
<path d="M106.775 2.69336L108.705 2.8797C118.797 5.57283 127.968 9.30326 135.897 16.3278C138.031 18.2185 141.368 21.274 142.021 24.1459C132.402 13.6479 123.611 7.71793 109.311 5.06137L109.315 4.3343C108.314 3.76902 107.707 3.36969 106.775 2.69336Z" fill="white"/>
<path d="M3.28711 109.743C3.98048 109.209 4.34968 109.018 5.12764 108.615C9.76869 110.688 36.8796 107.123 40.3372 110.073C39.3228 110.68 11.466 110.362 7.71001 110.373C6.40044 110.299 4.38625 110.305 3.28711 109.743Z" fill="white"/>
<path d="M91.5717 0H107.726C108.049 1.36667 107.797 1.2214 108.68 2.00249C110.148 2.31809 111.02 2.04039 112.205 2.28697C111.208 2.3504 109.432 2.31693 108.707 2.87966L106.778 2.69331L105.119 2.49655L102.221 2.30149L95.4097 2.29245L90.5501 2.78006C90.3875 2.73319 89.7173 2.37942 89.5215 2.28054C90.5894 1.7147 91.012 1.01422 91.5717 0Z" fill="white"/>
<path d="M90.5482 2.7801L95.4079 2.29248L94.5241 4.42596C84.6236 5.56982 83.5342 6.6659 75.0378 10.0421C74.5881 9.56408 74.0246 9.17673 73.4961 8.78333C74.8496 7.72361 81.6044 5.11647 83.3958 4.64564C84.8691 4.41602 88.9783 3.20927 90.5482 2.7801Z" fill="white"/>
<path d="M155.793 45.2866C156.146 47.1264 157.149 47.9563 157.336 49.0529C158.106 53.5542 158.172 58.9182 157.296 63.4044C157.333 63.2134 155.928 66.9849 155.852 67.1808L155.702 67.173C155.687 67.7956 154.525 69.74 153.984 70.2022C154.333 67.8427 155.091 65.4297 155.387 63.0484C155.743 60.1776 155.726 57.0798 155.771 54.18C156.2 51.5708 155.377 48.4364 155.793 45.2866Z" fill="white"/>
<path d="M13.3466 93.0432C14.1766 92.8496 15.2701 91.898 16.0827 91.356C13.0822 96.8504 9.579 102.086 6.49289 107.524C6.3777 107.728 5.33613 108.47 5.12721 108.615C4.34925 109.018 3.98005 109.21 3.28668 109.744C3.04602 109.647 2.80074 109.432 2.58984 109.268C2.69427 108.636 5.23644 105.485 5.80883 104.756C8.56562 101.246 10.7256 96.5066 13.3466 93.0432Z" fill="white"/>
<path d="M145.104 21.5728C149.518 26.2911 155.966 38.6412 155.809 45.0027C155.807 45.0974 155.802 45.1922 155.794 45.2866C155.378 48.4364 156.201 51.5708 155.772 54.18C155.458 52.2338 155.479 49.6057 155.138 47.3756C154.256 41.5933 152.088 35.3859 149.656 30.064C148.225 26.9326 146.606 25.3071 145.104 21.5728Z" fill="white"/>
<path d="M81.5819 3.64993C84.4207 2.36678 86.4779 2.17969 89.5198 2.28058C89.7155 2.37946 90.3857 2.73324 90.5484 2.78011C88.9784 3.20928 84.8693 4.41603 83.3959 4.64565C81.6046 5.11648 74.8498 7.72362 73.4962 8.78334L70.6562 10.3838L70.7712 8.73387C72.4351 7.02806 79.0593 4.70052 81.5819 3.64993Z" fill="white"/>
<path d="M95.4091 2.29248L102.221 2.30153C102.546 3.62121 103.121 3.89477 104.353 4.41724C101.13 4.3011 97.7622 4.38623 94.5254 4.42596L95.4091 2.29248Z" fill="white"/>
<path d="M590.562 100.306C592.221 100.573 592.651 100.785 594.164 101.521V103.702L592.904 103.611C592.724 103.812 592.279 104.293 592.026 104.369C588.067 105.558 589.655 102.259 590.562 100.306Z" fill="white"/>
<path d="M105.118 2.49707L106.776 2.69383C107.708 3.37016 108.314 3.76949 109.316 4.33478L109.312 5.06184C108.019 4.77198 106.164 4.57704 104.805 4.39852C104.621 3.93507 104.962 3.00449 105.118 2.49707Z" fill="white"/>
<path d="M102.221 2.30176L105.119 2.49682C104.963 3.00424 104.622 3.93482 104.806 4.39827L104.353 4.41748C103.121 3.895 102.546 3.62144 102.221 2.30176Z" fill="white"/>
</svg>
