<svg width="231" height="265" viewBox="0 0 231 265" fill="none" xmlns="http://www.w3.org/2000/svg">

<path d="M24.877 19.8872C32.1089 19.8146 40.1675 20.1122 47.4629 20.2144C59.602 20.3829 71.7425 20.4848 83.8828 20.519L111.837 20.5425C119.428 20.5379 127.07 20.4087 134.671 21.0552C152.916 22.6074 171.187 29.2506 185.237 41.2319C199.809 53.6583 206.953 70.6488 208.441 89.6196C209.845 107.486 204.084 127.334 192.687 141.298C184.105 151.816 167.231 158.115 153.84 158.947C142.998 159.62 130.245 157.686 121.817 150.143C116.507 145.388 112.76 137.987 112.44 130.802C112.167 124.803 114.297 118.942 118.355 114.516C123.39 109.038 129.797 107.15 137.066 106.873C139.501 106.78 142.616 107.374 142.518 110.481C142.391 114.47 136.003 113.656 133.281 114.283C130.385 114.842 126.66 116.048 124.537 118.22C118.498 124.395 120.756 137.93 126.73 143.366C132.976 149.047 144.027 151.041 152.174 151.002C163.739 150.948 176.315 145.781 184.47 137.543C192.739 128.792 198.598 115.246 200.041 103.287C200.634 98.3906 200.633 94.9219 200.532 89.9995C199.579 75.1079 195.41 63.2783 184.522 52.4722C172.826 40.8649 154.625 30.6584 138.197 28.2925C133.479 27.613 125.807 27.7219 120.892 27.7212L97.4102 27.7075L97.417 190.802C106.772 190.878 116.065 190.513 125.506 190.958C129.886 191.165 133.52 193.318 129.751 198.205C129.044 199.123 127.727 199.327 126.561 199.338C120.044 199.4 113.516 199.357 106.995 199.35L69.9102 199.345L39.8682 199.35C34.864 199.35 29.7723 199.396 24.7695 199.306C21.9158 199.081 21.0229 197.749 20.9248 195.126C20.7347 190.033 26.8605 191.076 30.667 191.083L41.9219 191.122L41.918 27.4204C36.2901 27.4113 28.2735 27.8522 22.9648 27.1235C20.4387 26.7762 19.2385 21.3874 24.877 19.8872ZM90.8164 27.6938C87.5456 27.7196 84.2747 27.7208 81.0039 27.6987C81.2832 48.9753 81.0515 70.7498 81.0508 92.0581L81.0391 191.12H90.8086L90.8164 27.6938ZM58.4062 27.6929C55.1314 27.731 51.8559 27.736 48.5811 27.7075L48.5781 191.118L58.3916 191.11L58.4062 27.6929Z" fill="#9C9C9C"/>
<path d="M44.8488 229.816C55.3462 229.623 61.44 233.417 62.673 244.332C63.2524 249.462 62.1614 255.376 58.8917 259.526C56.2937 262.823 53.0065 263.976 48.9601 264.407C44.5007 264.541 39.6989 264.309 36.17 261.337C27.3582 253.912 28.4411 234.029 40.6954 230.523C42.177 230.098 43.3246 229.942 44.8488 229.816ZM52.4835 242.462C51.699 239.006 49.0834 237.387 45.5919 237.606C39.5508 239.218 39.4322 246.401 40.5655 251.492C41.3555 255.043 43.7911 256.861 47.4327 256.776C53.6107 255.24 53.6504 247.602 52.4835 242.462Z" fill="white"/>
<path d="M215.62 230.176C219.338 230.075 225.088 230.778 226.716 234.861C229.592 242.077 227.072 245.976 220.815 249.113C225.505 251.795 227.924 258.772 230.462 263.824L223.845 263.815L219.478 263.801C217.241 260.251 215.721 256.147 213.537 252.601C212.427 250.803 211.501 250.534 209.599 250.226L209.611 263.714L199.708 263.718C199.704 252.61 199.591 241.281 199.745 230.194C205.028 230.24 210.32 230.151 215.62 230.176ZM209.582 243.921C212.364 244.031 214.283 244.06 216.885 242.852C217.783 241.856 217.99 241.091 217.873 239.67C217.82 239.061 217.516 238.503 217.039 238.127C215.686 237.045 211.434 237.142 209.581 237.029L209.582 243.921Z" fill="white"/>
<path d="M99.7606 230.3L109.37 230.311L109.346 244.274C109.338 249.988 107.999 255.251 114.84 256.861C117.463 256.2 119.466 255.113 119.615 252.176C119.981 245.009 119.785 237.469 119.739 230.318L129.738 230.314L129.832 237.874C129.855 244.226 130.937 255.355 126.408 260.343C120.075 267.319 102.344 266.059 100.5 255.212C99.1418 247.218 99.7041 238.514 99.7606 230.3Z" fill="white"/>
<path d="M174.088 230.182C176.596 230.235 182.134 229.82 184.142 230.564C185.873 232.764 194.59 259.39 196.118 263.812C192.831 263.824 189.457 263.879 186.18 263.734C185.403 261.839 185.304 260.12 183.988 258.427C182.647 258.136 176.023 258.344 173.909 258.292C173.413 260.223 172.946 261.927 172.158 263.764C169.069 263.897 165.559 263.803 162.436 263.783C163.538 260.173 165.121 255.94 166.375 252.326L174.088 230.182ZM179.121 239.761C178.016 243.394 176.905 247.287 175.722 250.87L179.339 250.874L182.422 250.863C182.038 249.418 179.845 240.499 179.121 239.761Z" fill="white"/>
<path d="M8.06445 230.176C16.4349 230.217 25.853 228.474 26.1748 240.136C26.4154 248.86 22.1498 251.388 14.1279 251.354L9.8877 251.35L9.90918 263.723L0 263.718L0.00292969 230.19C2.65779 230.21 5.38846 230.162 8.06445 230.176ZM10.8857 237.13C10.4835 237.323 10.1735 237.36 10.0879 237.686C9.63763 239.404 9.85628 242.473 9.9043 244.267C11.6246 244.331 13.8873 244.476 15.5322 243.925C16.9587 242.533 17.913 240.42 16.2461 238.748C14.622 237.121 13.0206 237.206 10.8857 237.13Z" fill="white"/>
<path d="M68.0918 230.192C72.0568 230.208 84.9982 229.862 88.0244 230.67C89.2455 230.982 90.3689 231.596 91.293 232.452C95.3325 236.131 95.572 244.497 91.6885 248.413C88.6612 251.462 85.2615 251.401 81.3154 251.352L77.9707 251.35L77.9756 263.712L68.0947 263.717L68.0918 230.192ZM82.3662 237.472C81.5246 237.152 79.8015 237.13 78.8965 237.16C77.3124 238.18 77.9893 242.412 77.9668 244.325C79.7217 244.332 81.979 244.408 83.6406 243.96C86.2675 241.537 85.675 238.723 82.3662 237.472Z" fill="white"/>
<path d="M136.319 230.277C139.324 230.376 142.677 230.3 145.707 230.295L145.698 255.612C150.668 255.63 155.639 255.621 160.61 255.582L160.617 263.728L136.301 263.718L136.319 230.277Z" fill="white"/>
</svg>
