<svg width="32" height="32" viewBox="0 0 32 32" fill="none" xmlns="http://www.w3.org/2000/svg">
<path d="M15.3701 1.0835C23.5813 0.750716 30.5063 7.13978 30.835 15.3511C31.1635 23.5624 24.7711 30.4839 16.5596 30.8081C8.3541 31.1322 1.43866 24.7459 1.11035 16.5405C0.782034 8.33523 7.16505 1.41615 15.3701 1.0835Z" stroke="white" stroke-width="0.250795"/>
<path d="M22.224 10.8185C22.4042 10.7139 22.5865 10.6129 22.7707 10.5156C22.7816 10.5293 22.7925 10.543 22.8034 10.5568C23.1465 10.9918 23.4471 11.4586 23.7013 11.9509C23.7128 11.9731 23.7242 11.9954 23.7355 12.0177C23.8209 12.1865 23.9007 12.358 23.9749 12.5319C23.809 12.7417 23.3118 13.2095 23.0982 13.4288C22.9985 13.417 22.6001 13.5568 22.4625 13.5846C21.902 13.6974 21.3322 13.8252 20.7863 13.9979C20.6687 14.1236 20.5422 14.4131 20.4525 14.5771C20.2436 14.9595 20.0649 15.3843 19.8094 15.7373C19.6801 15.9157 19.5104 16.0672 19.3636 16.2244C18.9139 16.7057 18.2786 17.0064 17.6739 17.2587C17.1875 17.4447 16.6662 17.7002 16.1627 17.8285C14.838 18.1657 13.3709 18.2373 12.0136 18.0812C11.149 17.9818 10.311 17.8514 9.66374 17.2126C9.14294 16.6988 8.8895 15.9566 9.05726 15.2344C9.14915 14.8687 9.35779 14.4537 9.54197 14.1251C9.59593 14.0287 9.73142 13.9064 9.80718 13.8247C10.1714 13.4943 10.5018 13.1953 10.9285 12.9471C11.6418 12.5462 12.469 12.2109 13.2634 12.0074C13.925 11.838 14.6633 11.6847 15.3387 11.5829C15.6972 11.5288 16.0886 11.5439 16.4494 11.5323C16.7443 11.5229 17.0448 11.5129 17.338 11.5385C17.7569 11.5685 18.1401 11.7035 18.5463 11.7859C19.0332 11.8848 19.5387 12.0077 20.0305 12.0786C20.1882 12.1013 20.4063 12.0948 20.5669 12.0977C20.5762 12.0475 20.556 11.9991 20.5495 11.945C20.7281 11.5367 21.8204 11.0508 22.224 10.8185Z" fill="#5B5A5A"/>
<path d="M22.2243 10.8185C22.4045 10.7139 22.5867 10.6129 22.771 10.5156C22.7819 10.5293 22.7928 10.543 22.8037 10.5568C23.1468 10.9918 23.4474 11.4586 23.7016 11.9509C23.4519 12.0982 23.2519 12.2071 22.9978 12.3424C22.9489 12.3599 22.8738 12.3939 22.8359 12.4289C22.8157 12.4751 22.7409 12.5148 22.6968 12.5362C22.0028 12.8722 20.9739 12.8887 20.5672 12.0977C20.5765 12.0475 20.5563 11.9991 20.5498 11.945C20.7283 11.5367 21.8207 11.0508 22.2243 10.8185Z" fill="white"/>
<path d="M22.2243 10.8185C22.4045 10.7139 22.5867 10.6129 22.771 10.5156C22.7819 10.5293 22.7928 10.543 22.8037 10.5568C22.5164 10.7392 21.9672 10.9914 21.7217 11.1654C21.8876 11.201 22.0944 11.2435 22.196 11.3883C22.3376 11.5902 22.1171 11.81 21.9711 11.9321C21.8856 12.0036 21.8028 12.0655 21.7056 12.1191C21.503 12.2435 21.2604 12.2009 21.0436 12.1426C20.909 12.1067 20.756 12.0206 20.6307 11.9557C20.6227 11.959 20.6147 11.9622 20.6068 11.9655C20.5933 12.0313 20.6351 12.0792 20.6683 12.1323C21.1622 12.9208 22.1057 12.7405 22.8359 12.4289C22.8157 12.4751 22.7409 12.5148 22.6968 12.5362C22.0028 12.8722 20.9739 12.8887 20.5672 12.0977C20.5765 12.0475 20.5563 11.9991 20.5498 11.945C20.7283 11.5367 21.8207 11.0508 22.2243 10.8185Z" fill="white"/>
<path d="M21.6166 11.2122C21.6239 11.2111 21.6313 11.2101 21.6386 11.209C22.0656 11.2672 22.4299 11.4687 21.9735 11.8524C21.7123 12.0722 21.6069 12.1512 21.2864 12.1359C21.0345 12.1102 20.8592 12.0243 20.6523 11.8886C20.9858 11.556 21.2065 11.4347 21.6166 11.2122Z" fill="white"/>
<path d="M22.9971 12.3422C23.2511 12.2069 23.4511 12.098 23.7008 11.9507C23.7123 11.9729 23.7237 11.9952 23.735 12.0175L23.7171 12.0264C23.4734 12.1497 23.3239 12.321 22.9971 12.3422Z" fill="white"/>
<path d="M15.7785 11.8575C16.8014 11.7984 18.4539 12.049 19.2454 12.7268C20.0955 13.4547 19.8228 14.5601 19.114 15.2918C17.6373 16.8165 15.3571 17.496 13.2898 17.6032C11.9941 17.6605 9.50387 17.3806 9.32358 15.6849C9.26909 15.1724 9.651 14.5136 9.99832 14.1538C11.4328 12.6678 13.7648 11.9493 15.7785 11.8575Z" fill="white"/>
<path d="M24.6701 15.7985C24.7411 20.0539 21.7233 23.736 17.5367 24.5019C13.3502 25.2678 9.22412 22.8925 7.78397 18.8876C6.3438 14.8827 8.01233 10.4238 11.7278 8.34809C15.4434 6.27243 20.1152 7.18937 22.7704 10.5154C22.5861 10.6127 22.4039 10.7137 22.2237 10.8184C20.8841 9.19542 18.9041 8.09341 16.8016 7.89766C14.6367 7.67969 12.4746 8.33778 10.7982 9.72495C9.14195 11.0946 8.10333 13.0706 7.91438 15.2115C7.71343 17.3682 8.38877 19.515 9.78818 21.1684C11.1882 22.8103 13.1808 23.8321 15.3312 24.0106C16.6822 24.1206 17.9963 23.8683 19.2445 23.3545C19.6443 23.1898 20.2263 22.9967 20.4838 22.6276C20.5388 22.5755 20.6119 22.5226 20.6735 22.4767C21.1125 22.1491 21.5057 21.7608 21.8798 21.3607C22.0252 21.2029 22.1648 21.04 22.2987 20.8723C22.3775 20.7737 22.7683 20.2357 22.8356 20.1956C22.8444 20.1886 22.8727 20.1667 22.8778 20.1587C23.6261 18.9576 24.0784 17.3882 24.0571 15.9919C24.286 15.9396 24.4524 15.8859 24.6701 15.7985Z" fill="white"/>
<path d="M18.5811 18.7395C19.6315 18.6646 20.8848 18.5748 21.8559 18.1036C21.909 18.0779 21.997 17.9987 22.0452 18.0117C22.1209 18.1342 22.0707 18.2918 22.0393 18.4306C21.9575 18.7919 21.7465 19.0954 21.5397 19.3962C21.416 19.5521 21.3205 19.6896 21.1714 19.8242C21.0305 19.9389 20.9082 20.0817 20.7797 20.2047C20.6124 20.3649 20.4158 20.5151 20.2309 20.6438C19.2863 21.3013 18.1682 21.5772 17.0373 21.6785C16.9676 21.6847 16.8859 21.7046 16.8147 21.7074C15.7534 21.751 14.6629 21.7067 13.6262 21.4637C13.6013 21.4579 13.5715 21.423 13.5554 21.4042C13.4414 21.4182 13.0564 21.5462 13.0023 21.4543L13.0274 21.4048L13.0533 21.3412L13.0376 21.3168L12.9405 21.3125C12.6452 21.3934 12.3485 21.4019 12.0419 21.4178C11.9383 21.4053 11.5998 21.4131 11.4829 21.4136C11.377 21.4131 11.2711 21.4107 11.1652 21.4063C10.9456 21.4105 10.5986 21.4273 10.4112 21.3037C10.3791 21.2508 10.3835 21.2784 10.3964 21.2186C10.4633 21.1333 10.5233 21.1123 10.6264 21.0791C10.9818 20.9629 11.3404 21.0741 11.7327 21.0795C11.9091 21.1042 12.253 21.0717 12.4683 21.0819C12.5841 20.9507 12.7082 20.8227 12.8137 20.683C12.9878 20.4524 13.1561 20.1822 13.3461 19.9661C14.0543 19.1607 15.1491 18.9485 16.1624 18.8214C16.3713 18.7968 16.5814 18.7847 16.7917 18.7851C16.8918 18.7847 17.1491 18.8038 17.2236 18.7852C17.3354 18.7672 17.3751 18.7924 17.5156 18.7924C17.5956 18.7924 17.677 18.8214 17.7594 18.7924C17.7866 18.762 17.7784 18.7745 17.8292 18.7593L17.8719 18.7834C18.1391 18.7813 18.3201 18.7699 18.5811 18.7395Z" fill="white"/>
<path d="M20.1405 19.7628C20.1325 19.6974 20.1146 19.6205 20.1379 19.5618C20.185 19.5318 20.1879 19.5359 20.2424 19.5357C20.3064 19.5825 20.5241 20.2969 20.4429 20.3936C20.328 20.3964 20.2875 20.2657 20.2325 20.1817C19.901 20.2776 19.6013 20.3348 19.2931 20.4204C19.3175 20.5143 19.3507 20.6297 19.3696 20.7228C19.2371 20.7604 19.2534 20.7778 19.1486 20.6847C19.0198 20.6514 16.2268 21.2825 15.8269 21.3447C15.6868 21.2754 15.5625 21.1557 15.4457 21.0509C14.9872 21.1222 14.5347 21.1731 14.082 21.2812C13.9111 21.3219 13.7191 21.3419 13.555 21.4044C13.4411 21.4184 13.056 21.5465 13.002 21.4545L13.027 21.4051C13.2202 21.3536 13.5672 21.2985 13.7742 21.2586C14.2117 21.1671 14.6463 21.0885 15.0736 20.958C15.1757 20.9267 15.3106 20.9002 15.4059 20.8644C15.4544 20.7562 15.5154 20.5067 15.5921 20.4859C15.7613 20.4401 15.9752 20.4071 16.1491 20.3702L18.1584 19.9568C18.2849 19.9302 18.7943 19.8321 18.8879 19.7896C18.902 19.7545 18.9123 19.7255 18.9243 19.6895C19.0981 19.5694 19.1196 19.8453 19.1556 19.9744C19.4383 19.9135 19.8791 19.836 20.1405 19.7628Z" fill="#5B5A5A"/>
<path d="M18.2153 20.1077C18.4161 20.0454 18.7277 20.0059 18.9582 19.9473C19.0186 20.132 19.0729 20.3187 19.1216 20.5068C18.9834 20.545 18.8869 20.5642 18.7426 20.576C18.7217 20.4991 18.6963 20.359 18.6197 20.3235C18.5648 20.3922 18.6262 20.5271 18.6509 20.607C18.5132 20.6417 18.4174 20.6627 18.2776 20.6845C18.2485 20.588 18.2325 20.5035 18.1705 20.4259L18.1399 20.4119C18.1033 20.4742 18.1316 20.5559 18.1489 20.6228C18.156 20.6505 18.1633 20.6782 18.1708 20.7057C18.0533 20.7346 17.929 20.7677 17.811 20.7909C17.7806 20.7019 17.7421 20.5491 17.6583 20.5068C17.6147 20.5828 17.6777 20.7226 17.6967 20.8051C17.5726 20.8337 17.4482 20.8614 17.3237 20.8884C17.3016 20.8077 17.2712 20.6409 17.1888 20.6067C17.1463 20.6891 17.2013 20.8092 17.2305 20.9013C17.0993 20.9327 16.9945 20.9563 16.8615 20.9775C16.826 20.8795 16.7915 20.7804 16.7523 20.684L16.6636 20.706C16.6934 20.8023 16.724 20.8974 16.7487 20.995C16.6272 21.0247 16.5049 21.0526 16.3826 21.0792C16.3537 20.9954 16.3031 20.8613 16.282 20.7796C16.2551 20.7877 16.2138 20.802 16.1877 20.8075C16.2291 20.9171 16.2504 20.9775 16.2782 21.0911C16.1043 21.1405 15.9329 21.2066 15.7561 21.1124C15.712 21.0889 15.6001 20.9854 15.5801 20.9363L15.6199 20.823C15.6435 20.7675 15.6681 20.6842 15.6876 20.6248C15.7937 20.588 16.259 20.4936 16.3894 20.471C16.6825 20.4202 17.1675 20.2905 17.4474 20.2658C17.7026 20.2093 17.9586 20.1567 18.2153 20.1077Z" fill="white"/>
<path d="M15.6878 20.6251C15.7939 20.5884 16.2592 20.494 16.3896 20.4713C16.6827 20.4206 17.1677 20.2909 17.4476 20.2661C17.5173 20.2765 17.5871 20.285 17.6571 20.2913C17.4212 20.3893 17.1851 20.4295 16.9439 20.5011C16.5069 20.631 16.055 20.6937 15.6201 20.8234C15.6437 20.7679 15.6683 20.6845 15.6878 20.6251Z" fill="white"/>
<path d="M15.5801 20.9364C15.7739 20.9139 16.0657 20.8091 16.1877 20.8076C16.2291 20.9171 16.2504 20.9775 16.2782 21.0911C16.1043 21.1406 15.9329 21.2067 15.7561 21.1124C15.712 21.089 15.6001 20.9855 15.5801 20.9364Z" fill="white"/>
<path d="M16.2822 20.7796C16.3284 20.7563 16.6028 20.7093 16.6639 20.7061C16.6937 20.8024 16.7242 20.8974 16.749 20.9951C16.6274 21.0247 16.5052 21.0527 16.3828 21.0792C16.354 20.9954 16.3034 20.8613 16.2822 20.7796Z" fill="white"/>
<path d="M10.6264 21.0795C10.6815 21.0778 10.7614 21.0687 10.8087 21.0858C10.8201 21.121 10.8306 21.1566 10.8402 21.1922L10.8672 21.1955C10.9496 21.124 10.9936 21.0629 11.0978 21.0707C11.8145 21.131 12.5348 21.1354 13.2522 21.0835C13.6539 21.056 14.0624 21.0049 14.4638 20.9715C14.6873 20.9528 14.9547 20.8671 15.1602 20.9051L15.1519 20.9152L15.1447 20.9056C15.0932 20.9471 13.9174 21.1882 13.7745 21.2134L13.7746 21.2586C13.5675 21.2985 13.2205 21.3537 13.0274 21.4051L13.0533 21.3415L13.0376 21.3171L12.9405 21.3128C12.6452 21.3937 12.3485 21.4022 12.0419 21.4181C11.9383 21.4056 11.5998 21.4134 11.4829 21.4139C11.377 21.4134 11.2711 21.411 11.1652 21.4066C10.9456 21.4108 10.5986 21.4276 10.4112 21.304C10.3791 21.2511 10.3835 21.2787 10.3964 21.2189C10.4633 21.1336 10.5233 21.1127 10.6264 21.0795Z" fill="white"/>
<path d="M11.165 21.4064C11.4071 21.3926 11.755 21.43 11.9829 21.3976C12.3333 21.3477 12.5761 21.3132 12.9363 21.3022L12.9403 21.3127C12.645 21.3935 12.3483 21.402 12.0417 21.418C11.9381 21.4054 11.5996 21.4132 11.4827 21.4137C11.3768 21.4132 11.2709 21.4108 11.165 21.4064Z" fill="white"/>
<path d="M12.9365 21.3024C13.2368 21.265 13.4654 21.2715 13.7745 21.2134L13.7746 21.2586C13.5675 21.2985 13.2206 21.3537 13.0274 21.4051L13.0533 21.3415L13.0376 21.317L12.9405 21.3128L12.9365 21.3024Z" fill="white"/>
<path d="M23.9745 12.5317C23.9857 12.5583 23.997 12.5849 24.008 12.6116C24.4173 13.5988 24.6413 14.6529 24.6685 15.7212C24.6691 15.7469 24.6698 15.7726 24.6701 15.7985C24.4523 15.8859 24.286 15.9396 24.057 15.9919C24.0212 15.9984 23.9849 16.0016 23.9486 16.0018C23.7695 16.0028 23.5022 15.8857 23.3805 15.7551C23.2229 15.5858 23.2101 15.5072 23.2114 15.3002C22.9904 15.2353 22.7887 15.1805 22.5959 15.047C22.4035 14.9204 21.6773 14.3666 21.672 14.1339C21.6604 13.6196 22.7765 13.8558 23.0841 13.4473L23.0978 13.4286C23.3115 13.2094 23.8087 12.7415 23.9745 12.5317Z" fill="white"/>
<path d="M23.9745 12.5317C23.9857 12.5583 23.997 12.5849 24.008 12.6116C23.7698 12.8398 23.5364 13.073 23.3077 13.3108C23.2138 13.4072 23.0429 13.618 22.9292 13.6592C22.5824 13.7846 22.1599 13.7913 21.8233 13.9325C21.614 14.0203 21.851 14.3458 21.9457 14.4308C22.3376 14.7828 22.6694 15.1317 23.2076 15.2376C23.3994 15.0585 23.6381 15.0529 23.8713 14.9216C24.0432 14.8248 24.3316 14.4595 24.5143 14.5941L24.5274 14.6258L24.5036 14.6462C24.4519 14.6413 24.4333 14.6308 24.3861 14.6115C24.2279 14.7212 24.0419 14.9066 23.8813 14.9923C23.6298 15.1264 23.0039 15.1652 23.358 15.6293C23.7216 16.1058 24.2102 15.9421 24.6685 15.7212C24.6691 15.7469 24.6698 15.7726 24.6701 15.7985C24.4523 15.8859 24.286 15.9396 24.057 15.9919C24.0212 15.9984 23.9849 16.0016 23.9486 16.0018C23.7695 16.0028 23.5022 15.8857 23.3805 15.7551C23.2229 15.5858 23.2101 15.5072 23.2114 15.3002C22.9904 15.2353 22.7887 15.1805 22.5959 15.047C22.4035 14.9204 21.6773 14.3666 21.672 14.1339C21.6604 13.6196 22.7765 13.8558 23.0841 13.4473L23.0978 13.4286C23.3115 13.2094 23.8087 12.7415 23.9745 12.5317Z" fill="white"/>
<path d="M4.34961 12.4658C4.32043 12.5734 4.27929 12.6986 4.24609 12.8066C4.9466 12.9628 5.67319 13.2019 6.37891 13.3623C6.34624 13.4856 6.31936 13.6287 6.29297 13.7549C5.73598 14.3326 5.53153 14.83 5.34668 15.6143C5.21827 15.6362 5.05847 15.6929 4.9375 15.7393C4.80484 15.3186 4.71683 14.9735 4.61523 14.5459L4.60254 14.5566C4.2771 14.8442 4.17886 15.3008 4.15039 15.7158L3.84668 15.7031L3.83984 15.9824C4.40929 15.8547 4.6816 16.2468 4.86914 16.7041C5.54791 15.9542 6.20369 16.8563 6.19434 17.5645C6.18491 18.2758 5.81762 18.6989 5.3584 19.1836L4.96582 18.9795C5.40489 18.5679 5.89254 18.1006 5.77539 17.4424C5.74416 17.2529 5.64582 16.9525 5.43652 16.9043C5.28066 16.8688 5.04294 17.1001 5.03125 17.25C5.02292 17.3588 5.08711 17.4371 5.15332 17.5127L5.16895 17.5303L5.18164 17.5518C5.16205 17.6002 4.87605 17.8788 4.82324 17.9336C4.8042 17.9096 4.78599 17.8846 4.76855 17.8594C4.64171 17.6797 4.59471 17.565 4.63281 17.3467C4.06309 16.7563 3.72814 17.7947 4.15723 18.1699C4.19507 18.203 4.20161 18.2027 4.24512 18.1963C4.33035 18.0612 4.18489 17.9118 4.09668 17.8193L4.54004 17.8262C4.59807 18.0221 4.70776 18.4117 4.5459 18.5781C4.48529 18.6398 4.40199 18.675 4.31543 18.6738C3.85572 18.6654 3.56304 17.9468 3.59961 17.5469C3.64599 17.0419 3.7941 16.6473 4.38867 16.6797C4.35922 16.6472 4.32898 16.6157 4.29785 16.585C4.23182 16.5209 4.08393 16.4402 4.00879 16.4541C3.49447 16.5501 3.55875 17.9017 3.42676 18.3213C3.38196 18.4997 3.3284 18.6646 3.20215 18.8057C2.97176 19.0626 2.69851 18.7895 2.52832 18.6152C2.55216 18.4559 2.5665 18.2075 2.58008 18.041C2.66855 18.1456 2.78891 18.3191 2.91113 18.3574C2.99604 18.3387 3.04715 18.2666 3.0625 18.1816C3.19768 17.4338 3.10175 16.5752 3.72852 16.0303L3.47461 16.0332C3.45954 14.792 3.63258 13.5554 3.98828 12.3662C4.09993 12.3908 4.23746 12.4335 4.34961 12.4658ZM4.11621 13.3379C4.01875 13.8259 3.92949 14.2881 3.9043 14.7861C3.99225 14.6202 4.07284 14.4981 4.17578 14.3418C4.31186 14.164 4.37147 14.1108 4.54883 13.9707C4.60527 13.7626 4.64287 13.6544 4.78906 13.4863C4.57218 13.4372 4.33297 13.3782 4.11621 13.3379ZM5.25684 13.6035C5.07316 13.7421 5.01798 13.825 4.94727 14.0459C5.00359 14.3048 5.05543 14.5146 5.12793 14.7695C5.17665 14.6768 5.21975 14.5922 5.26367 14.4971C5.4009 14.224 5.56941 13.922 5.78516 13.7031C5.64427 13.6692 5.39247 13.5998 5.25684 13.6035Z" fill="white"/>
<path d="M20.3086 4.20557C21.6958 4.6875 23.1668 5.58801 24.2451 6.5835C24.4116 6.45023 24.5493 6.34755 24.7676 6.31299C25.1714 6.24922 25.6201 6.44913 25.9326 6.69189C26.8409 7.39736 27.0949 8.21866 27.2559 9.29248C27.1215 9.24896 26.9669 9.1949 26.8291 9.17139C26.6878 8.25346 26.262 7.10437 25.2451 6.82373C25.0254 6.76314 24.8436 6.85762 24.6641 6.97412C24.778 7.07974 24.8654 7.15998 24.9688 7.27686L24.7012 7.53369C24.5983 7.42058 24.5291 7.35209 24.415 7.25049C23.9146 7.73207 23.3623 8.31969 22.8848 8.82471C22.7746 8.71479 22.6528 8.6038 22.5391 8.49658C22.6835 8.34265 22.826 8.1869 22.9658 8.02881C23.2915 7.65547 23.6691 7.22251 24.0078 6.86475C23.8949 6.76189 23.7685 6.65896 23.6514 6.56006C23.194 7.13049 22.7016 7.68667 22.251 8.2583L21.8975 7.979C22.058 7.75425 21.9321 7.4773 21.8408 7.2417C21.0535 7.41313 20.4351 6.85199 20.166 6.15869C20.0685 5.9073 20.0239 5.68152 19.9756 5.41943C20.1096 5.38061 20.2455 5.33261 20.3779 5.2876C20.3962 5.78756 20.5996 6.33762 20.9814 6.67236C21.3302 6.97796 21.738 6.91987 22.0215 6.56396C22.2329 6.29829 22.1405 5.9431 21.875 5.75928C21.7393 5.65723 21.4331 5.53387 21.3115 5.71729C21.2128 5.86739 21.5139 5.99274 21.6133 6.04541C21.5334 6.11625 21.3765 6.22121 21.2852 6.28662C21.0948 6.21511 20.9507 6.1317 20.8486 5.94482C20.711 5.69267 20.7803 5.39378 21.0527 5.27295C21.3408 5.14529 21.6236 5.24905 21.8994 5.34717C21.3613 5.02548 20.7562 4.77163 20.1729 4.54443C20.219 4.44895 20.2689 4.30745 20.3086 4.20557ZM22.0977 5.47803C22.6458 5.89331 22.7094 6.48199 22.2842 7.01514C22.2671 7.03669 22.2497 7.05796 22.2314 7.07861C22.2687 7.16884 22.3112 7.26732 22.3447 7.35791C22.4442 7.24418 22.5113 7.1625 22.5996 7.04053C22.7872 6.79141 23.0303 6.44833 23.2305 6.21924C23.0397 6.07969 22.2707 5.51614 22.0977 5.47803Z" fill="white"/>
<path d="M14.3049 25.7037C14.6878 25.6658 15.3794 25.8466 15.5596 26.2222C15.6764 26.4658 15.6945 26.702 15.6193 26.9572C15.4062 26.9142 15.1914 26.8813 14.9753 26.8585C15.0584 26.3317 14.8421 26.1919 14.348 26.2383C14.2353 26.311 14.1656 26.4014 14.1254 26.5286C14.0381 26.8052 13.8331 28.0666 13.9576 28.2894C14.0163 28.3945 14.1259 28.4733 14.242 28.5024C14.3536 28.5304 14.4661 28.5018 14.5612 28.4395C14.7715 28.3014 14.8084 28.0044 14.8581 27.7769C14.7106 27.7545 14.5635 27.7286 14.417 27.6996C14.4424 27.5489 14.4584 27.392 14.4762 27.2398C14.8307 27.2789 15.1984 27.3388 15.5514 27.3945C15.5424 27.5671 15.5006 27.8233 15.4767 28.0007C15.4294 28.3509 15.3805 28.7272 15.3103 29.0719C15.1531 29.0506 14.9892 29.0192 14.8323 28.9917C14.8467 28.9144 14.8526 28.7969 14.8591 28.7156C14.8107 28.7607 14.7526 28.8136 14.7015 28.8509C14.2226 29.2001 13.2581 28.8288 13.2399 28.189C13.2232 27.8685 13.2535 27.5056 13.313 27.1868C13.4448 26.4801 13.4385 25.8078 14.3049 25.7037Z" fill="white"/>
<path d="M11.1406 24.5825C11.5114 24.7062 11.9929 24.9904 12.3584 25.1587C13.2778 25.5818 12.5997 26.7375 12.2705 27.3403C12.0918 27.6677 11.8548 27.9438 11.4775 28.0396C11.0633 28.0763 10.1651 27.604 9.79102 27.3921C10.2333 26.4747 10.6825 25.4807 11.1406 24.5825ZM11.5488 25.2983C11.209 25.8907 10.9267 26.6296 10.5967 27.2407C10.7926 27.3503 10.99 27.4743 11.2188 27.479C11.596 27.329 11.8244 26.7352 11.9863 26.3823C12.3091 25.6791 12.1669 25.5685 11.5488 25.2983Z" fill="white"/>
<path d="M24.9268 7.60178C25.4534 7.589 25.7642 8.14717 25.9053 8.58127C25.756 8.56835 25.6064 8.55729 25.457 8.54807C25.4173 8.41926 25.3196 8.1169 25.1514 8.14377C24.9304 8.44259 25.8342 9.09231 26.0205 9.23264L26.3799 8.99826C27.1319 10.1501 27.5933 11.0746 27.9902 12.4084C27.8761 12.4362 27.7494 12.4779 27.6357 12.5129C27.5034 11.9788 27.076 10.946 26.8174 10.4631C26.6466 10.5281 26.2733 10.7367 26.0967 10.8303C26.5328 11.1127 26.8731 11.5188 27.2041 11.9104C27.1151 12.0654 27.0334 12.2352 26.9531 12.3957C26.9355 12.4267 26.9385 12.4193 26.9121 12.4455C26.8247 12.4576 26.7393 12.427 26.6445 12.4192C26.1055 12.3749 25.8683 12.4894 25.4678 12.8283C25.3851 12.727 25.3037 12.6372 25.2158 12.5403C25.7316 12.0593 25.8687 12.0355 26.5625 11.8733C26.2086 11.4899 25.8728 11.2791 25.418 11.0373C25.4497 10.891 25.4628 10.7382 25.4795 10.5891C25.8377 10.3857 26.1953 10.1791 26.5508 9.97092L26.3809 9.66721C26.222 9.73825 25.8685 9.96846 25.708 10.0676C25.3001 10.3184 24.8936 10.5714 24.4883 10.8264C24.4209 10.7192 24.3424 10.6061 24.2715 10.5002C24.4771 9.93805 24.2655 9.18238 23.9883 8.676C23.9476 8.60172 23.8948 8.51281 23.8369 8.45139L24.0439 8.04807C24.2854 8.13511 24.5471 8.24899 24.7803 8.35568C24.6569 8.05361 24.5188 7.74293 24.9268 7.60178ZM24.5088 8.7424C24.68 9.32983 24.7474 9.45044 24.7656 10.0969C24.9443 9.96592 25.1241 9.84579 25.3076 9.7219L25.6621 9.47775C25.3811 9.26398 24.846 8.864 24.5088 8.7424Z" fill="white"/>
<path d="M20.2295 24.8193C20.2959 24.8587 22.1926 27.1032 22.3027 27.2627C22.0962 27.3756 21.8844 27.4802 21.6689 27.5752C21.5111 27.3763 21.3258 27.131 21.1543 26.9502C21.0418 27.0144 20.9313 27.0678 20.8154 27.125C20.7172 27.1709 20.6195 27.2181 20.5225 27.2666C20.564 27.5386 20.6501 27.7757 20.6924 28.0449C20.5164 28.1579 20.2573 28.2817 20.0654 28.3662C20.0026 28.1391 19.9137 27.6115 19.8623 27.3604C19.7098 26.6385 19.5661 25.9147 19.4316 25.1895C19.6826 25.0567 19.9383 24.9326 20.1982 24.8184L20.2295 24.8193ZM20.0215 25.4482C20.2127 25.9331 20.2462 26.3242 20.3965 26.7822C20.5297 26.7297 20.6149 26.6906 20.7422 26.625L20.8613 26.5566C20.7629 26.4273 20.0828 25.4829 20.0215 25.4482Z" fill="white"/>
<path d="M5.6228 9.61133C5.57181 9.70886 5.49273 9.82896 5.43335 9.9248C6.03325 10.2341 6.77008 10.6718 7.36108 11.0137L7.17065 11.3672C6.44787 11.4878 5.91174 12.1237 5.56616 12.7246C5.40821 12.7239 5.28998 12.728 5.13257 12.7402C5.1143 12.5992 5.0979 12.4579 5.08276 12.3164C5.06573 12.224 5.05574 12.0481 5.04761 11.9482C4.92119 12.0986 4.76932 12.3017 4.55151 12.3027C4.30766 12.3014 4.21228 12.02 4.22827 11.8164C4.25928 11.4225 4.42716 11.1099 4.72046 10.8516C4.76728 10.9881 4.82996 11.1217 4.88843 11.2539C4.80722 11.3463 4.55686 11.6148 4.698 11.7256C5.03963 11.7256 5.19318 10.6827 5.2273 10.4316C5.11473 10.3807 4.9693 10.2942 4.84741 10.2344C4.99196 9.95862 5.14403 9.68676 5.30444 9.41992C5.41936 9.48438 5.51278 9.53932 5.6228 9.61133ZM5.60327 10.6348C5.53043 11.1872 5.49316 11.4515 5.50757 12.0049C5.65242 11.8503 5.82474 11.6591 5.98901 11.5283C6.17105 11.3769 6.36859 11.2445 6.57788 11.1338C6.3238 10.9896 5.8739 10.7511 5.60327 10.6348Z" fill="white"/>
<path d="M24.5943 21.8325C24.6617 21.8844 24.8461 22.5299 24.8912 22.6656C25.1802 22.6791 25.4995 22.669 25.7954 22.6777C25.5791 22.878 25.311 23.0561 25.0744 23.2375C25.1751 23.5251 25.2676 23.8154 25.3511 24.1085C25.1833 24.0006 24.7077 23.6312 24.5919 23.5837C24.3669 23.7357 24.0755 23.9876 23.8436 24.1129C23.9108 23.8522 24.0406 23.4937 24.1315 23.2354C23.9178 23.0806 23.6048 22.8632 23.4111 22.6897C23.5895 22.6616 24.0878 22.6723 24.2916 22.6725C24.3972 22.4388 24.5033 22.0041 24.5943 21.8325Z" fill="white"/>
<path d="M7.15682 21.8447C7.2382 21.8818 7.42204 22.5346 7.47281 22.6713C7.77453 22.67 8.07625 22.6716 8.37792 22.6764C8.19256 22.852 7.86666 23.0689 7.64889 23.2328C7.74358 23.5196 7.84536 23.8146 7.92691 24.1043C7.72938 23.9953 7.40848 23.7404 7.20679 23.5982C7.11972 23.5877 6.56874 24.0189 6.41883 24.104C6.51093 23.8115 6.60648 23.52 6.70549 23.2299C6.47516 23.0567 6.18571 22.8899 5.98535 22.6873C6.2615 22.6658 6.5984 22.6718 6.87945 22.6705C6.97111 22.4357 7.0677 22.0963 7.15682 21.8447Z" fill="white"/>
<path d="M27.5374 12.542C27.5876 12.5466 27.6235 12.5729 27.6624 12.6045C27.9996 12.8776 28.2533 13.3844 28.307 13.8096C28.3653 14.2714 28.2312 14.5122 27.9671 14.8564C28.1196 14.8414 28.2832 14.8315 28.4368 14.8193C28.4447 15.1844 28.4762 15.5088 28.474 15.8887C28.4599 17.1417 28.2763 18.3871 27.9281 19.5908C27.7975 19.5452 27.7092 19.5198 27.5745 19.4873C27.5978 19.3817 27.6383 19.2534 27.6693 19.1475C26.9815 18.946 26.2268 18.7632 25.5286 18.5713C25.5609 18.4466 25.5918 18.3216 25.6204 18.1963C26.2396 17.886 26.7791 17.0236 26.8148 16.3398C26.9532 16.3061 27.1185 16.2521 27.2572 16.2109C27.5847 16.8562 27.7425 17.8632 27.8031 18.5732C27.9134 18.1263 28.0045 17.4724 28.0443 17.0117C28.1006 16.4767 28.1198 15.9381 28.1019 15.4004C27.7781 15.4195 27.4013 15.4273 27.0775 15.4307C27.0415 15.5183 27.0111 15.5875 26.9515 15.6631C26.8106 15.8401 26.6051 15.9541 26.3802 15.9795C26.1346 16.0059 25.8882 15.9333 25.6966 15.7773C25.4627 15.5896 25.3312 15.3054 25.305 15.0107C25.2482 14.3687 25.592 13.9171 25.972 13.457C26.0994 13.5118 26.2051 13.5661 26.3284 13.6299C25.9128 14.1049 25.4393 14.6571 25.8031 15.2871C26.0322 15.684 26.6059 15.6262 26.724 15.1865C26.7681 15.0219 26.653 14.6118 26.474 14.7461C26.417 14.8608 26.4447 14.9234 26.4681 15.0508C26.3467 15.0163 26.1971 14.9611 26.0755 14.9199C26.0449 14.7478 26.0303 14.6171 26.1361 14.458C26.2088 14.3476 26.3228 14.2707 26.4525 14.2451C26.8911 14.1578 27.0446 14.6075 27.1077 14.9443C27.213 14.9145 27.2703 14.8911 27.3714 14.8486C27.0947 14.304 26.8523 13.9443 26.5062 13.4492L26.7493 13.1729C27.1466 13.2719 27.4086 13.2163 27.2884 12.7539C27.3714 12.6865 27.4558 12.6118 27.5374 12.542ZM27.0618 17.1123C26.8098 17.6466 26.6593 17.8612 26.2484 18.2666L26.6693 18.3613L27.3431 18.5107C27.3278 18.2864 27.1926 17.2263 27.0618 17.1123ZM27.682 13.2744C27.561 13.5389 27.4926 13.64 27.1849 13.6621C27.3323 13.8979 27.4746 14.1379 27.6116 14.3799L27.6868 14.5205C27.867 14.3208 27.9378 14.1639 27.932 13.8809C27.9279 13.6919 27.8233 13.4001 27.682 13.2744Z" fill="white"/>
<path d="M17.6709 25.4618C18.4584 25.3199 18.6684 26.2841 18.7441 26.8505C18.8092 27.3379 18.9267 28.0997 18.4424 28.4306C18.2191 28.5829 17.6727 28.6389 17.3975 28.6786C17.1989 28.7126 17.0096 28.7455 16.8096 28.7704C16.7355 28.4509 16.6808 28.0178 16.625 27.6855L16.2891 25.6855C16.6738 25.6015 17.2714 25.5219 17.6709 25.4618ZM17.5371 25.9677C17.3823 25.9854 17.1754 26.0108 17.0273 26.0605C17.1483 26.759 17.2495 27.5042 17.3809 28.1943L17.6426 28.1571C18.3253 28.0527 18.133 27.5111 18.0693 26.9911C18.0313 26.6796 17.9318 25.9864 17.5371 25.9677Z" fill="white"/>
<path d="M15.4902 3.3518C16.6668 3.29249 17.9628 3.48062 19.1064 3.74243C19.0749 3.83539 19.0366 4.01644 19.0117 4.11743C18.9171 4.08454 18.7887 4.0539 18.6895 4.02758C18.5142 4.74198 18.3663 5.4674 18.1982 6.18286C18.0433 6.13842 17.9087 6.11572 17.751 6.08715C17.7724 6.00832 17.8086 5.8595 17.8018 5.77954C17.7513 5.26225 17.1449 4.72181 16.6191 4.74438C16.329 4.75693 16.1553 5.04695 16.4111 5.25317C16.562 5.37445 16.7561 5.33222 16.9365 5.30004C16.9585 5.43037 16.9925 5.57152 17.0225 5.70043C16.579 5.78053 16.1522 5.78524 15.873 5.35375C15.697 5.08143 15.7676 4.69917 16.0293 4.50708C16.5377 4.13428 17.3115 4.35829 17.7109 4.79321C17.7961 4.88553 17.868 4.97611 17.9443 5.0725C17.9871 4.7308 18.0825 4.25905 18.1484 3.91821C17.1165 3.73923 16.3834 3.7095 15.3457 3.72094L15.4297 5.90551C15.2698 5.91156 15.1382 5.91729 14.9785 5.93676C14.9607 5.70942 14.927 4.81732 14.8379 4.67504C14.8029 4.61936 14.7343 4.56868 14.668 4.55981C14.2692 4.50727 14.1189 5.51887 13.8223 5.74243C13.5916 5.91618 13.3269 5.87078 13.0654 5.82641C13.0153 5.69768 12.9686 5.5258 12.9277 5.39086C13.1901 5.47438 13.4506 5.59111 13.625 5.28247C13.8451 4.89306 13.7732 4.50228 13.3594 4.28051C12.9022 4.03573 12.7131 4.12425 12.2549 4.25512C12.4672 4.94207 12.73 5.69043 12.9248 6.37231C12.759 6.41235 12.6621 6.44761 12.5029 6.5061C12.243 5.81929 11.9886 5.12976 11.7402 4.43872C11.5607 4.5064 11.3868 4.57175 11.21 4.64672L11.9746 6.44946L12.0723 6.68676C11.9249 6.747 11.8059 6.79512 11.6641 6.86938C11.5484 6.60628 10.9461 5.28797 10.8047 5.17602C10.7042 5.09654 10.5733 5.07044 10.4482 5.08911C10.3378 5.10561 10.2336 5.15767 10.168 5.25024C10.1138 5.32667 10.0911 5.42071 10.1104 5.51293C10.1274 5.59399 10.1769 5.67381 10.248 5.71801C10.3026 5.75172 10.3674 5.76082 10.4297 5.74633C10.6025 5.70596 10.6977 5.52547 10.7812 5.38598C10.8571 5.5173 10.931 5.67772 10.998 5.81567C10.7948 6.20778 10.5193 6.27219 10.1191 6.16137C10.0863 6.36089 10.0125 6.54835 9.84668 6.67016C9.3797 7.01263 9.26576 6.70666 9.03418 6.40063C9.415 6.42345 9.81057 6.3738 9.54492 5.89184C9.33792 5.5165 8.60104 6.15094 8.41699 6.2893C8.56094 6.44588 8.81247 6.78813 8.94727 6.96313C9.21449 7.31007 9.51302 7.67666 9.76758 8.03051C9.65322 8.1108 9.53449 8.21068 9.4248 8.29907C8.81336 8.12097 8.75162 8.74807 8.42871 9.06958C8.12425 9.37254 7.77994 9.41741 7.36914 9.42016C7.34405 9.29517 7.30499 9.15006 7.27441 9.02465C7.85972 9.01544 8.12956 8.88333 8.41406 8.35766C8.56346 8.08169 8.78765 7.96787 9.08301 7.89086C8.86994 7.62736 8.67575 7.38937 8.38574 7.2102C8.11716 7.66837 7.8913 8.26166 7.73145 8.76684C7.6283 8.74777 7.48248 8.7443 7.37402 8.73852C7.21734 8.35306 7.05758 8.18458 6.72461 8.53344L6.37793 8.45141C6.39512 7.85225 6.62099 7.39504 7.08594 7.00219C7.36944 6.76266 7.68073 6.6757 8.04785 6.7102C7.95196 6.58508 7.85863 6.47036 7.74609 6.35961C8.03699 6.10724 8.35554 5.86722 8.66797 5.64184C8.98379 5.41402 9.22352 5.27629 9.62207 5.39672C9.74324 4.87053 10.0894 4.64348 10.627 4.73461L10.5264 4.552C12.2253 3.75569 13.6286 3.43679 15.4902 3.3518ZM7.7207 7.15747C7.26121 7.24978 7.10911 7.52463 6.95508 7.927C7.10835 7.88237 7.15573 7.8623 7.31641 7.88793C7.41359 7.94344 7.44521 7.97442 7.51074 8.06567C7.64619 7.76663 7.78387 7.43899 7.9375 7.15161C7.87245 7.15294 7.7835 7.15251 7.7207 7.15747ZM14.6416 3.77465C14.3032 3.80701 13.9661 3.85601 13.6328 3.92309C13.8185 4.00487 13.9199 4.08191 14.0449 4.24438L14.1309 4.36547C14.3707 4.17255 14.5516 4.1075 14.8457 4.24145L14.7979 3.76293L14.6416 3.77465Z" fill="white"/>
</svg>
