<svg width="43" height="22" viewBox="0 0 43 22" fill="none" xmlns="http://www.w3.org/2000/svg">
<g clip-path="url(#clip0_9_538)">
<g clip-path="url(#clip1_9_538)">
<path d="M2.18361 19.3417H0.260742V2.30047H17.1658C24.5811 2.30047 25.7513 8.96188 25.7513 8.96188L29.9124 2.30047H34.2727L42.2433 15.221L39.7463 19.3411H29.2366V17.2856H40.9918L32.0878 2.30029C32.0878 2.30029 26.2196 12.5111 24.9599 14.5003C23.7 16.4895 21.3336 19.3407 17.2802 19.3407H11.0024V9.19567H12.9916V17.2851H17.5668C19.5901 17.2851 23.9322 15.5611 23.9322 10.6876C23.9322 5.81412 19.2907 4.28908 17.7657 4.28908H2.18343V19.3402L2.18361 19.3417ZM2.84668 19.3417V12.1143H10.273V14.1035H4.83582V19.3417H2.84659L2.84668 19.3417ZM10.273 11.2522V9.19674H4.83582V7.01651H17.3472C19.2226 7.01651 21.2139 8.53363 21.2139 10.7549C21.2139 12.9761 19.2012 14.5012 17.766 14.5012H15.8156V9.19665H13.7601V16.4904H17.766C20.3031 16.4904 23.2362 14.2883 23.2362 10.8211C23.2362 7.3872 20.5687 5.01936 17.3787 5.01936H2.84712V11.2522H10.2734L10.273 11.2522ZM22.9702 19.3417L32.0877 4.29051L39.5804 16.4905H29.237V14.5012H35.9339L32.0882 8.23526L25.7559 19.3419H22.971L22.9702 19.3417Z" fill="white"/>
</g>
</g>
<defs>
<clipPath id="clip0_9_538">
<rect width="42.4268" height="21.6138" fill="white"/>
</clipPath>
<clipPath id="clip1_9_538">
<rect width="42.4268" height="17.486" fill="white" transform="translate(0 2.06396)"/>
</clipPath>
</defs>
</svg>
