<svg width="170" height="141" viewBox="0 0 170 141" fill="none" xmlns="http://www.w3.org/2000/svg">
<path d="M75.7983 94.4104C76.7083 93.8804 77.0383 93.2004 76.9183 92.4104C76.8283 91.8504 75.5083 91.1004 74.8983 91.4604L56.6783 102.17C54.6183 103.38 52.5483 104.62 50.1383 104.51C47.2283 104.37 44.9183 101.83 45.6583 98.9404C46.1583 96.9904 47.6683 95.1304 49.4383 94.1004L67.6683 83.4304C68.5783 82.8904 69.1683 82.1004 68.4783 81.0904C67.9383 80.2904 67.0483 80.3004 66.1383 80.8304L48.8583 90.9404C44.5183 93.4804 37.3283 96.0804 34.3783 92.8904C33.4983 91.9404 33.1883 90.0704 33.4483 88.8404C34.1783 85.4404 36.4283 83.6304 39.0683 81.8404L46.4583 76.8404L76.4183 57.2204C77.3883 57.0904 78.9483 57.9804 79.3283 58.7004L78.4483 63.9804C78.1483 65.7904 78.2683 67.4704 78.5583 69.2404C79.8883 77.4204 87.1883 79.8504 89.3583 77.8404C91.1083 76.2204 91.7483 74.1604 92.5683 72.0204L97.4583 59.2804C98.6083 56.2904 98.7283 52.8904 96.7383 50.3604C92.9383 45.5104 88.1183 42.3404 82.8683 38.9804C85.0883 38.6604 87.0083 38.8104 89.0283 39.2404C97.1283 40.9804 104.988 43.0004 112.998 45.3404L135.618 86.1504L130.518 89.9004C128.408 87.0804 125.188 84.7804 121.468 84.8804C117.748 84.9804 115.248 87.5504 114.558 91.1204C110.238 88.3004 104.408 89.4204 101.728 93.9204C101.068 95.0404 100.888 96.7804 100.658 98.1404C99.2083 98.1704 97.3083 98.1404 96.1383 98.7904C93.1183 100.48 91.9683 103.5 91.8883 107.02C90.2183 106.83 88.2183 106.53 86.7483 107.11C83.0483 108.54 81.4483 112.42 82.3783 116.24C80.0083 118.03 76.9083 119.11 74.0383 118.14C72.1583 117.5 70.8983 115.9 70.6583 113.98L86.6383 103.92C87.4283 103.43 87.9083 102.55 87.3983 101.54C87.0583 100.89 85.7183 100.91 84.8983 101.44L70.2183 110.79C68.6483 111.79 67.0883 112.53 65.2583 112.99C61.0883 114.03 56.8283 111.61 56.2983 107.12C56.1683 106.02 57.3583 105.26 58.2083 104.76L75.8083 94.4304L75.7983 94.4104Z" fill="#214491"/>
<path d="M28.22 90.8402L0 76.6602C5.02 67.7902 10.72 59.7902 16.65 51.5902C21.47 44.8002 26.07 38.2502 30.33 30.7402L54.68 43.0502L28.22 90.8402ZM22.14 79.6902C24.29 79.8502 25.56 78.6102 25.83 76.7702C26.05 75.2502 24.9 73.6102 23.11 73.3702C21.04 73.0902 19.38 74.2102 19.12 76.2702C18.93 77.7802 20.12 79.5402 22.15 79.6902H22.14Z" fill="#214491"/>
<path d="M169.911 76.6405L141.721 90.8605L115.211 43.0505L139.501 30.7305L143.371 37.1405C147.641 43.7905 152.071 49.9905 156.711 56.4105C161.431 62.9505 165.721 69.3005 169.921 76.6405H169.911ZM150.701 76.5205C150.701 74.7005 149.231 73.2305 147.411 73.2305C145.591 73.2305 144.121 74.7005 144.121 76.5205C144.121 78.3405 145.591 79.8105 147.411 79.8105C149.231 79.8105 150.701 78.3405 150.701 76.5205Z" fill="#214491"/>
<path d="M28.4297 100.182L31.7397 99.9419C42.9497 119.672 63.7397 131.572 86.2397 131.202C108.56 130.832 129.08 118.322 139.6 98.2419L143.49 98.4719L152.55 91.6719C147.37 107.432 137.05 120.732 123.02 129.592C104 141.612 80.6697 144.142 58.5997 135.372C40.8397 128.322 25.0997 112.802 18.4297 93.1019L28.4397 100.182H28.4297Z" fill="#434343"/>
<path d="M131.75 30.7111C107.09 2.16111 62.74 2.27111 38.41 31.1111L29.75 26.8711C43.19 9.84111 63.42 0.121113 84.81 0.00111281C106.2 -0.118887 126.73 9.47111 140.31 26.4111L131.75 30.7211V30.7111Z" fill="#434343"/>
<path d="M87.3997 75.6304C79.6497 73.2004 80.8297 64.4804 83.0997 56.8304L76.5097 53.1304C75.2997 54.5304 73.6897 55.7204 72.0797 56.7604L66.1397 60.6104L38.6797 78.5004L57.1397 45.2404L61.9197 43.1704C65.3997 41.4704 68.6097 39.9104 72.3297 38.5004C73.4197 38.0904 75.5597 38.7104 76.6997 39.2304C83.2297 42.1704 88.9197 46.2304 93.8097 51.4004C96.3397 54.0704 95.0497 57.3704 93.6297 61.0104L89.4197 71.8404C88.9097 73.1704 88.2797 74.4004 87.3897 75.6304H87.3997Z" fill="#214491"/>
<path d="M119.731 102.862C118.751 107.492 113.881 109.392 109.981 107.832L104.221 99.4917C103.211 98.0317 103.971 95.4817 105.131 94.3317C107.761 91.7117 112.311 91.8517 114.421 94.9817L119.741 102.872L119.731 102.862Z" fill="#214491"/>
<path d="M102.118 114.692C100.828 114.472 99.1284 114.082 98.5884 113.452C97.2084 111.822 95.9684 110.012 95.2884 108.122C94.2784 105.302 95.6384 101.942 98.5384 101.122C99.8284 100.752 101.748 101.622 102.498 102.702C104.088 104.982 106.168 107.052 107.248 109.582C108.408 112.292 104.888 115.162 102.118 114.692Z" fill="#214491"/>
<path d="M127.699 98.7505C126.349 100.201 124.229 101.701 122.169 101.081L118.369 95.4405C117.449 94.0705 117.239 92.3705 117.789 90.7605C118.209 89.5205 119.649 87.9905 121.289 87.8505C124.259 87.5905 126.339 89.4505 127.919 91.5705C129.619 93.8505 129.849 96.4505 127.699 98.7605V98.7505Z" fill="#214491"/>
<path d="M95.5211 117.502C94.9111 119.522 93.2511 121.592 91.0211 121.312C87.7811 120.912 85.4011 117.812 85.1511 114.712C84.9311 111.942 86.7111 109.582 89.4411 109.652C92.1711 109.722 93.7411 111.612 94.9811 113.672C95.6911 114.862 96.0111 115.892 95.5211 117.502Z" fill="#214491"/>
<path d="M22.1418 79.6906C20.1118 79.5406 18.9318 77.7706 19.1118 76.2706C19.3618 74.2106 21.0318 73.0906 23.1018 73.3706C24.8918 73.6106 26.0418 75.2506 25.8218 76.7706C25.5618 78.6106 24.2918 79.8506 22.1318 79.6906H22.1418Z" fill="white"/>
<path d="M147.411 79.8105C149.228 79.8105 150.701 78.3375 150.701 76.5205C150.701 74.7035 149.228 73.2305 147.411 73.2305C145.594 73.2305 144.121 74.7035 144.121 76.5205C144.121 78.3375 145.594 79.8105 147.411 79.8105Z" fill="white"/>
</svg>
