<?xml version="1.0" encoding="UTF-8"?>
<svg id="Layer_1" data-name="Layer 1" xmlns="http://www.w3.org/2000/svg" viewBox="0 0 1199 178.62">
  <defs>
    <style>
      .cls-1 {
        fill: #434343;
      }

      .cls-2 {
        fill: #fff;
      }

      .cls-3 {
        fill: #214491;
      }
    </style>
  </defs>
  <g>
    <path class="cls-3" d="M95.71,110.94c.91-.53,1.24-1.21,1.12-2-.09-.56-1.41-1.31-2.02-.95l-18.22,10.71c-2.06,1.21-4.13,2.45-6.54,2.34-2.91-.14-5.22-2.68-4.48-5.57.5-1.95,2.01-3.81,3.78-4.84l18.23-10.67c.91-.54,1.5-1.33.81-2.34-.54-.8-1.43-.79-2.34-.26l-17.28,10.11c-4.34,2.54-11.53,5.14-14.48,1.95-.88-.95-1.19-2.82-.93-4.05.73-3.4,2.98-5.21,5.62-7l7.39-5,29.96-19.62c.97-.13,2.53.76,2.91,1.48l-.88,5.28c-.3,1.81-.18,3.49.11,5.26,1.33,8.18,8.63,10.61,10.8,8.6,1.75-1.62,2.39-3.68,3.21-5.82l4.89-12.74c1.15-2.99,1.27-6.39-.72-8.92-3.8-4.85-8.62-8.02-13.87-11.38,2.22-.32,4.14-.17,6.16.26,8.1,1.74,15.96,3.76,23.97,6.1l22.62,40.81-5.1,3.75c-2.11-2.82-5.33-5.12-9.05-5.02s-6.22,2.67-6.91,6.24c-4.32-2.82-10.15-1.7-12.83,2.8-.66,1.12-.84,2.86-1.07,4.22-1.45.03-3.35,0-4.52.65-3.02,1.69-4.17,4.71-4.25,8.23-1.67-.19-3.67-.49-5.14.09-3.7,1.43-5.3,5.31-4.37,9.13-2.37,1.79-5.47,2.87-8.34,1.9-1.88-.64-3.14-2.24-3.38-4.16l15.98-10.06c.79-.49,1.27-1.37.76-2.38-.34-.65-1.68-.63-2.5-.1l-14.68,9.35c-1.57,1-3.13,1.74-4.96,2.2-4.17,1.04-8.43-1.38-8.96-5.87-.13-1.1,1.06-1.86,1.91-2.36l17.6-10.33Z"/>
    <path class="cls-3" d="M48.13,107.37l-28.22-14.18c5.02-8.87,10.72-16.87,16.65-25.07,4.82-6.79,9.42-13.34,13.68-20.85l24.35,12.31-26.46,47.79ZM42.05,96.22c2.15.16,3.42-1.08,3.69-2.92.22-1.52-.93-3.16-2.72-3.4-2.07-.28-3.73.84-3.99,2.9-.19,1.51,1,3.27,3.03,3.42Z"/>
    <path class="cls-3" d="M189.82,93.17l-28.19,14.22-26.51-47.81,24.29-12.32,3.87,6.41c4.27,6.65,8.7,12.85,13.34,19.27,4.72,6.54,9.01,12.89,13.21,20.23ZM170.61,93.05c0-1.82-1.47-3.29-3.29-3.29s-3.29,1.47-3.29,3.29,1.47,3.29,3.29,3.29,3.29-1.47,3.29-3.29Z"/>
    <path class="cls-1" d="M48.34,116.71l3.31-.24c11.21,19.73,32,31.63,54.5,31.26,22.32-.37,42.84-12.88,53.36-32.96l3.89.23,9.06-6.8c-5.18,15.76-15.5,29.06-29.53,37.92-19.02,12.02-42.35,14.55-64.42,5.78-17.76-7.05-33.5-22.57-40.17-42.27l10.01,7.08Z"/>
    <path class="cls-1" d="M151.66,47.24c-24.66-28.55-69.01-28.44-93.34.4l-8.66-4.24c13.44-17.03,33.67-26.75,55.06-26.87,21.46-.12,41.92,9.47,55.5,26.41l-8.56,4.31Z"/>
    <path class="cls-3" d="M107.31,92.16c-7.75-2.43-6.57-11.15-4.3-18.8l-6.59-3.7c-1.21,1.4-2.82,2.59-4.43,3.63l-5.94,3.85-27.46,17.89,18.46-33.26,4.78-2.07c3.48-1.7,6.69-3.26,10.41-4.67,1.09-.41,3.23.21,4.37.73,6.53,2.94,12.22,7,17.11,12.17,2.53,2.67,1.24,5.97-.18,9.61l-4.21,10.83c-.51,1.33-1.14,2.56-2.03,3.79Z"/>
    <path class="cls-3" d="M139.64,119.39c-.98,4.63-5.85,6.53-9.75,4.97l-5.76-8.34c-1.01-1.46-.25-4.01.91-5.16,2.63-2.62,7.18-2.48,9.29.65l5.32,7.89Z"/>
    <path class="cls-3" d="M122.03,131.22c-1.29-.22-2.99-.61-3.53-1.24-1.38-1.63-2.62-3.44-3.3-5.33-1.01-2.82.35-6.18,3.25-7,1.29-.37,3.21.5,3.96,1.58,1.59,2.28,3.67,4.35,4.75,6.88,1.16,2.71-2.36,5.58-5.13,5.11Z"/>
    <path class="cls-3" d="M147.61,115.28c-1.35,1.45-3.47,2.95-5.53,2.33l-3.8-5.64c-.92-1.37-1.13-3.07-.58-4.68.42-1.24,1.86-2.77,3.5-2.91,2.97-.26,5.05,1.6,6.63,3.72,1.7,2.28,1.93,4.88-.22,7.19Z"/>
    <path class="cls-3" d="M115.43,134.03c-.61,2.02-2.27,4.09-4.5,3.81-3.24-.4-5.62-3.5-5.87-6.6-.22-2.77,1.56-5.13,4.29-5.06s4.3,1.96,5.54,4.02c.71,1.19,1.03,2.22.54,3.83Z"/>
    <path class="cls-2" d="M42.05,96.22c-2.03-.15-3.21-1.92-3.03-3.42.25-2.06,1.92-3.18,3.99-2.9,1.79.24,2.94,1.88,2.72,3.4-.26,1.84-1.53,3.08-3.69,2.92Z"/>
    <circle class="cls-2" cx="167.32" cy="93.05" r="3.29"/>
  </g>
  <g>
    <path class="cls-1" d="M218.42,115.96V38.98h12.65v31.89h37.94v-31.89h12.65v76.99h-12.65v-32.99h-37.94v32.99h-12.65Z"/>
    <path class="cls-1" d="M297.77,108.65c-5.54-5.61-8.3-12.52-8.3-20.73s2.77-15.12,8.3-20.73c5.54-5.61,12.3-8.41,20.29-8.41s14.75,2.8,20.29,8.41c5.54,5.61,8.3,12.52,8.3,20.73v3.85h-45.64c.88,4.62,2.9,8.25,6.05,10.89,3.15,2.64,6.82,3.96,11,3.96,5.13,0,9.24-1.28,12.32-3.85,1.39-1.03,2.6-2.31,3.63-3.85h12.1c-1.54,3.59-3.48,6.64-5.83,9.13-6.01,6.01-13.42,9.02-22.22,9.02-7.99,0-14.76-2.8-20.29-8.41ZM301.56,82.42h32.99c-.66-3.67-2.4-6.78-5.22-9.35-2.82-2.57-6.58-3.85-11.27-3.85-3.96,0-7.48,1.19-10.56,3.57-3.08,2.38-5.06,5.59-5.94,9.62Z"/>
    <path class="cls-1" d="M357.59,108.98c-5.02-5.39-7.53-12.41-7.53-21.06s2.51-15.67,7.53-21.06c5.02-5.39,11.31-8.08,18.86-8.08,4.77,0,9.13,1.39,13.09,4.18,1.69,1.17,3.19,2.53,4.51,4.07h.55v-7.15h11.55v56.09h-11.55v-7.7h-.55c-1.1,1.54-2.6,3.01-4.51,4.4-3.96,2.93-8.32,4.4-13.09,4.4-7.55,0-13.84-2.69-18.86-8.08ZM366.56,74.06c-2.93,3.23-4.4,7.85-4.4,13.86s1.47,10.63,4.4,13.86c2.93,3.23,6.96,4.84,12.1,4.84,4.84,0,8.71-1.63,11.6-4.89,2.9-3.26,4.34-7.86,4.34-13.8s-1.45-10.54-4.34-13.8c-2.9-3.26-6.76-4.89-11.6-4.89-5.13,0-9.17,1.61-12.1,4.84Z"/>
    <path class="cls-1" d="M416.16,115.96V38.98h11.55v66.54h12.65v10.45h-24.2Z"/>
    <path class="cls-1" d="M445.74,49.65c-1.32-1.32-1.98-2.93-1.98-4.84s.66-3.54,1.98-4.89c1.32-1.36,2.93-2.04,4.84-2.04s3.54.68,4.89,2.04c1.36,1.36,2.03,2.99,2.03,4.89s-.68,3.52-2.03,4.84c-1.36,1.32-2.99,1.98-4.89,1.98s-3.52-.66-4.84-1.98ZM444.86,115.96v-56.09h11.55v56.09h-11.55Z"/>
    <path class="cls-1" d="M466.42,115.96v-56.09h11.55v7.7h.55c.88-1.47,2.24-2.93,4.07-4.4,3.96-2.93,8.47-4.4,13.53-4.4,6.96,0,12.37,2.02,16.22,6.05,3.85,4.03,5.77,9.9,5.77,17.6v33.54h-11.55v-32.44c0-4.91-1.08-8.52-3.24-10.83-2.16-2.31-5.48-3.46-9.95-3.46s-8.16,1.52-11.05,4.56c-2.9,3.04-4.34,7.02-4.34,11.93v30.24h-11.55Z"/>
    <path class="cls-1" d="M531.8,108.98c-5.02-5.39-7.53-12.41-7.53-21.06s2.51-15.67,7.53-21.06c5.02-5.39,11.31-8.08,18.86-8.08,4.77,0,9.13,1.39,13.09,4.18,1.76,1.25,3.26,2.64,4.51,4.18h.55v-7.26h11.55v76.99h-47.84v-10.45h36.29v-17.6h-.55c-1.25,1.54-2.75,2.93-4.51,4.18-3.89,2.71-8.25,4.07-13.09,4.07-7.55,0-13.84-2.69-18.86-8.08ZM540.76,74.06c-2.93,3.23-4.4,7.85-4.4,13.86s1.47,10.63,4.4,13.86c2.93,3.23,6.96,4.84,12.1,4.84,4.84,0,8.71-1.63,11.6-4.89,2.9-3.26,4.34-7.86,4.34-13.8s-1.45-10.54-4.34-13.8c-2.9-3.26-6.76-4.89-11.6-4.89-5.13,0-9.17,1.61-12.1,4.84Z"/>
    <path class="cls-1" d="M606.97,51.08v-12.1h63.24v12.1h-25.3v64.89h-12.65V51.08h-25.3Z"/>
    <path class="cls-1" d="M675.32,108.65c-5.54-5.61-8.3-12.52-8.3-20.73s2.77-15.12,8.3-20.73c5.54-5.61,12.3-8.41,20.29-8.41s14.75,2.8,20.29,8.41c5.54,5.61,8.3,12.52,8.3,20.73v3.85h-45.64c.88,4.62,2.9,8.25,6.05,10.89,3.15,2.64,6.82,3.96,11,3.96,5.13,0,9.24-1.28,12.32-3.85,1.39-1.03,2.6-2.31,3.63-3.85h12.1c-1.54,3.59-3.48,6.64-5.83,9.13-6.01,6.01-13.42,9.02-22.22,9.02-7.99,0-14.76-2.8-20.29-8.41ZM679.12,82.42h32.99c-.66-3.67-2.4-6.78-5.22-9.35-2.82-2.57-6.58-3.85-11.27-3.85-3.96,0-7.48,1.19-10.56,3.57-3.08,2.38-5.06,5.59-5.94,9.62Z"/>
    <path class="cls-1" d="M735.64,108.82c-5.35-5.5-8.03-12.46-8.03-20.9s2.67-15.4,8.03-20.9c5.35-5.5,12.02-8.25,20.02-8.25,8.94,0,16.24,3.41,21.89,10.23,2.42,3.15,4.11,6.53,5.06,10.12h-12.1c-.51-1.83-1.47-3.48-2.86-4.95-2.86-3.3-6.86-4.95-11.99-4.95-4.55,0-8.34,1.72-11.38,5.17-3.04,3.45-4.56,7.96-4.56,13.53s1.52,10.08,4.56,13.53c3.04,3.45,6.84,5.17,11.38,5.17,5.28,0,9.42-1.65,12.43-4.95,1.32-1.47,2.31-3.12,2.97-4.95h11.55c-.95,3.74-2.64,7.15-5.06,10.23-5.57,6.75-12.87,10.12-21.89,10.12-7.99,0-14.67-2.75-20.02-8.25Z"/>
    <path class="cls-1" d="M788.76,115.96V38.98h11.55v28.6h.55c.88-1.47,2.24-2.93,4.07-4.4,3.96-2.93,8.47-4.4,13.53-4.4,6.96,0,12.37,2.02,16.22,6.05,3.85,4.03,5.77,9.9,5.77,17.6v33.54h-11.55v-32.44c0-4.91-1.08-8.52-3.24-10.83-2.16-2.31-5.48-3.46-9.95-3.46s-8.16,1.52-11.05,4.56c-2.9,3.04-4.34,7.02-4.34,11.93v30.24h-11.55Z"/>
    <path class="cls-1" d="M849.91,115.96v-56.09h11.55v7.7h.55c.88-1.47,2.24-2.93,4.07-4.4,3.96-2.93,8.47-4.4,13.53-4.4,6.96,0,12.37,2.02,16.22,6.05,3.85,4.03,5.77,9.9,5.77,17.6v33.54h-11.55v-32.44c0-4.91-1.08-8.52-3.24-10.83-2.16-2.31-5.48-3.46-9.95-3.46s-8.16,1.52-11.05,4.56c-2.9,3.04-4.34,7.02-4.34,11.93v30.24h-11.55Z"/>
    <path class="cls-1" d="M916.17,108.65c-5.61-5.61-8.41-12.52-8.41-20.73s2.8-15.12,8.41-20.73c5.61-5.61,12.52-8.41,20.73-8.41s15.12,2.8,20.73,8.41c5.61,5.61,8.41,12.52,8.41,20.73s-2.8,15.12-8.41,20.73c-5.61,5.61-12.52,8.41-20.73,8.41s-15.12-2.8-20.73-8.41ZM924.59,74.34c-3.15,3.41-4.73,7.94-4.73,13.58s1.58,10.17,4.73,13.58c3.15,3.41,7.26,5.11,12.32,5.11s9.16-1.71,12.32-5.11c3.15-3.41,4.73-7.94,4.73-13.58s-1.58-10.17-4.73-13.58c-3.15-3.41-7.26-5.11-12.32-5.11s-9.17,1.7-12.32,5.11Z"/>
    <path class="cls-1" d="M972.76,115.96V38.98h11.55v66.54h12.65v10.45h-24.2Z"/>
    <path class="cls-1" d="M1006.58,108.65c-5.61-5.61-8.41-12.52-8.41-20.73s2.8-15.12,8.41-20.73c5.61-5.61,12.52-8.41,20.73-8.41s15.12,2.8,20.73,8.41c5.61,5.61,8.41,12.52,8.41,20.73s-2.8,15.12-8.41,20.73c-5.61,5.61-12.52,8.41-20.73,8.41s-15.12-2.8-20.73-8.41ZM1014.99,74.34c-3.15,3.41-4.73,7.94-4.73,13.58s1.58,10.17,4.73,13.58c3.15,3.41,7.26,5.11,12.32,5.11s9.16-1.71,12.32-5.11c3.15-3.41,4.73-7.94,4.73-13.58s-1.58-10.17-4.73-13.58c-3.15-3.41-7.26-5.11-12.32-5.11s-9.17,1.7-12.32,5.11Z"/>
    <path class="cls-1" d="M1067.4,108.98c-5.02-5.39-7.53-12.41-7.53-21.06s2.51-15.67,7.53-21.06c5.02-5.39,11.31-8.08,18.86-8.08,4.77,0,9.13,1.39,13.09,4.18,1.76,1.25,3.26,2.64,4.51,4.18h.55v-7.26h11.55v76.99h-47.84v-10.45h36.29v-17.6h-.55c-1.25,1.54-2.75,2.93-4.51,4.18-3.89,2.71-8.25,4.07-13.09,4.07-7.55,0-13.84-2.69-18.86-8.08ZM1076.36,74.06c-2.93,3.23-4.4,7.85-4.4,13.86s1.47,10.63,4.4,13.86c2.93,3.23,6.96,4.84,12.1,4.84,4.84,0,8.71-1.63,11.6-4.89,2.9-3.26,4.34-7.86,4.34-13.8s-1.45-10.54-4.34-13.8c-2.9-3.26-6.76-4.89-11.6-4.89-5.13,0-9.17,1.61-12.1,4.84Z"/>
    <path class="cls-1" d="M1120.46,59.87h12.1l12.1,45.09h6.05l13.2-45.09h12.1l-23.1,76.99h-12.1l6.6-20.9h-11.55l-15.4-56.09Z"/>
  </g>
</svg>